<svg width="85" height="75" viewBox="0 0 85 75" fill="none" xmlns="http://www.w3.org/2000/svg">
<path d="M62.0807 0L62.7435 0.220928L64.0691 2.65113L67.162 8.17433L70.0341 13.0347L71.8015 15.6859L71.5806 16.7905L68.4876 22.3137L66.0574 26.5113L62.7435 32.2555L59.6505 37.5577L56.1157 43.7437L53.0227 49.046L52.8017 49.4878H55.4529L58.9877 43.3018L62.3016 37.5577L65.3946 32.2555L71.5806 21.43L72.6852 19.8835L74.0108 20.3254L75.1154 20.9881L73.5689 24.0811L70.476 29.3834L63.8481 40.8716L60.7551 46.1739L58.7668 49.7087H61.6388L62.0807 48.6041L64.9528 43.5228L68.0458 38.2205L75.1154 25.8485L75.7782 24.9648L76.8829 25.1858L78.2084 26.0695L76.441 29.6043L73.348 34.9066L66.7202 46.3948L64.9528 49.4878H67.6039L73.7899 38.6624L76.2201 34.4647L78.8712 29.8252L80.1968 30.2671L81.3014 30.9299L81.0805 32.0345L77.5456 38.2205L74.4527 43.5228L71.1387 49.2669L70.9178 49.4878H73.5689L75.3364 46.6158L78.8712 40.4298L81.9642 35.1275L82.627 34.9066L84.3944 35.7903L84.1735 37.1159L77.1038 49.4878L75.3364 52.3599L36.674 52.5808L37.9996 54.5692V55.011H72.2434L72.4643 55.2319V57.6621L39.767 57.8831L41.0926 60.0923L69.8132 60.3133V62.7435H42.6391L44.1856 65.3946L67.162 65.6155V68.0457L46.8367 68.2667L45.732 68.0457L47.0576 70.476V70.9178H64.29V73.348L64.0691 73.5689H45.5111L43.3018 69.8132L39.9879 64.069L34.6857 54.7901L32.4764 51.0343L28.9415 44.8483L26.0695 39.9879L24.9648 41.9763L25.1858 43.0809L28.4997 48.825L31.5927 54.1273L34.6857 59.6505L36.674 62.9644L41.9763 72.2434L41.0926 73.1271L40.2089 73.5689L39.3251 73.348L37.1159 69.5922L33.8019 63.8481L30.709 58.5459L27.8369 53.4645L25.4067 49.2669L23.1974 45.5111L22.3137 46.6158L21.8718 47.9413L24.9648 53.2436L34.9066 70.476L36.0112 72.6852L34.0229 74.0108H33.581L30.488 68.7085L26.9532 62.5226L23.6393 56.7784L20.5463 51.4762L19.8835 50.8134L18.9998 52.5808L19.2207 53.9064L21.2091 57.2203L27.8369 68.7085L30.0462 72.6852L28.9415 73.7899L27.8369 74.2317L26.9532 73.1271L23.4183 66.9411L20.1044 61.197L17.2324 56.3366V55.8947H16.7905L15.9068 58.5459L19.4416 64.7318L21.8718 68.9295L24.0811 72.6852L23.8602 73.5689L22.0928 74.4527L20.9881 73.348L17.8951 67.8248L15.6859 64.069L13.0347 59.2086L12.5929 58.104L14.8022 54.3482L18.1161 48.6041L21.6509 42.4181L24.9648 36.674L28.0578 31.3717L31.5927 25.1858L32.0345 24.523H28.7206L28.2788 25.6276L26.0695 29.6043L22.9765 34.9066L19.4416 41.0926L12.8138 52.5808L11.4882 54.5692L9.49989 53.4645L9.94175 52.1389L13.0347 46.8367L22.9765 29.6043L25.4067 25.4067L25.8485 24.7439H22.7556L19.2207 30.9299L12.5929 42.4181L9.49989 47.7204L8.39526 49.4878L6.18598 48.3832L7.51154 45.953L10.3836 40.8716L13.4766 35.5694L16.7905 29.8252L19.4416 25.1858L19.8835 24.523H16.5696L16.1277 25.6276L13.9184 29.6043L10.8255 34.9066L7.51154 40.6507L5.30227 44.4065L3.9767 43.9646L3.09299 43.3018L3.53484 42.1972L6.62783 36.8949L10.1627 30.709L13.2557 25.4067L13.6975 24.7439H10.6045L3.9767 36.2322L2.20928 39.3251L1.10464 39.1042L0 38.4414L0.441856 37.1159L3.9767 30.9299L7.06969 25.6276L9.05804 22.3137L9.27897 22.0928L47.7204 21.8718L46.3948 19.4416L11.9301 19.2207V17.0114H44.8483L43.5228 14.5812V14.1394H14.8022L14.5812 13.9184V11.7092L41.7553 11.4882L40.4298 9.05804L17.4533 8.83711V6.4069L38.6624 6.18598L37.3368 3.75577L20.1044 3.53484V1.10464H38.8833L41.9763 6.62783L45.0693 11.9301L48.6041 18.1161L51.6971 23.4183L57.8831 34.2438L58.5459 33.581L59.4296 32.0345L58.9877 30.9299L55.8947 25.4067L52.8017 20.1044L49.2669 13.9184L45.953 8.17433L43.3018 3.53484L42.6391 2.43021L43.0809 1.54649L44.1856 0.883711H44.8483L47.2785 5.30227L50.3715 10.6045L53.9064 16.7905L56.9994 22.0928L60.3133 27.8369L60.9761 28.9415L61.4179 29.1625L61.8598 27.8369L62.5226 26.7323L62.0807 25.6276L58.5459 19.4416L51.918 7.9534L49.2669 3.31392L48.6041 2.20928V1.54649L50.1506 0.662783H50.8134L53.2436 5.08134L56.3366 10.3836L59.8714 16.5696L62.9644 21.8718L63.8481 23.4183V23.8602L64.5109 23.1974L65.3946 21.6509L65.1737 20.5463L62.0807 15.0231L58.9877 9.72082L54.5692 1.98835L54.7901 1.10464L56.1157 0.220928H56.5575L60.0924 6.4069L66.7202 17.8951L67.162 18.5579L68.4876 16.3487L68.2667 15.244L64.9528 9.49989L61.4179 3.31392L60.3133 1.54649V1.10464L62.0807 0ZM34.9066 24.523L33.1392 27.395L30.9299 31.3717L28.4997 35.5694L27.616 37.3368L28.9415 39.3251L32.0345 44.8483L34.2438 48.6041L34.9066 49.7087L38.8833 49.9297L49.4878 49.7087L53.0227 43.5228L56.3366 37.7786L56.5575 36.8949L53.2436 30.9299L51.0343 27.1741L49.4878 24.523H34.9066Z" fill="#052D6A"/>
<path d="M20.1044 1.10474H38.8833L41.9763 6.62793L45.0693 11.9302L48.6041 18.1162L51.6971 23.4184L57.8831 34.2439L57.4412 35.3485L56.5575 36.6741L55.8947 36.0113L49.7087 25.1859L49.4878 24.744H34.9066L32.0345 29.8253L28.9415 35.1276L26.5113 39.3252L24.9648 41.9764L25.1858 43.081L28.4997 48.8251L31.5927 54.1274L34.6857 59.6506L36.674 62.9645L41.9763 72.2435L41.0926 73.1272L40.2089 73.569L39.3251 73.3481L37.1159 69.5923L33.8019 63.8482L30.709 58.546L27.8369 53.4646L25.4067 49.267L23.1974 45.5112L22.3137 46.6159L21.8718 47.9414L24.9648 53.2437L34.9066 70.4761L36.0112 72.6853L34.0229 74.0109H33.581L30.488 68.7086L26.9532 62.5227L23.6393 56.7785L20.5463 51.4763L19.8835 50.8135L18.9998 52.5809L19.2207 53.9065L21.2091 57.2204L27.8369 68.7086L30.0462 72.6853L28.9415 73.79L27.8369 74.2318L26.9532 73.1272L23.4183 66.9412L20.1044 61.1971L17.2324 56.3367V55.8948H16.7905L15.9068 58.546L19.4416 64.7319L21.8718 68.9296L24.0811 72.6853L23.8602 73.569L22.0928 74.4528L20.9881 73.3481L17.8951 67.8249L15.6859 64.0691L13.0347 59.2087L12.5929 58.1041L14.8022 54.3483L18.1161 48.6042L21.6509 42.4182L24.9648 36.6741L28.0578 31.3718L31.5927 25.1859L32.0345 24.5231H28.7206L28.2788 25.6277L26.0695 29.6044L22.9765 34.9067L19.4416 41.0927L12.8138 52.5809L11.4882 54.5693L9.49989 53.4646L9.94175 52.139L13.0347 46.8368L22.9765 29.6044L25.4067 25.4068L25.8485 24.744H22.7556L19.2207 30.93L12.5929 42.4182L9.49989 47.7205L8.39525 49.4879L6.18598 48.3833L7.51154 45.9531L10.3836 40.8717L13.4766 35.5695L16.7905 29.8253L19.4416 25.1859L19.8835 24.5231H16.5696L16.1277 25.6277L13.9184 29.6044L10.8255 34.9067L7.51154 40.6508L5.30227 44.4066L3.9767 43.9647L3.09299 43.3019L3.53484 42.1973L6.62783 36.895L10.1627 30.7091L13.2557 25.4068L13.6975 24.744H10.6045L3.9767 36.2323L2.20928 39.3252L1.10464 39.1043L0 38.4415L0.441855 37.116L3.9767 30.93L7.06969 25.6277L9.05804 22.3138L9.27896 22.0929L47.7204 21.8719L46.3948 19.4417L11.9301 19.2208V17.0115H44.8483L43.5228 14.5813V14.1395H14.8022L14.5812 13.9185V11.7093L41.7553 11.4883L40.4298 9.05814L17.4533 8.83721V6.407L38.6624 6.18607L37.3368 3.75587L20.1044 3.53494V1.10474Z" fill="#99C923"/>
<path d="M18.3369 53.0225H18.7788L28.7205 70.2548L30.0461 72.906L28.9415 73.7897L27.8368 74.2315L26.9531 73.1269L23.4183 66.9409L20.1044 61.1968L17.2323 56.3364V55.8945H16.7904L15.9067 58.5457L19.4416 64.7316L21.8718 68.9293L24.0811 72.685L23.8601 73.5687L22.0927 74.4525L20.9881 73.3478L17.8951 67.8246L15.6858 64.0688L13.4765 60.0921L13.6975 59.2084L15.4649 57.441L18.3369 53.0225Z" fill="#062E6A"/>
<path d="M24.5229 42.6389L25.6275 43.7436L28.4996 48.8249L31.5925 54.1272L34.6855 59.6504L36.6739 62.9643L41.9761 72.2432L41.0924 73.1269L40.2087 73.5688L39.325 73.3479L37.1157 69.5921L33.8018 63.848L30.7088 58.5457L27.8368 53.4644L25.4066 49.2667L23.1973 45.511H22.7554L22.9764 44.4063L24.5229 42.6389Z" fill="#052D6A"/>
<path d="M44.1855 0.883789H44.8483L47.2785 5.30234L50.3715 10.6046L53.9063 16.7906L56.9993 22.0929L60.3132 27.837L61.1969 29.3835L59.8714 31.3718L59.4295 31.5927L55.8947 25.4068L52.8017 20.1045L49.2668 13.9185L45.9529 8.17441L43.3018 3.53492L42.639 2.43028L43.0809 1.54657L44.1855 0.883789Z" fill="#9ACA23"/>
<path d="M21.4299 48.1621L22.3136 48.604L25.8484 54.7899L35.7902 72.0223L36.0111 72.6851L34.0228 74.0107H33.5809L30.4879 68.7084L26.9531 62.5224L23.6392 56.7783L20.5462 51.476L20.1043 50.8132L20.3252 49.4877L21.4299 48.1621Z" fill="#052D6A"/>
<path d="M50.1505 0.662842H50.8133L53.2435 5.0814L56.3365 10.3837L59.8713 16.5696L62.9643 21.8719L63.848 23.4184L63.6271 24.744L62.7434 26.2905L61.8597 25.1858L51.918 7.95346L49.2668 3.31397L48.604 2.20934V1.54655L50.1505 0.662842Z" fill="#9ACA23"/>
<path d="M56.1156 0.220947H56.5574L60.0923 6.40692L66.7201 17.8952L67.1619 18.558L66.941 19.6626L65.8364 21.43L65.1736 20.5463L62.0806 15.0231L58.9876 9.72084L54.5691 1.98837L54.79 1.10466L56.1156 0.220947Z" fill="#9ACA23"/>
<path d="M62.0806 0L62.7433 0.220928L64.0689 2.65113L67.1619 8.17433L70.034 13.0347L69.5921 14.3603L68.7084 15.6859L67.8247 14.5812L65.6154 10.6045L62.5224 5.30227L60.3131 1.54649V1.10464L62.0806 0Z" fill="#9ACA23"/>
</svg>
