<svg width="175" height="32" viewBox="0 0 175 32" fill="none" xmlns="http://www.w3.org/2000/svg">
<path d="M0.81215 2.7627H7.49758L7.94327 4.99117L9.99347 15.777L10.5283 18.6294L10.7957 17.5598L13.6482 3.56495L13.8264 2.7627H20.2445L20.3336 3.56495L20.7793 29.5044V30.6632L20.6902 30.7523H16.4115L16.3223 30.6632L15.8766 15.153L15.7875 12.7463L12.8459 29.5935L12.6676 30.6632L12.5785 30.7523H8.74552L8.47811 29.9501L6.51705 19.2534L5.2691 12.4788L4.91255 28.4347L4.82341 30.6632L4.73427 30.7523H0.366455V26.9194L0.723011 6.50653L0.81215 2.7627Z" fill="#E9F0FD"/>
<path d="M128.103 2.40625H129.172L131.044 2.58453L132.738 3.03022L133.897 3.6542L134.966 4.63473L135.59 5.43698L136.125 6.59578L136.482 7.84373L136.66 9.09168L136.749 12.8355L136.66 12.9247H130.598L130.509 8.64598L130.331 7.84373L129.974 7.3089L129.44 6.95234L128.994 6.8632H128.281L127.479 7.13062L126.944 7.75459L126.676 8.55684L126.587 9.35909V24.3344L126.765 25.4041L127.122 26.1172L127.657 26.5629L128.192 26.7412H129.083L129.796 26.4738L130.242 25.9389L130.42 25.4041L130.509 24.7801L130.598 20.5015H136.66L136.749 20.7689V22.106L136.66 24.3344L136.392 26.0281L135.947 27.3652L135.501 28.2566L134.877 29.0588L134.253 29.6828L133.005 30.485L131.668 30.9307L130.064 31.1982H127.211L125.607 30.9307L124.27 30.485L123.111 29.7719L122.041 28.7914L121.239 27.5435L120.793 26.3846L120.437 24.8693L120.258 23.5322V10.0722L120.526 8.28942L121.061 6.50664L121.685 5.34784L122.487 4.36731L123.556 3.56506L124.626 3.03022L125.785 2.67367L126.855 2.49539L128.103 2.40625Z" fill="#A3CB38"/>
<path d="M31.2977 2.7627H38.3397L38.6071 3.9215L40.9247 16.3118L42.6184 25.404L43.5098 30.2175V30.7523H37.894L37.7157 30.1284L36.9135 25.1366L36.8243 24.8692H32.8131L32.5457 26.7411L31.9217 30.5741L31.8325 30.7523H26.0385L26.1277 29.7718L28.891 15.153L31.1194 3.38667L31.2977 2.7627ZM34.7741 10.4287L33.3479 20.9471V21.1253H36.2895L36.2004 19.8774L34.9524 10.7852L34.7741 10.4287Z" fill="#E9F0FD"/>
<path d="M102.52 2.7627H115.088V6.95223H108.759V13.3702L108.67 13.9051H113.573V18.1837H108.759V26.4737L115.177 26.5628V30.6632L115.088 30.7523H102.52V2.7627Z" fill="#A3CB38"/>
<path d="M66.5074 2.7627H79.076V6.95223H72.7472V13.2811L72.658 13.9051H77.5607V18.1837H72.7472V26.4737L79.1652 26.5628V30.6632L79.076 30.7523H66.5074V2.7627Z" fill="#E9F0FD"/>
<path d="M48.3232 2.7627H60.981V5.9717L60.7136 7.04137L58.7525 12.8354L57.5045 16.401L56.4349 19.61L55.0978 23.4429L54.0281 26.5628H60.981L61.0701 30.6632L60.981 30.7523H48.0558L47.9667 30.6632V27.1868L48.4124 25.6714L50.2843 20.1448L51.6214 16.3118L52.8693 12.568L54.2064 8.73501L54.8304 6.95223H48.3232V2.7627Z" fill="#E9F0FD"/>
<path d="M82.909 2.7627H97.5278V7.30879L93.4274 7.39792L93.3383 30.7523H87.1877L87.0986 30.6632V7.30879H82.909V2.7627Z" fill="#A3CB38"/>
<path d="M165.631 0.801758L165.898 0.890897L166.433 1.87143L167.681 4.0999L168.84 6.06096L169.553 7.13063L169.464 7.57632L168.216 9.8048L167.235 11.4984L165.898 13.8161L164.65 15.9554L163.224 18.4513L161.976 20.5906L161.887 20.7689H162.956L164.383 18.273L165.72 15.9554L166.968 13.8161L169.464 9.44824L169.909 8.82427L170.444 9.00255L170.89 9.26997L170.266 10.5179L169.018 12.6572L166.344 17.2925L165.096 19.4318L164.293 20.858H165.452L165.631 20.4123L166.789 18.3621L168.037 16.2228L170.89 11.231L171.157 10.8745L171.603 10.9636L172.138 11.3202L171.425 12.7464L170.177 14.8857L167.502 19.521L166.789 20.7689H167.859L170.355 16.4011L171.335 14.7074L172.405 12.8355L172.94 13.0138L173.386 13.2812L173.297 13.7269L171.87 16.2228L170.622 18.3621L169.285 20.6798L169.196 20.7689H170.266L170.979 19.6101L172.405 17.1142L173.653 14.9749L173.92 14.8857L174.634 15.2423L174.544 15.7771L171.692 20.7689L170.979 21.9277L155.38 22.0168L155.914 22.8191V22.9974H169.731L169.82 23.0865V24.067L156.628 24.1562L157.162 25.0476L168.75 25.1367V26.1172H157.786L158.41 27.1869L167.681 27.276V28.2566L159.48 28.3457L159.034 28.2566L159.569 29.2371V29.4154H166.522V30.3959L166.433 30.4851H158.945L158.054 28.9697L156.717 26.6521L154.577 22.9082L153.686 21.3929L152.26 18.897L151.101 16.9359L150.655 17.7382L150.744 18.1839L152.081 20.5015L153.329 22.6408L154.577 24.8693L155.38 26.2064L157.519 29.9502L157.162 30.3068L156.806 30.4851L156.449 30.3959L155.558 28.8806L154.221 26.5629L152.973 24.4236L151.814 22.3734L150.833 20.6798L149.942 19.1644L149.586 19.6101L149.407 20.1449L150.655 22.2843L154.666 29.2371L155.112 30.1285L154.31 30.6633H154.132L152.884 28.524L151.457 26.0281L150.12 23.7105L148.872 21.5711L148.605 21.3037L148.248 22.0168L148.338 22.5517L149.14 23.8888L151.814 28.524L152.705 30.1285L152.26 30.5742L151.814 30.7525L151.457 30.3068L150.031 27.8109L148.694 25.4933L147.535 23.5322V23.3539H147.357L147 24.4236L148.427 26.9195L149.407 28.6131L150.299 30.1285L150.21 30.4851L149.496 30.8416L149.051 30.3959L147.803 28.1674L146.911 26.6521L145.842 24.691L145.663 24.2453L146.555 22.73L147.892 20.4123L149.318 17.9165L150.655 15.5988L151.903 13.4595L153.329 10.9636L153.508 10.6962H152.171L151.992 11.1419L151.101 12.7464L149.853 14.8857L148.427 17.3816L145.753 22.0168L145.218 22.8191L144.415 22.3734L144.594 21.8386L145.842 19.6992L149.853 12.7464L150.833 11.0527L151.012 10.7853H149.764L148.338 13.2812L145.663 17.9165L144.415 20.0558L143.97 20.7689L143.078 20.3232L143.613 19.3427L144.772 17.2925L146.02 15.1531L147.357 12.8355L148.427 10.9636L148.605 10.6962H147.268L147.09 11.1419L146.198 12.7464L144.95 14.8857L143.613 17.2033L142.722 18.7187L142.187 18.5404L141.83 18.273L142.009 17.8273L143.257 15.688L144.683 13.1921L145.931 11.0527L146.109 10.7853H144.861L142.187 15.4206L141.474 16.6685L141.028 16.5794L140.582 16.3119L140.761 15.7771L142.187 13.2812L143.435 11.1419L144.237 9.8048L144.326 9.71566L159.837 9.62652L159.302 8.64599L145.396 8.55685V7.66546H158.678L158.143 6.68493V6.50666H146.555L146.466 6.41752V5.52613L157.43 5.43699L156.895 4.45646L147.624 4.36732V3.38679L156.182 3.29765L155.647 2.31712L148.694 2.22798V1.24745H156.271L157.519 3.47593L158.767 5.61526L160.193 8.11116L161.441 10.2505L163.937 14.6183L164.204 14.3509L164.561 13.7269L164.383 13.2812L163.135 11.0527L161.887 8.91341L160.46 6.41752L159.123 4.0999L158.054 2.22798L157.786 1.78229L157.965 1.42573L158.41 1.15831H158.678L159.658 2.94109L160.906 5.08043L162.332 7.57632L163.58 9.71566L164.917 12.0333L165.185 12.479L165.363 12.5681L165.541 12.0333L165.809 11.5876L165.631 11.1419L164.204 8.64599L161.53 4.01076L160.46 2.13884L160.193 1.69315V1.42573L160.817 1.06917H161.084L162.065 2.85196L163.313 4.99129L164.739 7.48718L165.987 9.62652L166.344 10.2505V10.4288L166.611 10.1614L166.968 9.53738L166.878 9.09169L165.631 6.86321L164.383 4.72387L162.6 1.60401L162.689 1.24745L163.224 0.890897H163.402L164.828 3.38679L167.502 8.02202L167.681 8.28944L168.216 7.39805L168.126 6.95235L166.789 4.63474L165.363 2.13884L164.917 1.42573V1.24745L165.631 0.801758ZM154.666 10.6962L153.953 11.855L153.062 13.4595L152.081 15.1531L151.725 15.8663L152.26 16.6685L153.508 18.897L154.399 20.4123L154.666 20.858L156.271 20.9472L160.55 20.858L161.976 18.3621L163.313 16.0445L163.402 15.688L162.065 13.2812L161.174 11.7659L160.55 10.6962H154.666Z" fill="#A3CB38"/>
<path d="M148.694 1.24756H156.271L157.519 3.47603L158.766 5.61537L160.193 8.11126L161.441 10.2506L163.937 14.6184L163.758 15.0641L163.402 15.5989L163.134 15.3315L160.638 10.9637L160.549 10.7854H154.666L153.507 12.8356L152.259 14.975L151.279 16.6686L150.655 17.7383L150.744 18.184L152.081 20.5016L153.329 22.6409L154.577 24.8694L155.379 26.2065L157.519 29.9503L157.162 30.3069L156.805 30.4852L156.449 30.396L155.557 28.8807L154.22 26.563L152.972 24.4237L151.814 22.3735L150.833 20.6799L149.942 19.1645L149.585 19.6102L149.407 20.145L150.655 22.2844L154.666 29.2372L155.112 30.1286L154.31 30.6634H154.131L152.883 28.5241L151.457 26.0282L150.12 23.7106L148.872 21.5713L148.605 21.3038L148.248 22.017L148.337 22.5518L149.139 23.8889L151.814 28.5241L152.705 30.1286L152.259 30.5743L151.814 30.7526L151.457 30.3069L150.031 27.811L148.694 25.4934L147.535 23.5323V23.354H147.357L147 24.4237L148.426 26.9196L149.407 28.6132L150.298 30.1286L150.209 30.4852L149.496 30.8417L149.05 30.396L147.802 28.1675L146.911 26.6522L145.841 24.6911L145.663 24.2454L146.554 22.7301L147.892 20.4124L149.318 17.9166L150.655 15.5989L151.903 13.4596L153.329 10.9637L153.507 10.6963H152.17L151.992 11.142L151.101 12.7465L149.853 14.8858L148.426 17.3817L145.752 22.017L145.217 22.8192L144.415 22.3735L144.593 21.8387L145.841 19.6993L149.853 12.7465L150.833 11.0529L151.011 10.7854H149.763L148.337 13.2813L145.663 17.9166L144.415 20.0559L143.969 20.769L143.078 20.3233L143.613 19.3428L144.772 17.2926L146.02 15.1532L147.357 12.8356L148.426 10.9637L148.605 10.6963H147.268L147.089 11.142L146.198 12.7465L144.95 14.8858L143.613 17.2034L142.721 18.7188L142.187 18.5405L141.83 18.2731L142.008 17.8274L143.256 15.6881L144.683 13.1922L145.93 11.0529L146.109 10.7854H144.861L142.187 15.4207L141.474 16.6686L141.028 16.5795L140.582 16.3121L140.76 15.7772L142.187 13.2813L143.435 11.142L144.237 9.8049L144.326 9.71577L159.836 9.62663L159.301 8.6461L145.396 8.55696V7.66557H158.677L158.143 6.68504V6.50676H146.554L146.465 6.41762V5.52623L157.429 5.43709L156.895 4.45656L147.624 4.36742V3.3869L156.181 3.29776L155.647 2.31723L148.694 2.22809V1.24756Z" fill="#E9F0FD"/>
<path d="M147.981 22.1953H148.159L152.17 29.1482L152.705 30.2178L152.259 30.5744L151.814 30.7527L151.457 30.307L150.031 27.8111L148.694 25.4935L147.535 23.5324V23.3541H147.357L147 24.4238L148.426 26.9197L149.407 28.6133L150.298 30.1287L150.209 30.4852L149.496 30.8418L149.05 30.3961L147.802 28.1676L146.911 26.6523L146.02 25.0478L146.109 24.6912L146.822 23.9781L147.981 22.1953Z" fill="#A3CB38"/>
<path d="M150.477 18.0054L150.922 18.4511L152.081 20.5013L153.329 22.6406L154.577 24.8691L155.379 26.2062L157.519 29.95L157.162 30.3066L156.806 30.4848L156.449 30.3957L155.558 28.8803L154.221 26.5627L152.973 24.4234L151.814 22.3732L150.833 20.6795L149.942 19.1642H149.764L149.853 18.7185L150.477 18.0054Z" fill="#A3CB38"/>
<path d="M158.41 1.1582H158.677L159.658 2.94098L160.906 5.08032L162.332 7.57621L163.58 9.71555L164.917 12.0332L165.274 12.6571L164.739 13.4594L164.561 13.5485L163.134 11.0526L161.886 8.9133L160.46 6.41741L159.123 4.09979L158.053 2.22787L157.786 1.78218L157.964 1.42562L158.41 1.1582Z" fill="#E9F0FD"/>
<path d="M149.228 20.2339L149.585 20.4122L151.011 22.9081L155.023 29.8609L155.112 30.1283L154.309 30.6632H154.131L152.883 28.5238L151.457 26.0279L150.12 23.7103L148.872 21.571L148.694 21.3036L148.783 20.7687L149.228 20.2339Z" fill="#A3CB38"/>
<path d="M160.817 1.06934H161.084L162.065 2.85212L163.313 4.99145L164.739 7.48735L165.987 9.62668L166.343 10.2507L166.254 10.7855L165.898 11.4095L165.541 10.9638L161.53 4.01092L160.46 2.139L160.193 1.69331V1.42589L160.817 1.06934Z" fill="#E9F0FD"/>
<path d="M163.223 0.890625H163.402L164.828 3.38652L167.502 8.02175L167.68 8.28916L167.591 8.73486L167.146 9.44797L166.878 9.09141L165.63 6.86294L164.382 4.7236L162.599 1.60374L162.689 1.24718L163.223 0.890625Z" fill="#E9F0FD"/>
<path d="M165.63 0.801758L165.898 0.890897L166.432 1.87143L167.68 4.0999L168.839 6.06096L168.661 6.59579L168.304 7.13063L167.948 6.68493L167.056 5.08043L165.808 2.94109L164.917 1.42573V1.24745L165.63 0.801758Z" fill="#E9F0FD"/>
</svg>
