<svg width="185" height="34" viewBox="0 0 185 34" fill="none" xmlns="http://www.w3.org/2000/svg">
<path d="M0.473146 2.94763H7.57033L8.04348 5.31336L10.2199 16.7635L10.7877 19.7916L11.0716 18.6561L14.0997 3.79929L14.289 2.94763H21.1023L21.1969 3.79929L21.6701 31.3364V32.5666L21.5755 32.6612H17.0333L16.9386 32.5666L16.4655 16.1011L16.3708 13.5461L13.2481 31.431L13.0588 32.5666L12.9642 32.6612H8.89514L8.61125 31.8095L6.52941 20.454L5.2046 13.2622L4.82609 30.2008L4.73146 32.5666L4.63683 32.6612H0V28.5921L0.378517 6.92206L0.473146 2.94763Z" fill="#9ACA23"/>
<path d="M135.603 2.56909H136.739L138.726 2.75835L140.524 3.2315L141.754 3.8939L142.89 4.93482L143.552 5.78648L144.12 7.01666L144.499 8.34147L144.688 9.66628L144.782 13.6407L144.688 13.7353H138.253L138.158 9.19313L137.969 8.34147L137.591 7.7737L137.023 7.39518L136.55 7.30055H135.793L134.941 7.58444L134.373 8.24684L134.089 9.0985L133.995 9.95017V25.8479L134.184 26.9834L134.562 27.7404L135.13 28.2136L135.698 28.4029H136.644L137.401 28.119L137.874 27.5512L138.064 26.9834L138.158 26.321L138.253 21.7788H144.688L144.782 22.0627V23.4821L144.688 25.8479L144.404 27.6458L143.931 29.0653L143.458 30.0116L142.795 30.8632L142.133 31.5256L140.808 32.3773L139.389 32.8504L137.685 33.1343H134.657L132.954 32.8504L131.534 32.3773L130.304 31.6202L129.169 30.5793L128.317 29.2545L127.844 28.0243L127.465 26.4156L127.276 24.9962V10.7072L127.56 8.81462L128.128 6.92203L128.79 5.69185L129.642 4.65093L130.777 3.79927L131.913 3.2315L133.143 2.85298L134.279 2.66372L135.603 2.56909Z" fill="#032B6B"/>
<path d="M32.8361 2.94763H40.3118L40.5957 4.17781L43.0561 17.3313L44.854 26.9834L45.8003 32.0934V32.6612H39.8387L39.6494 31.9988L38.7978 26.6996L38.7031 26.4157H34.4448L34.1609 28.4029L33.4985 32.4719L33.4039 32.6612H27.253L27.3476 31.6203L30.2811 16.1011L32.6469 3.61004L32.8361 2.94763ZM36.5267 11.0857L35.0126 22.252V22.4412H38.1353L38.0407 21.1164L36.7159 11.4643L36.5267 11.0857Z" fill="#9ACA23"/>
<path d="M108.445 2.94763H121.788V7.3952H115.069V14.2085L114.974 14.7763H120.179V19.3185H115.069V28.119L121.882 28.2136V32.5666L121.788 32.6612H108.445V2.94763Z" fill="#032B6B"/>
<path d="M70.2147 2.94763H83.5574V7.3952H76.8387V14.1139L76.7441 14.7763H81.9487V19.3185H76.8387V28.119L83.652 28.2136V32.5666L83.5574 32.6612H70.2147V2.94763Z" fill="#9ACA23"/>
<path d="M50.9107 2.94763H64.3481V6.35428L64.0642 7.48983L61.9823 13.6407L60.6575 17.4259L59.522 20.8325L58.1025 24.9016L56.967 28.2136H64.3481L64.4427 32.5666L64.3481 32.6612H50.6268L50.5322 32.5666V28.876L51.0053 27.2673L52.9926 21.4003L54.412 17.3313L55.7368 13.3568L57.1562 9.28779L57.8186 7.3952H50.9107V2.94763Z" fill="#9ACA23"/>
<path d="M87.6267 2.94763H103.146V7.77372L98.793 7.86835L98.6983 32.6612H92.1689L92.0743 32.5666V7.77372H87.6267V2.94763Z" fill="#032B6B"/>
<path d="M175.442 0.865662L175.726 0.960291L176.294 2.00121L177.619 4.36694L178.849 6.44878L179.606 7.58433L179.511 8.05748L178.187 10.4232L177.146 12.2212L175.726 14.6815L174.401 16.9526L172.887 19.6022L171.563 21.8733L171.468 22.0626H172.604L174.118 19.413L175.537 16.9526L176.862 14.6815L179.511 10.0447L179.985 9.38229L180.552 9.57154L181.026 9.85543L180.363 11.1802L179.038 13.4513L176.199 18.3721L174.875 20.6432L174.023 22.1572H175.253L175.442 21.6841L176.673 19.5076L177.997 17.2365L181.026 11.9373L181.309 11.5588L181.783 11.6534L182.35 12.0319L181.593 13.546L180.268 15.8171L177.43 20.7378L176.673 22.0626H177.808L180.458 17.4258L181.499 15.6278L182.634 13.6406L183.202 13.8299L183.675 14.1137L183.581 14.5869L182.066 17.2365L180.742 19.5076L179.322 21.968L179.228 22.0626H180.363L181.12 20.8324L182.634 18.1828L183.959 15.9117L184.243 15.8171L185 16.1956L184.905 16.7634L181.877 22.0626L181.12 23.2928L164.56 23.3874L165.128 24.2391V24.4283H179.795L179.89 24.523V25.5639L165.885 25.6585L166.453 26.6048L178.754 26.6994V27.7403H167.115L167.777 28.8759L177.619 28.9705V30.0114L168.913 30.1061L168.44 30.0114L169.008 31.0524V31.2416H176.389V32.2825L176.294 32.3772H168.345L167.399 30.7685L165.979 28.3081L163.708 24.3337L162.762 22.725L161.248 20.0754L160.018 17.9935L159.545 18.8452L159.639 19.3183L161.059 21.7787L162.384 24.0498L163.708 26.4155L164.56 27.835L166.831 31.8094L166.453 32.1879L166.074 32.3772L165.696 32.2825L164.749 30.6738L163.33 28.2135L162.005 25.9424L160.775 23.7659L159.734 21.968L158.788 20.3593L158.409 20.8324L158.22 21.4002L159.545 23.6713L163.803 31.0524L164.276 31.9987L163.424 32.5664H163.235L161.91 30.2953L160.396 27.6457L158.977 25.1854L157.652 22.9143L157.368 22.6304L156.99 23.3874L157.084 23.9552L157.936 25.3746L160.775 30.2953L161.721 31.9987L161.248 32.4718L160.775 32.6611L160.396 32.1879L158.882 29.5383L157.463 27.0779L156.233 24.9961V24.8068H156.043L155.665 25.9424L157.179 28.592L158.22 30.39L159.166 31.9987L159.072 32.3772L158.315 32.7557L157.841 32.2825L156.517 29.9168L155.57 28.3081L154.435 26.2263L154.245 25.7531L155.192 24.1444L156.611 21.6841L158.125 19.0345L159.545 16.5741L160.869 14.303L162.384 11.6534L162.573 11.3695H161.153L160.964 11.8426L160.018 13.546L158.693 15.8171L157.179 18.4667L154.34 23.3874L153.772 24.2391L152.921 23.7659L153.11 23.1981L154.435 20.927L158.693 13.546L159.734 11.748L159.923 11.4641H158.598L157.084 14.1137L154.245 19.0345L152.921 21.3056L152.448 22.0626L151.501 21.5894L152.069 20.5485L153.299 18.3721L154.624 16.101L156.043 13.6406L157.179 11.6534L157.368 11.3695H155.949L155.76 11.8426L154.813 13.546L153.488 15.8171L152.069 18.2774L151.123 19.8861L150.555 19.6969L150.176 19.413L150.366 18.9398L151.69 16.6687L153.205 14.0191L154.529 11.748L154.719 11.4641H153.394L150.555 16.3848L149.798 17.7097L149.325 17.615L148.852 17.3311L149.041 16.7634L150.555 14.1137L151.88 11.8426L152.731 10.4232L152.826 10.3286L169.291 10.2339L168.724 9.19303L153.962 9.0984V8.15211H168.061L167.494 7.11119V6.92193H155.192L155.097 6.8273V5.88101L166.737 5.78638L166.169 4.74546L156.327 4.65083V3.60991L165.412 3.51528L164.844 2.47436L157.463 2.37973V1.33881H165.506L166.831 3.70454L168.156 5.97564L169.67 8.62525L170.995 10.8964L173.644 15.5332L173.928 15.2493L174.307 14.5869L174.118 14.1137L172.793 11.748L171.468 9.47692L169.954 6.8273L168.534 4.36694L167.399 2.37973L167.115 1.90658L167.304 1.52807L167.777 1.24418H168.061L169.102 3.13676L170.427 5.40786L171.941 8.05748L173.266 10.3286L174.685 12.7889L174.969 13.2621L175.159 13.3567L175.348 12.7889L175.632 12.3158L175.442 11.8426L173.928 9.19303L171.089 4.27231L169.954 2.2851L169.67 1.81195V1.52807L170.332 1.14955H170.616L171.657 3.04213L172.982 5.31323L174.496 7.96285L175.821 10.2339L176.199 10.8964V11.0856L176.483 10.8017L176.862 10.1393L176.767 9.66617L175.442 7.30045L174.118 5.02935L172.225 1.71732L172.32 1.33881L172.887 0.960291H173.077L174.591 3.60991L177.43 8.53062L177.619 8.81451L178.187 7.86822L178.092 7.39507L176.673 4.93472L175.159 2.2851L174.685 1.52807V1.33881L175.442 0.865662ZM163.803 11.3695L163.046 12.5997L162.1 14.303L161.059 16.101L160.68 16.858L161.248 17.7097L162.573 20.0754L163.519 21.6841L163.803 22.1572L165.506 22.2519L170.049 22.1572L171.563 19.5076L172.982 17.0472L173.077 16.6687L171.657 14.1137L170.711 12.505L170.049 11.3695H163.803Z" fill="#052D6A"/>
<path d="M157.463 1.33887H165.506L166.831 3.7046L168.156 5.9757L169.67 8.62531L170.995 10.8964L173.644 15.5332L173.455 16.0064L173.077 16.5742L172.793 16.2903L170.143 11.6534L170.049 11.4642H163.803L162.573 13.6407L161.248 15.9118L160.207 17.7097L159.545 18.8453L159.639 19.3184L161.059 21.7788L162.384 24.0499L163.708 26.4156L164.56 27.835L166.831 31.8095L166.453 32.188L166.074 32.3772L165.696 32.2826L164.749 30.6739L163.33 28.2135L162.005 25.9424L160.775 23.766L159.734 21.968L158.788 20.3593L158.409 20.8325L158.22 21.4002L159.545 23.6713L163.803 31.0524L164.276 31.9987L163.425 32.5665H163.235L161.91 30.2954L160.396 27.6458L158.977 25.1854L157.652 22.9143L157.368 22.6304L156.99 23.3875L157.084 23.9552L157.936 25.3747L160.775 30.2954L161.721 31.9987L161.248 32.4719L160.775 32.6611L160.396 32.188L158.882 29.5384L157.463 27.078L156.233 24.9962V24.8069H156.043L155.665 25.9424L157.179 28.5921L158.22 30.39L159.166 31.9987L159.072 32.3772L158.315 32.7557L157.841 32.2826L156.517 29.9169L155.57 28.3082L154.435 26.2263L154.245 25.7532L155.192 24.1445L156.611 21.6841L158.125 19.0345L159.545 16.5742L160.87 14.3031L162.384 11.6534L162.573 11.3696H161.153L160.964 11.8427L160.018 13.546L158.693 15.8171L157.179 18.4667L154.34 23.3875L153.772 24.2391L152.921 23.766L153.11 23.1982L154.435 20.9271L158.693 13.546L159.734 11.7481L159.923 11.4642H158.598L157.084 14.1138L154.245 19.0345L152.921 21.3056L152.448 22.0627L151.501 21.5895L152.069 20.5486L153.299 18.3721L154.624 16.101L156.043 13.6407L157.179 11.6534L157.368 11.3696H155.949L155.76 11.8427L154.813 13.546L153.488 15.8171L152.069 18.2775L151.123 19.8862L150.555 19.6969L150.176 19.413L150.366 18.9399L151.69 16.6688L153.205 14.0192L154.529 11.7481L154.719 11.4642H153.394L150.555 16.3849L149.798 17.7097L149.325 17.6151L148.852 17.3312L149.041 16.7634L150.555 14.1138L151.88 11.8427L152.731 10.4233L152.826 10.3286L169.292 10.234L168.724 9.19309L153.962 9.09846V8.15217H168.061L167.494 7.11125V6.92199H155.192L155.097 6.82736V5.88107L166.737 5.78644L166.169 4.74552L156.327 4.65089V3.60997L165.412 3.51534L164.844 2.47442L157.463 2.37979V1.33887Z" fill="#99C923"/>
<path d="M156.706 23.5769H156.895L161.154 30.958L161.721 32.0935L161.248 32.472L160.775 32.6613L160.396 32.1882L158.882 29.5385L157.463 27.0782L156.233 24.9963V24.8071H156.044L155.665 25.9426L157.179 28.5922L158.22 30.3902L159.166 31.9989L159.072 32.3774L158.315 32.7559L157.842 32.2828L156.517 29.9171L155.57 28.3084L154.624 26.605L154.719 26.2265L155.476 25.4695L156.706 23.5769Z" fill="#062E6A"/>
<path d="M159.356 19.1292L159.829 19.6024L161.059 21.7788L162.384 24.0499L163.709 26.4157L164.56 27.8351L166.831 31.8095L166.453 32.188L166.074 32.3773L165.696 32.2827L164.749 30.674L163.33 28.2136L162.005 25.9425L160.775 23.766L159.734 21.9681L158.788 20.3594H158.599L158.693 19.8862L159.356 19.1292Z" fill="#052D6A"/>
<path d="M167.777 1.24432H168.061L169.102 3.13691L170.427 5.40801L171.941 8.05762L173.266 10.3287L174.685 12.7891L175.064 13.4515L174.496 14.3031L174.307 14.3978L172.793 11.7482L171.468 9.47706L169.954 6.82744L168.534 4.36709L167.399 2.37987L167.115 1.90673L167.304 1.52821L167.777 1.24432Z" fill="#9ACA23"/>
<path d="M158.031 21.4948L158.409 21.6841L159.923 24.3337L164.182 31.7148L164.276 31.9987L163.425 32.5664H163.235L161.911 30.2953L160.397 27.6457L158.977 25.1853L157.652 22.9142L157.463 22.6304L157.558 22.0626L158.031 21.4948Z" fill="#052D6A"/>
<path d="M170.333 1.14966H170.616L171.657 3.04224L172.982 5.31334L174.496 7.96296L175.821 10.2341L176.2 10.8965L176.105 11.4642L175.726 12.1266L175.348 11.6535L171.09 4.27242L169.954 2.28521L169.67 1.81206V1.52817L170.333 1.14966Z" fill="#9ACA23"/>
<path d="M172.888 0.960388H173.077L174.591 3.61L177.43 8.53072L177.619 8.81461L177.524 9.28775L177.051 10.0448L176.767 9.66627L175.443 7.30054L174.118 5.02944L172.225 1.71742L172.32 1.3389L172.888 0.960388Z" fill="#9ACA23"/>
<path d="M175.443 0.865662L175.726 0.960291L176.294 2.00121L177.619 4.36694L178.849 6.44878L178.66 7.01656L178.281 7.58433L177.903 7.11119L176.957 5.40786L175.632 3.13676L174.685 1.52807V1.33881L175.443 0.865662Z" fill="#9ACA23"/>
</svg>
