<svg width="352" height="238" viewBox="0 0 352 238" fill="none" xmlns="http://www.w3.org/2000/svg">
<path d="M155.882 0.455322H157.567L160.457 1.41852L161.661 2.86331L162.383 6.23449L163.106 10.5689L163.346 11.5321H169.848L175.386 13.2176L178.276 14.4216L180.443 15.3848L180.925 15.8664V17.7928L179.961 20.9232L178.517 23.572L177.794 24.2944L176.349 23.8128L173.46 22.6088L171.774 21.8864L172.256 32.9631L172.978 40.1871L173.219 40.6687L177.313 40.9095H180.202L184.296 42.1135L188.63 44.0399L189.593 45.7254L189.834 46.9294L190.075 51.9862L192.242 51.7454H225.472L225.713 52.4678L225.232 58.9694L221.86 59.2102L221.62 59.6918L221.138 63.3037H243.773L245.459 63.5445L246.663 65.4709V68.1197L245.94 70.0461L244.977 74.1397L242.087 82.8084L239.439 88.8284L236.549 94.6075L233.419 99.9051L230.77 103.758L227.399 108.092L223.787 111.945L221.138 114.112L217.044 116.761L211.988 119.651L207.653 121.577L201.152 123.744L200.429 124.948L198.021 127.356L194.65 131.209L191.038 133.858L187.185 135.543L184.537 137.229L184.296 138.914L185.259 139.155L184.777 140.118L182.61 141.322L181.406 141.804L181.647 143.73L182.61 146.379L184.777 152.64L186.704 156.493L188.871 159.623L192.242 163.235L194.409 165.402L197.058 167.569L200.911 170.459L202.597 172.385L202.837 172.867L205.968 173.349L211.506 173.589L216.322 174.312L216.563 174.553V177.201L216.322 178.887H220.175L222.101 179.128V185.148L221.138 185.87L220.897 187.074L220.416 200.077L223.064 199.596H227.399L229.807 200.318L231.733 202.004L233.419 204.412L234.141 206.097V206.82H234.623L235.345 209.228V212.599L234.382 216.933L233.419 219.823L232.696 221.749H238.957L244.014 222.472L247.867 223.676L251.479 225.361L252.923 226.324L254.85 227.769L255.091 229.214V232.104H258.943L260.629 231.622H261.592L261.833 234.511H262.315V233.789L265.686 232.826L267.131 232.104L268.575 231.863H273.632L274.354 231.622L275.318 231.863L275.558 233.067V235.234L267.371 235.475H275.799L275.558 235.956L266.89 236.197L288.562 236.438L296.026 236.197L300.12 236.679H308.548L308.789 236.197L307.825 235.956L303.732 235.715L303.491 235.234L303.973 234.993L309.511 234.752V235.475H309.993V236.438L321.792 236.197V235.475H334.313V234.993L335.277 235.234L335.999 236.197L340.092 236.438L341.296 236.679L341.537 237.642L341.296 237.883H0.566528V236.679L20.312 236.438L20.7936 236.197H16.4592V235.715L17.6632 235.234L13.5696 234.03L11.1617 233.067L7.54969 232.104L7.30889 231.14L8.27208 228.973H11.4025L12.6065 229.455L15.2552 229.696L18.1448 231.863L21.516 235.475L21.9976 236.438L70.1573 236.197L90.3844 235.956L87.0132 234.993V235.475H78.5853V234.271L80.0301 233.548L82.6788 233.307L84.1236 232.585L84.3644 227.769L84.6052 227.288L87.9764 226.565L90.1436 226.324L96.8859 226.084V218.86L98.0899 217.656L100.257 216.452L101.702 215.97H104.11L105.555 216.452H107.24L106.999 215.007L106.036 213.08L103.628 205.134L102.184 198.151V194.057L102.906 191.168L103.388 189.964H103.869L104.11 189.001L105.795 187.074L107.481 186.111L109.407 185.389H113.501L117.113 186.833L119.762 188.76L123.615 192.613L126.263 196.225L128.19 199.355L131.32 204.652L132.283 205.375L132.043 197.188V189.241L132.524 186.111L132.765 185.629H130.839L130.598 185.389L130.357 179.128H135.655V174.312L136.859 173.83L141.193 173.349L146.731 172.867L149.621 171.904L152.51 169.977L156.363 167.088L161.42 162.754L163.587 160.105L164.31 159.382L165.273 157.697L166.236 156.252L168.644 149.028L169.848 143.971V141.563L167.681 140.841L166.958 140.359L167.199 138.674L168.644 137.47L167.922 136.747L164.55 135.302L161.179 133.376L158.771 131.691L156.845 130.246L155.159 128.56L153.233 126.875L152.029 125.43L150.825 123.503L148.898 122.781L145.527 122.059L142.878 121.095L138.785 119.169L135.173 116.761L131.802 114.112L128.19 110.741L124.096 106.647L121.688 103.035L119.039 99.4235L116.391 95.3299L114.223 91.4772L111.334 84.9756L108.926 78.2332L106.518 70.5277L106.036 68.3605V65.2301L106.759 64.0261L108.926 63.3037L117.354 63.0629H126.986L130.839 63.3037L130.598 58.7286H126.745V52.9494L126.986 51.9862L127.467 51.7454H131.079V45.9662L132.524 44.0399L134.451 42.3543L136.377 41.3911L139.989 40.9095H143.842L147.935 41.3911L148.176 41.1503V25.0168L144.805 28.388L142.397 30.3143L141.434 29.8327L139.266 28.1472L137.822 26.4616L136.859 24.776L136.377 21.8864L138.303 20.2008L142.156 17.552L145.768 14.9032L149.38 12.736L153.714 11.7729L156.604 11.5321L155.882 10.3281L155.159 5.03049V4.0673L154.437 3.8265L153.714 2.86331L153.955 1.65931L155.882 0.455322Z" fill="#FBA648"/>
<path d="M130.357 179.128H222.101V185.148L221.138 185.87L220.897 187.074L220.416 200.077L223.064 199.596H227.399L229.807 200.318L231.733 202.004L233.419 204.412L234.141 206.097V206.82H234.623L235.345 209.227V212.599L234.382 216.933L233.419 219.823L232.696 221.749H238.957L244.014 222.471L247.867 223.675L251.479 225.361L252.923 226.324L254.85 227.769L255.091 229.214V232.103H258.943L260.629 231.622H261.592L261.833 234.511H262.315V233.789L265.686 232.826L267.131 232.103L268.575 231.863H273.632L274.354 231.622L275.318 231.863L275.558 233.067V235.234L267.371 235.475H275.799L275.558 235.956L266.89 236.197L288.562 236.438L296.026 236.197L300.12 236.679H308.548L308.789 236.197L307.825 235.956L303.732 235.715L303.491 235.234L303.973 234.993L309.511 234.752V235.475H309.993V236.438L321.792 236.197V235.475H334.313V234.993L335.277 235.234L335.999 236.197L340.092 236.438L341.296 236.679L341.537 237.642L341.296 237.883H0.566528V236.679L20.312 236.438L20.7936 236.197H16.4592V235.715L17.6632 235.234L13.5696 234.03L11.1617 233.067L7.54969 232.103L7.30889 231.14L8.27208 228.973H11.4025L12.6065 229.455L15.2552 229.695L18.1448 231.863L21.516 235.475L21.9976 236.438L70.1573 236.197L90.3844 235.956L87.0132 234.993V235.475H78.5853V234.271L80.0301 233.548L82.6788 233.307L84.1236 232.585L84.3644 227.769L84.6052 227.287L87.9764 226.565L90.1436 226.324L96.8859 226.083V218.859L98.0899 217.655L100.257 216.451L101.702 215.97H104.11L105.555 216.451H107.24L106.999 215.007L106.036 213.08L103.628 205.134L102.184 198.151V194.057L102.906 191.168L103.388 189.964H103.869L104.11 189L105.795 187.074L107.481 186.111L109.407 185.388H113.501L117.113 186.833L119.762 188.76L123.615 192.612L126.263 196.224L128.19 199.355L131.32 204.652L132.283 205.375L132.043 197.188V189.241L132.524 186.111L132.765 185.629H130.839L130.598 185.388L130.357 179.128Z" fill="#FBA648"/>
<path d="M109.407 185.389H113.501L117.113 186.833L119.762 188.76L123.615 192.613L126.263 196.225L128.19 199.355L131.32 204.653L132.043 205.375V218.86L131.32 222.472L129.635 229.696L129.394 230.177H202.597L224.028 229.936L223.305 229.214L220.656 221.99L220.416 219.823L220.175 207.301L220.416 200.077L223.064 199.596H227.399L229.807 200.318L231.733 202.004L233.419 204.412L234.141 206.097V206.82H234.623L235.345 209.228V212.599L234.382 216.933L233.419 219.823L232.696 221.749H238.957L244.014 222.472L247.867 223.676L251.479 225.361L252.923 226.324L254.85 227.769L255.091 229.214V232.104H258.943L260.629 231.622H261.592L261.833 234.512H262.315V233.789L265.686 232.826L267.131 232.104L268.575 231.863H273.632L274.354 231.622L275.318 231.863L275.558 233.067V235.234L267.371 235.475H275.799L275.558 235.956L266.89 236.197L288.562 236.438L296.026 236.197L300.12 236.679H308.548L308.789 236.197L307.825 235.956L303.732 235.716L303.491 235.234L303.973 234.993L309.511 234.752V235.475H309.993V236.438L321.792 236.197V235.475H334.313V234.993L335.277 235.234L335.999 236.197L340.092 236.438L341.296 236.679L341.537 237.642L341.296 237.883H0.566528V236.679L20.312 236.438L20.7936 236.197H16.4592V235.716L17.6632 235.234L13.5696 234.03L11.1617 233.067L7.54969 232.104L7.30889 231.14L8.27208 228.973H11.4025L12.6065 229.455L15.2552 229.696L18.1448 231.863L21.516 235.475L21.9976 236.438L70.1573 236.197L90.3844 235.956L87.0132 234.993V235.475H78.5853V234.271L80.0301 233.548L82.6788 233.308L84.1236 232.585L84.3644 227.769L84.6052 227.288L87.9764 226.565L90.1436 226.324L96.8859 226.084V218.86L98.0899 217.656L100.257 216.452L101.702 215.97H104.11L105.555 216.452H107.24L106.999 215.007L106.036 213.081L103.628 205.134L102.184 198.151V194.057L102.906 191.168L103.388 189.964H103.869L104.11 189.001L105.795 187.074L107.481 186.111L109.407 185.389Z" fill="#233246"/>
<path d="M289.525 119.651L291.21 119.891L292.174 121.818V127.115L293.378 133.135L294.822 137.951L295.785 139.396L297.23 140.359L300.842 141.563L302.046 141.804V138.915L303.732 136.988L306.381 135.784L306.621 135.303L307.103 132.413L308.548 130.487L309.029 130.246H310.474L311.437 131.209L311.678 132.895H313.605L314.809 133.858V136.988L316.494 140.359L317.457 142.045V142.767L321.31 143.73L325.163 145.657L341.537 154.326L343.945 155.289V155.048L345.872 155.289L348.28 156.734L351.169 158.901L350.688 159.864L349.002 161.55L348.28 162.031L346.835 162.513L346.594 162.994L345.149 162.754L341.056 161.068L334.072 158.178L325.163 154.807L318.421 152.64H317.698L317.457 153.362V158.419L318.902 163.235L320.829 168.051L324.681 177.442L326.367 183.703L328.293 191.409L329.256 195.743V197.188L328.293 198.392L325.885 199.114L324.922 199.596V201.763L326.126 212.358L328.293 227.769L328.775 230.9L331.905 232.585L333.109 233.548L334.554 234.271L334.795 234.993H334.313V235.475H321.792V236.197L321.069 236.438H309.993V235.475H309.511V234.752L308.789 234.993L303.973 235.234L304.213 235.475L307.825 235.716L309.029 236.197L308.789 236.92H300.12L296.026 236.438L295.545 236.197L295.304 234.512H301.324L298.916 234.271L299.397 233.789H305.658L306.14 234.03V234.512L309.27 234.271L309.029 233.548H298.675L298.916 232.826L299.397 232.585L301.805 232.344L301.565 227.528L300.842 220.064L299.397 207.542L298.675 200.559L293.378 199.837V190.927L294.341 182.981L296.026 174.553L296.989 170.218L297.953 167.81L299.397 163.235L299.879 160.586L299.638 155.77L298.916 151.436L294.341 149.269L292.655 148.065L291.692 147.102L289.766 145.657L288.802 144.694L288.08 142.286L286.394 129.523L285.431 120.373L285.913 120.132L289.525 119.651Z" fill="#BFDC64"/>
<path d="M76.6588 136.988H78.1036L80.2708 137.951L81.234 139.396L81.9564 142.767L82.1972 143.971V145.657L80.9932 146.138L78.5852 146.379L80.7524 146.861L84.3644 147.102L86.2908 147.824L87.7356 149.991L89.1804 154.326L89.9028 156.734V158.419L90.6251 160.586L91.3475 162.994L92.7923 164.198L98.8123 166.847L100.016 167.569L105.073 168.773L110.611 170.7L110.371 171.663L108.444 175.275H106.518L98.5715 173.349L91.3475 171.181L88.9396 170.218L89.9028 174.553L92.0699 183.944L93.2739 191.89V194.78L92.7923 199.114L92.0699 201.281L90.1436 203.208L87.9764 204.412L87.7356 204.893L86.5316 215.488L84.6052 227.769L84.3644 232.585L83.8828 233.067L82.6788 233.548L80.03 233.789L78.5852 234.271V235.475H87.0132V234.993L89.662 235.475V235.715H78.1036L77.8628 229.214L77.622 216.692L77.3812 209.468V204.652L77.622 204.412H74.01L73.2877 207.542L70.3981 218.86L67.7493 228.973L67.0269 233.307L66.7861 235.715H54.987L54.5054 235.475L54.7462 234.271L56.191 233.067L60.2845 232.344L60.5253 229.455L61.9701 220.786L63.8965 203.448L64.1373 200.8L60.0437 200.077L59.8029 199.836V195.261L60.2845 190.686L61.0069 188.037L62.2109 184.666L63.4149 182.258L63.1741 181.054L61.4885 179.369L59.5621 176.238L57.395 172.385L56.4318 169.737L56.191 167.569L57.1542 163.957L59.0805 160.345L59.5621 159.623L60.0437 156.734L62.2109 153.603L64.8597 150.714L66.7861 149.269L69.1941 147.824L71.6021 147.102L74.01 146.861L73.2877 146.379L72.8061 145.175V138.674H73.2877L73.5285 137.951L75.214 137.229L76.6588 136.988Z" fill="#D9ED8C"/>
<path d="M238.235 24.7759L239.92 25.0167L244.977 26.7023L248.348 28.1471L247.626 31.2774V33.9262L248.589 35.1302L251.238 37.2974L253.646 39.2238L254.368 39.7054H255.813L259.184 37.779H260.147L261.833 39.7054L263.759 43.0766L265.445 46.6885L265.204 47.8925L261.351 50.0597L260.147 50.7821V53.1901L261.111 58.2469L261.592 60.4141L263.519 61.1365L265.686 62.0996L266.649 63.5444L266.89 65.7116L265.445 68.3604L264.723 69.5644V71.25L265.204 72.2132H261.111L258.221 71.4908L256.535 72.9356L254.368 75.5844L252.201 78.7147L251.96 80.1595L253.164 83.2899L253.887 84.7347L248.107 88.1059L246.181 89.5507L244.736 89.3099L243.051 87.6243L241.847 86.6611L241.365 85.9387L241.124 84.4939L242.81 79.9187L244.977 73.4172L245.94 69.3236L246.422 68.1196V65.4708L245.459 63.7852L243.773 63.5444L221.138 63.3036L221.379 59.6917L221.86 58.9693H225.232L225.472 51.9861L201.393 51.7453L201.152 51.5045L201.393 48.1333L202.356 44.2806L208.616 44.0398L210.543 43.3174L212.951 39.9462L215.118 37.0566L215.359 36.0934L214.155 32.963L213.914 31.2774L216.081 29.5918L220.416 27.1839L221.379 26.7023L222.583 26.9431L225.232 29.5918L226.436 31.2774L230.048 31.0366L236.308 30.555L237.031 28.3879L238.235 24.7759Z" fill="#002F6C"/>
<path d="M109.407 185.389H113.501L117.113 186.833L119.762 188.76L123.615 192.613L126.263 196.225L128.19 199.355L131.32 204.653L132.043 205.375V218.86L131.32 222.472L129.635 229.696L129.394 230.177L126.745 230.418H116.631L116.872 231.622L116.631 236.679L114.705 237.16L117.354 237.401V237.642L108.444 237.883H0.566528V236.679L20.312 236.438L20.7936 236.197H16.4592V235.716L17.6632 235.234L13.5696 234.03L11.1617 233.067L7.54969 232.104L7.30889 231.14L8.27208 228.973H11.4025L12.6065 229.455L15.2552 229.696L18.1448 231.863L21.516 235.475L21.9976 236.438L70.1573 236.197L90.3844 235.956L87.0132 234.993V235.475H78.5853V234.271L80.03 233.548L82.6788 233.308L84.1236 232.585L84.3644 227.769L84.6052 227.288L87.9764 226.565L90.1436 226.324L96.8859 226.084V218.86L98.0899 217.656L100.257 216.452L101.702 215.97H104.11L105.555 216.452H107.24L106.999 215.007L106.036 213.081L103.628 205.134L102.184 198.151V194.057L102.906 191.168L103.388 189.964H103.869L104.11 189.001L105.795 187.074L107.481 186.111L109.407 185.389Z" fill="#10652F"/>
<path d="M6.34568 107.129L7.30887 107.37L8.27207 110.019L9.23526 112.427L9.95766 112.668L8.99446 113.631L9.47606 116.761L11.884 124.948L13.8104 130.487L14.5328 131.691L15.9776 132.172L20.312 136.507L22.9608 137.711L26.8136 138.433H30.6663L33.7967 137.229L35.0007 136.507L35.4823 135.784H35.9639L36.2047 135.062H36.6863L37.1679 133.858L39.0943 132.413L40.5391 131.45L43.6695 122.781L45.8366 115.798L46.7998 111.223L48.0038 107.611L48.967 107.37L53.783 107.852L54.0238 108.333L51.6158 117.965L49.4486 127.838L47.763 134.58L46.559 138.192H46.0774L45.8366 139.155L44.3918 141.804L43.4287 143.249L41.9839 146.379L41.7431 147.583V176.238L41.0207 177.683L38.6127 178.646L28.9807 179.85H23.6832L19.108 179.128L15.2552 178.165L14.292 177.202V173.108L15.496 160.346L15.7368 152.399V147.583L13.088 143.971V143.49L12.3656 143.249L11.6432 142.045L10.4393 140.841V140.359L9.47606 139.878L8.99446 138.674H8.51287L7.79047 136.988L6.58648 132.895L5.62328 129.283L2.4929 114.353L1.77051 110.019V108.333L2.7337 107.852L5.38249 107.611L6.34568 107.129Z" fill="#BFDC64"/>
<path d="M274.836 174.312L276.04 174.553L277.726 174.793V180.091L277.485 184.185V189.241L277.244 202.244L276.763 217.896L276.04 229.455L275.559 232.344L275.318 231.863L273.632 232.103H268.575L266.408 232.585L265.204 233.307L262.315 233.789V234.511H261.833L261.592 234.03V231.622L258.943 232.344H255.091L254.85 232.103V227.769L253.887 227.287L253.164 225.361L252.683 214.766L252.201 187.315V175.034L252.442 174.553H268.335L274.836 174.312Z" fill="#002F6C"/>
<path d="M269.298 134.821H274.114L277.244 135.062L278.93 138.433L281.338 145.175L283.264 152.399L283.986 156.733V160.586L283.023 162.753L281.338 164.198L280.134 164.68H277.726V174.312L274.836 174.553L268.335 174.793H257.499L251.96 174.553L251.719 174.312V164.439L251.96 154.325L252.201 150.473L248.348 152.399L242.81 155.289L242.088 155.529L239.92 154.085L237.031 150.954L234.864 148.065L232.456 144.934L229.325 140.841L229.807 139.637L232.456 137.47L234.382 135.784L235.345 135.302L236.549 135.543L238.235 137.229L240.402 139.878L243.051 142.767L243.773 143.971L245.459 142.526L248.589 139.878L251.96 136.988L254.368 135.302L254.85 135.062H259.425L260.388 137.71L262.074 139.155L263.037 139.396H264.963L267.131 138.914L268.335 137.71L269.057 136.025L269.298 134.821Z" fill="#305F9D"/>
<path d="M144.564 195.502H202.596L207.894 195.984L208.135 197.188L206.69 197.429L208.376 197.91L209.82 200.318L210.302 203.689V211.636L208.857 212.358L208.616 214.284L204.764 214.766H200.67L196.336 214.284L188.871 214.044H144.805L144.323 213.803L144.564 212.599L144.323 211.876H143.119L142.878 211.636V198.392L143.119 197.429L144.564 197.188V195.502Z" fill="#FEC686"/>
<path d="M14.7737 177.683L19.108 178.887L23.6832 179.609H28.9808L38.6127 178.406H39.5759V212.117L39.3351 220.064L38.8535 225.361L37.6495 230.177L34.7599 229.696L29.944 228.973L29.4624 228.732L28.4992 222.712L27.536 212.358L26.8136 201.041L26.5728 199.355L25.128 203.93L21.516 216.692L18.6264 225.361L17.4224 227.528L15.7368 228.973L14.0513 229.214L8.27209 228.251L8.75369 223.916L12.3657 204.171L13.8105 194.057L15.4961 178.406L14.7737 178.165V177.683Z" fill="#002F6C"/>
<path d="M130.839 60.4141H131.079L131.32 65.23L132.042 69.3236L134.21 80.6411L135.414 85.6979L136.618 90.9955L137.822 94.6074L139.266 99.905V100.387H139.748L141.193 104.721L142.156 107.851L143.601 111.223L144.564 112.427L144.805 113.631L143.601 113.39L142.638 112.667H141.915L142.397 113.631L143.119 113.871L142.878 114.835L142.638 115.557L141.434 116.039L141.915 117.483L145.046 119.169L145.768 121.336L146.972 121.818L149.38 122.299L149.621 122.781L146.25 122.299L143.842 121.577L140.23 119.891L136.858 117.965L133.006 115.075L129.635 112.186L124.096 106.647L121.688 103.035L119.039 99.4234L116.391 95.3298L114.223 91.4771L111.334 84.9755L108.926 78.2332L106.518 70.5276L106.036 68.3604V65.23L106.759 64.026L108.926 63.3036L117.354 63.0628H126.986L130.839 63.3036V60.4141Z" fill="#F7A05E"/>
<path d="M221.379 63.3037H243.773L245.459 63.5445L246.663 65.4709V68.1197L245.94 70.0461L244.977 74.1396L242.087 82.8084L239.439 88.8284L236.549 94.6075L233.419 99.9051L230.77 103.758L227.399 108.092L223.787 111.945L221.138 114.112L217.044 116.761L216.081 117.002V116.52L212.951 117.243L212.228 117.002L213.432 116.52V116.039L211.265 116.761L210.543 116.52L211.265 116.279V115.798H209.58L209.82 115.316L209.098 114.835L207.653 114.112L207.894 112.667L210.061 108.574L212.71 101.831L214.636 96.0523L215.359 93.6443L216.322 90.2731L218.008 83.0492L218.971 78.2332L220.175 71.2501V68.3605L220.656 64.2669L220.897 63.5445L221.379 63.3037Z" fill="#F79F5D"/>
<path d="M155.882 0.455322H157.567L160.457 1.41852L161.661 2.86331L162.383 6.23449L163.106 10.5689L163.346 11.5321H169.848L175.386 13.2176L178.276 14.4216L180.443 15.3848L180.925 15.8664V17.7928L179.961 20.9232L178.517 23.572L177.794 24.2944L176.35 23.8128L173.46 22.6088L171.774 21.8864L172.256 32.9631L172.497 35.6119V40.9095L171.293 42.1135L167.681 43.3175L161.902 44.5215L159.253 44.7622H155.4L149.621 44.0399L148.417 43.5583L148.176 43.3175V25.0168L144.805 28.388L142.397 30.3143L141.434 29.8327L139.267 28.1472L137.822 26.4616L136.859 24.776L136.377 21.8864L138.303 20.2008L142.156 17.552L145.768 14.9032L149.38 12.736L153.714 11.7729L156.604 11.5321L155.882 10.3281L155.159 5.03049V4.0673L154.437 3.8265L153.714 2.86331L153.955 1.65931L155.882 0.455322Z" fill="#002F6C"/>
<path d="M172.497 38.0198H172.737L172.978 40.187L173.219 40.6686L177.313 40.9094H180.202L184.296 42.1134L188.63 44.0397L189.593 45.7253L189.834 46.9293L190.075 51.9861L190.557 52.2269L183.333 54.8757L178.276 56.8021L177.313 57.2837L174.664 59.4508L171.533 61.3772L169.125 62.822L166.717 63.7852H164.55L160.698 62.5812L151.066 59.9324L144.564 57.7653L134.932 53.9125L131.561 52.2269L129.635 51.9861V51.7453H131.079V45.9661L132.524 44.0397L134.45 42.3541L136.377 41.391L139.989 40.9094H143.842L148.176 41.391L148.417 43.3173L149.621 43.7989L155.4 44.5213H160.457L166.477 43.3173L170.57 42.1134L172.015 41.391L172.256 40.9094L172.497 38.0198Z" fill="#A3CB38"/>
<path d="M119.039 99.4236L120.003 100.387L122.892 104.48L124.819 107.129L130.357 112.668L133.006 114.835L136.136 117.243L139.748 119.41L143.601 121.095L145.527 121.818L149.862 122.781L151.066 123.503L152.751 126.152L154.678 128.079L154.437 129.042L152.029 131.45L150.825 132.413L150.102 133.858L149.862 134.821V136.747L150.102 137.711L149.862 138.433L145.768 140.359L145.046 140.6H143.119L141.434 139.155L140.711 137.229L138.303 136.507L135.414 136.266L134.21 135.784L133.006 136.025L130.598 139.396L129.634 139.637L127.708 138.915L123.855 136.988L123.374 136.266L123.855 134.099L125.059 132.172L124.819 131.209L123.615 130.005L120.243 126.875L119.039 125.671L117.835 126.152L116.15 126.875H114.946L113.983 124.707L113.26 122.781L112.297 120.132L112.779 119.169L116.15 117.483H116.631L117.113 111.464V109.296L113.742 107.129L113.501 106.166L115.668 101.35L116.872 100.387L119.039 99.4236Z" fill="#002F6C"/>
<path d="M231.733 39.4646H236.068L239.439 40.187L243.292 42.1134L245.699 43.799L247.626 45.4846L249.793 48.3741L251.238 51.5045L251.96 54.1533L252.442 57.7653V60.4141L251.719 63.3036L249.793 66.9156L247.867 69.5644L246.181 71.4908H245.699L245.94 69.3236L246.422 68.1196V65.4708L245.459 63.7852L243.773 63.5444L221.138 63.3036L221.379 59.6917L221.86 58.9693H225.232L225.472 51.9861L216.563 51.7453V49.8189L218.248 47.4109L221.62 44.0398L224.75 41.8726L227.88 40.4278L231.733 39.4646Z" fill="#E9F0FD"/>
<path d="M223.064 199.596H227.399L229.807 200.318L231.733 202.004L233.419 204.412L234.141 206.097V206.82H234.623L235.345 209.228V212.599L234.382 216.933L233.419 219.823L232.696 221.749H238.957L244.014 222.472L247.867 223.676L251.479 225.361L252.923 226.324L254.85 227.769L255.091 229.214V232.104H258.943L260.629 231.622H261.592L261.833 234.752L261.592 234.993L248.348 235.234L246.903 236.197L246.663 236.438H235.827V230.418H231.733L227.64 229.936H225.232L224.028 230.177V229.696L223.305 229.214L220.656 221.99L220.416 219.823L220.175 207.301L220.416 200.077L223.064 199.596Z" fill="#70B464"/>
<path d="M76.6588 136.988H78.1035L80.2707 137.951L81.2339 139.396L81.9563 142.767L82.1971 143.971V145.657L80.9931 146.138L78.5851 146.379L80.7523 146.861L84.3643 147.102L86.2907 147.824L87.7355 149.991L89.1803 154.326L89.9027 156.734L89.6619 157.697V157.215L87.9763 157.697L87.4947 160.105L87.2539 160.827L87.0131 166.365H74.4916L69.9164 165.643L69.4348 168.051L67.99 171.663L67.7492 172.145H67.2676L66.786 173.589L65.582 175.275H65.1004L63.6556 171.663L62.9332 169.496L63.174 167.569L64.8596 163.717L66.0636 161.549L63.6556 160.586L60.5253 159.142H59.8029V157.456L60.7661 155.53L63.4148 152.158L65.1004 150.473L68.2308 148.306L70.6388 147.342L74.01 146.861L73.2876 146.379L72.806 145.175V138.674H73.2876L73.5284 137.951L75.214 137.229L76.6588 136.988Z" fill="#A3CB38"/>
<path d="M130.357 179.128H222.101V185.148L220.897 185.629H130.839L130.598 185.388L130.357 179.128Z" fill="#253346"/>
<path d="M130.839 69.5645H132.043L134.21 80.6412L135.414 85.698L136.618 90.9955L137.822 94.6075L139.267 99.9051V100.387H139.748L141.193 104.721L142.156 107.851L143.601 111.223L144.564 112.427L144.805 113.631L143.601 113.39L139.507 110.741L136.377 108.574L133.969 106.407L132.043 104.721L129.394 101.831L127.227 98.7011L124.337 94.6075L122.17 90.9955L119.762 86.6611L117.835 82.5676L114.705 74.3804L114.224 71.9724V70.7684L116.15 70.5276L123.133 70.2868L129.875 69.8053L130.839 69.5645Z" fill="#E9F0FD"/>
<path d="M220.656 70.0461L226.435 70.2869L228.603 70.5277L237.994 70.7685L238.235 71.9725L236.308 77.7517L233.9 83.5309L231.011 89.5508L228.603 93.8852L224.991 99.1828L222.342 102.554L219.452 105.925L217.044 108.092L213.192 110.982L209.098 113.39L207.653 113.631L208.135 112.186L210.061 108.574L212.71 101.832L214.636 96.0524L215.359 93.6444L216.322 90.2732L218.008 83.0493L218.971 78.2333L220.175 71.2501L220.656 70.0461Z" fill="#002F6C"/>
<path d="M175.386 79.9187L176.35 80.1595L176.831 81.3635V82.0859L177.554 82.3267L178.517 84.0123L179.239 84.4939L179.721 85.9387L181.406 87.1427L185.259 87.8651L186.463 88.1059L186.704 89.069L189.353 88.8282L190.075 88.5874H192.483L192.242 89.5506L190.075 91.9586L188.149 93.6442L187.908 94.1258H187.426L186.945 95.089L185.741 96.7746L185.981 97.9786V104.239L186.463 106.166L186.222 107.851L185.5 108.092L176.59 104.962H174.905L171.774 106.888L171.293 107.37L168.885 107.611L167.681 107.129L166.718 106.888L166.477 106.647L166.718 104.48L167.199 99.6642L165.514 96.293L164.069 94.8482V94.3666L163.346 94.1258V93.6442L162.383 93.1626L159.975 90.7546V89.7914L160.457 89.5506L164.069 89.069L170.089 87.6243L171.052 87.3835L171.774 85.9387L172.256 84.2531L173.701 82.3267H174.182L174.664 80.8819L175.386 79.9187Z" fill="#FEC686"/>
<path d="M146.731 172.867H148.658L148.898 173.108L152.029 173.349L189.593 173.589H205.727V173.83L202.837 174.071L204.282 174.793L205.968 175.275L208.857 175.757L211.747 176.72L212.469 177.683L211.506 178.646L209.098 179.369H136.377L135.655 179.128V174.312L136.859 173.83L141.193 173.349L146.731 172.867Z" fill="#F88F25"/>
<path d="M323.237 200.077H324.441L324.922 201.763L326.126 212.358L328.293 227.769L328.775 230.9L331.905 232.585L333.109 233.548L334.554 234.271L334.795 234.993H334.313V235.475H321.792L321.551 236.197V233.548L320.106 227.047L316.253 211.636L314.568 205.616L313.364 202.004L321.551 200.559L323.237 200.077Z" fill="#FEAE86"/>
<path d="M299.157 201.763L304.454 202.245H310.233V209.468L309.752 229.455V235.475L309.511 234.752L308.789 234.993L303.973 235.234L304.214 235.475L307.825 235.716L309.029 236.197L308.789 236.92H300.12L296.026 236.438L295.545 236.197L295.304 234.512H301.324L298.916 234.271L299.398 233.789H305.658L306.14 234.03V234.512L309.27 234.271L309.029 233.548H298.675L298.916 232.826L299.398 232.585L301.806 232.344L301.565 227.528L300.842 220.064L299.398 207.542L298.916 202.245L299.157 201.763Z" fill="#FEAE86"/>
<path d="M310.715 202.004H313.364L314.327 204.171L316.013 209.709L319.865 225.12L321.551 232.344L321.792 234.993L321.551 236.197L321.069 236.438H309.993L309.511 234.511V229.455L309.993 209.468L310.233 202.244L310.715 202.004Z" fill="#E9F0FD"/>
<path d="M64.1373 201.041L64.6189 202.004L69.4349 202.967L72.8061 203.689L75.4548 203.93V204.171L74.0101 204.412L73.2877 207.542L70.3981 218.86L67.7493 228.973L67.0269 233.308L66.7861 235.716H54.987L54.5054 235.475L54.7462 234.271L56.191 233.067L60.2845 232.344L60.5253 229.455L61.9701 220.786L63.8965 203.449L64.1373 201.041Z" fill="#FEAE86"/>
<path d="M124.819 107.37L126.504 108.815L130.357 112.667L133.006 114.835L136.136 117.243L139.748 119.41L143.601 121.095L145.527 121.818L149.862 122.781L150.102 123.022V124.948L146.731 127.115L144.082 128.56L140.711 129.283H134.691L131.802 128.079L129.153 126.393L127.227 124.467L125.3 121.095L124.337 118.206L123.855 114.835V112.667L124.819 109.537L125.541 108.333H125.059L124.819 107.37Z" fill="#E9F0FD"/>
<path d="M83.642 202.967H86.5316L87.254 203.448L87.4948 204.893V207.542L86.5316 215.488L84.6052 227.769L84.3644 232.585L83.8828 233.067L82.6788 233.548L80.03 233.789L78.5852 234.271V235.475H87.0132V234.993L89.662 235.475V235.715H78.1036L77.8628 229.214L77.622 216.692L77.3812 209.468V204.652L77.8628 203.93H79.7892L81.7156 203.208L83.642 202.967Z" fill="#FDAE85"/>
<path d="M274.114 231.622L275.318 231.863L275.558 233.067V235.234L267.371 235.475H275.799L275.558 235.956L266.89 236.197L288.562 236.438L296.026 236.197L300.12 236.679H308.548L308.789 236.197L307.825 235.956L303.732 235.715L303.491 235.234L303.973 234.993L309.511 234.752V235.475H309.993V236.438L321.792 236.197V235.475H334.313V234.993L335.276 235.234L335.999 236.197L340.092 236.438L341.296 236.679L341.537 237.642L341.296 237.883H247.385L118.317 237.642V237.401L246.181 237.16L246.903 235.956L248.348 234.993L261.592 234.752L262.315 234.511V233.789L265.686 232.826L267.131 232.103L268.575 231.863H273.632L274.114 231.622Z" fill="#A46253"/>
<path d="M218.489 80.6411L219.212 80.8819V88.1059L219.934 88.8283L225.713 90.2731L226.917 90.7547H229.325L230.529 88.8283L231.733 87.1427L231.974 87.6243L228.603 93.885L224.991 99.1826L222.342 102.554L219.452 105.925L217.044 108.092L213.192 110.982L209.098 113.39L207.653 113.631L208.135 112.186L210.061 108.574L212.71 101.831L214.636 96.0522L215.359 93.6442L216.322 90.2731L218.008 83.0491L218.489 80.6411Z" fill="#E9F0FD"/>
<path d="M198.503 6.23438L198.984 7.19757L199.948 8.16076L201.633 7.91996L203.56 6.71597H205.486L206.208 7.43837L206.931 9.36476V10.8095L205.004 12.7359L201.633 15.3847L197.78 18.5151L194.409 21.4047L190.316 24.2943L187.185 25.9799H185.259L181.647 25.2575L180.443 24.7759L178.998 24.5351L178.517 23.0903L179.961 20.4415L180.684 17.7927L180.925 16.1071L181.165 16.5887L186.704 17.3111L189.593 15.8663L192.965 13.6991L195.613 12.0135L198.262 9.84635L198.503 9.60555V6.23438Z" fill="#FDAE86"/>
<path d="M8.27208 228.973H11.4025L12.6065 229.455L15.2552 229.696L18.1448 231.863L21.516 235.475L21.9976 236.438L70.1573 236.197H91.8292L111.093 236.438L115.668 236.679L114.705 237.16L117.354 237.401V237.642L108.444 237.883H0.566528V236.679L20.312 236.438L20.7936 236.197H16.4592V235.716L17.6632 235.234L13.5696 234.03L11.1617 233.067L7.54969 232.104L7.30889 231.14L8.27208 228.973Z" fill="#9B534C"/>
<path d="M136.377 24.7759H137.099L138.785 27.4247L140.711 29.1103L142.156 30.3142L140.952 31.2774L137.099 33.2038L130.357 35.371L121.688 37.779L112.779 39.7054H111.334L110.852 35.8526V34.6486L112.297 33.4446L114.464 32.963L114.946 31.9998H116.872L118.558 32.2406L126.022 29.5918L132.042 26.7023L133.969 25.4983L136.377 24.7759Z" fill="#FDAE86"/>
<path d="M135.895 89.0691L136.377 90.0323L138.063 95.5707L139.267 99.905V100.387H139.748L141.193 104.721L142.156 107.851L143.601 111.223L144.564 112.427L144.805 113.631L143.601 113.39L139.507 110.741L136.377 108.574L133.969 106.407L132.043 104.721L129.394 101.831L127.227 98.701L126.745 97.9786V91.9587L126.986 90.9955L130.116 90.0323L131.32 89.7915H135.895V89.0691Z" fill="#002F6C"/>
<path d="M6.34568 107.129L7.30887 107.37L8.27207 110.019L9.23526 112.427L9.95766 112.668L8.99446 113.631L9.47606 116.761L11.884 124.948L13.8104 130.487L14.5328 131.691L15.0144 132.172L13.5696 133.135L10.4393 135.062L8.99446 136.507H8.51287L8.27207 137.711L7.79047 136.988L6.58648 132.895L5.62328 129.283L2.4929 114.353L1.77051 110.019V108.333L2.7337 107.852L5.38249 107.611L6.34568 107.129Z" fill="#FDAE85"/>
<path d="M48.2446 107.37L53.7829 107.851L54.0237 108.333L51.6158 117.965L49.4486 127.838L47.763 134.58L47.0406 136.747L45.1142 136.025L42.4654 133.858L40.539 132.895L39.0942 132.654L40.2982 131.691L41.2614 129.523L43.6694 122.781L45.8366 115.798L46.7998 111.223L48.0038 107.611L48.2446 107.37Z" fill="#FEAE86"/>
<path d="M60.0437 158.901L62.2109 159.623L65.1005 161.068L66.3045 161.55L64.3781 165.162L63.1741 168.533L63.4149 170.459L65.1005 174.553V175.275H65.5821L66.0637 174.312L67.2677 172.145H67.7492L68.4716 169.978L68.9532 169.496L69.4348 170.7L69.194 175.998H68.4716L67.2677 175.034L68.7124 176.961L70.398 178.406L71.8428 180.814L72.0836 182.018L71.3612 182.258H69.6756L68.4716 181.054L67.2677 180.814L65.3413 181.054L64.1373 181.295L63.6557 182.258L63.1741 181.054L61.4885 179.369L59.5621 176.238L57.3949 172.386L56.4317 169.737L56.1909 167.57L57.1541 163.958L59.0805 160.346L60.0437 158.901Z" fill="#FDAE85"/>
<path d="M328.052 148.787L331.424 149.028L338.407 152.64L342.26 154.566L343.945 155.289V155.048L345.872 155.289L348.28 156.733L351.169 158.901L350.688 159.864L349.002 161.549L348.28 162.031L346.835 162.513L346.594 162.994L345.149 162.753L341.056 161.068L334.072 158.178L325.163 154.807L323.718 154.325L323.477 153.603L323.959 152.399L327.812 150.232V149.51L328.052 148.787Z" fill="#FEAE86"/>
<path d="M289.525 119.651L291.21 119.891L292.174 121.818V127.115L293.378 133.135L294.822 137.951L295.785 139.396L296.508 139.878L296.267 140.841L295.304 142.045L292.896 145.175L291.21 146.379L290.247 146.138L289.043 145.175L288.321 143.49L286.876 133.135L285.431 120.855V120.373L285.913 120.132L289.525 119.651Z" fill="#FEAE86"/>
<path d="M89.1803 157.215H89.6619L91.1067 162.513L92.3107 163.957L97.1267 166.125L100.016 167.569L105.073 168.773L110.611 170.7L110.371 171.663L108.444 175.275H106.518L98.5715 173.349L91.3475 171.181L88.9395 170.218L88.4579 170.7L86.7723 166.365L87.0131 160.827L87.4947 159.382L87.7355 157.697L89.1803 157.215Z" fill="#FDAD85"/>
<path d="M130.839 179.128H222.101V185.148L220.897 185.629L146.009 185.388V185.148L168.885 184.666L172.737 184.425H178.276L195.854 184.666H204.523L209.339 184.425L213.432 183.944L220.897 183.703V180.091L217.767 179.85L214.155 180.091L212.951 180.332H152.27L136.136 180.091L131.079 179.85L130.839 179.128Z" fill="#181B2B"/>
<path d="M195.372 54.1533H199.466L207.653 54.3941L213.673 54.8757L219.452 55.8389L221.86 56.5613L222.342 57.2837L223.787 58.0061L224.991 57.5245V58.7285L221.62 58.9693L198.984 58.7285L183.333 58.2469L187.667 58.4877V58.7285H179.239L178.998 58.2469L181.888 57.7653L188.871 57.5245L189.112 57.0429L191.52 55.8389L191.76 55.3573L194.168 54.3941L195.372 54.1533Z" fill="#F88F25"/>
<path d="M276.04 83.7715H276.762V84.9755H276.281L276.04 86.6611L274.836 91.9586L274.114 93.885L273.873 94.3666L273.632 96.5338L273.391 96.7746L273.151 98.701L271.465 98.4602L268.816 97.0154L267.612 96.5338H267.131L266.89 97.7378H265.927V96.7746H265.445V96.293L264.482 95.8114L263.037 94.8482V94.3666L261.833 94.1258L259.184 92.9218L259.425 91.9586L263.278 90.0322L265.204 89.5506V89.0691L266.167 88.5875H266.89V88.1059L270.502 86.4203L271.947 85.6979L273.151 84.9755L275.799 84.0123L276.04 83.7715Z" fill="#FA6769"/>
<path d="M220.656 229.936H223.787L224.268 230.418H223.064L222.824 231.14L205.005 231.622H135.655L131.561 231.381L122.17 231.14H116.872L116.631 230.418L126.745 230.177H202.597L220.656 229.936Z" fill="#1A1C2C"/>
<path d="M138.785 160.105L140.47 160.346L145.046 162.754L147.694 164.921L149.862 167.329L151.547 170.7L149.621 172.145L146.731 173.108L141.193 173.589H139.026L138.785 171.422L137.34 170.459L136.858 169.255L139.748 169.977L141.674 170.218L140.47 168.292L139.026 163.235L138.785 162.031V160.105Z" fill="#7ED1ED"/>
<path d="M213.673 160.345L213.914 161.309L212.951 164.439L211.265 169.977L214.396 169.255H215.6L215.359 170.459L213.673 172.385H213.192L212.951 173.108L212.71 172.145L213.192 171.181L211.506 171.904L211.265 172.626L212.228 171.663L212.71 171.904L211.265 173.589H205.968L202.837 173.108L200.67 170.218L201.874 169.977L202.356 167.569L204.041 165.643L206.449 163.717L208.857 162.031L211.988 160.827L213.673 160.345Z" fill="#81C0AC"/>
<path d="M8.27208 228.973H11.4025L12.6065 229.455L15.2552 229.696L18.1448 231.863L21.516 235.475L21.9976 236.438H51.6158V236.679L31.3887 236.919L34.2783 237.401H46.3182L60.2846 237.642V237.883H0.566528V236.679L20.312 236.438L20.7936 236.197H16.4592V235.716L17.6632 235.234L13.5696 234.03L11.1617 233.067L7.54969 232.104L7.30889 231.14L8.27208 228.973Z" fill="#5CA292"/>
<path d="M263.278 122.781L265.927 123.022L268.335 123.985L269.779 125.671L270.02 126.152V128.56L268.816 131.209L267.853 133.376L267.131 136.025L265.927 137.229L263.759 137.47L262.555 137.229L261.833 135.784L261.592 134.099V128.56L262.315 123.744L263.278 122.781Z" fill="#FDAE85"/>
<path d="M145.768 236.197H167.921L222.824 236.679L228.843 236.919L233.659 236.679L234.623 236.438H246.422L246.663 237.401H138.303V237.16L143.36 236.919L145.286 236.679L145.768 236.197Z" fill="#49263E"/>
<path d="M155.882 0.455322H157.567L160.457 1.41852L161.661 2.86331L162.383 6.23449L163.105 10.5689L163.346 11.5321H164.55V11.7729L162.383 12.4952L161.179 13.94L159.253 13.6992L157.567 12.736L157.086 12.2544L153.714 12.0137V11.7729L156.604 11.5321L155.882 10.3281L155.159 5.03049V4.0673L154.437 3.8265L153.714 2.86331L153.955 1.65931L155.882 0.455322Z" fill="#FDAF85"/>
<path d="M137.099 100.387H139.026L139.989 101.591L140.952 103.758L141.915 107.37L143.601 111.223L144.564 112.427L144.805 113.631L143.601 113.39L139.507 110.741L136.377 108.574L133.969 106.407L132.042 104.721L130.116 102.554L130.357 101.832L135.414 100.628L137.099 100.387Z" fill="#E9F0FD"/>
<path d="M170.57 205.856H180.925L185.981 206.097L189.112 207.06L189.593 207.301L189.353 208.024L186.945 208.505L186.463 208.746L179.48 208.987H161.42L159.253 208.746L158.771 208.264L159.975 207.06L163.346 206.338H165.513L170.57 205.856Z" fill="#FCA748"/>
<path d="M220.656 70.0461L226.435 70.2869L228.603 70.5277L237.994 70.7685L238.235 71.9725L237.271 75.1029H236.79L236.549 75.8253L234.382 76.0661H231.011L228.121 75.5845L224.028 74.1397L220.897 72.4541L220.416 71.4909V70.2869L220.656 70.0461Z" fill="#E9F0FD"/>
<path d="M309.03 130.246H310.474L311.438 131.209L311.678 132.894H313.605L314.809 133.858V136.988L317.217 141.804V142.286L311.438 142.526L311.919 140.841L313.605 139.878V138.433L311.919 136.988L310.234 135.062L309.03 133.858L308.307 133.617L308.066 134.58L307.103 137.71V140.841L307.585 141.804L308.066 142.045V142.526H304.454L302.287 142.045L302.046 141.804V138.914L303.732 136.988L306.381 135.784L306.622 135.302L307.103 132.413L308.548 130.486L309.03 130.246Z" fill="#1B2030"/>
<path d="M274.114 231.622L275.318 231.863L275.558 233.067V235.234L267.371 235.475H275.799L275.558 235.956L266.89 236.197L286.154 236.438V236.679H261.351L246.663 236.438L247.867 235.234L248.348 234.993L261.592 234.752L262.315 234.511V233.789L265.686 232.826L267.13 232.103L268.575 231.863H273.632L274.114 231.622Z" fill="#FDAF81"/>
<path d="M165.754 56.0798H170.811L175.627 56.3206L177.553 56.5614L177.072 57.5246L173.941 59.9326L169.848 62.3406L167.44 63.5446L166.717 63.7854H164.55L162.624 63.063L163.105 61.1366L165.273 57.2838L165.754 56.0798Z" fill="#002F6C"/>
<path d="M264.482 216.692L265.204 216.933L266.167 226.565L266.408 229.455H268.334L268.816 229.696V230.659H272.91L274.114 230.899V231.863L273.632 232.103H268.575L266.408 232.585L265.204 233.307L262.315 233.789V234.511H261.833L261.592 234.03L261.351 230.659L263.759 218.137L264.241 216.933L264.482 216.692Z" fill="#E9F0FD"/>
<path d="M30.1847 228.973L33.5559 229.214L37.4086 230.177V230.418H35.7231L38.3718 231.863L43.9102 234.512L44.6326 235.234V235.956H33.0743L30.6663 235.716L30.1847 235.475V233.067L30.6663 229.696L30.1847 228.973Z" fill="#F96565"/>
<path d="M148.898 173.108H203.8L205.968 173.349L211.506 173.59L216.322 174.312L216.563 174.553V177.201L216.322 178.887H220.175V179.128L209.098 179.369L210.061 178.887L212.228 178.165L211.988 177.201L210.543 176.479L207.894 175.757L205.968 175.516L204.282 175.034L202.115 174.071V173.83H189.593L152.029 173.59L148.898 173.349V173.108Z" fill="#DC8C4C"/>
<path d="M66.0637 161.79L68.2309 162.272L69.4349 163.235L69.6757 165.884L67.5085 172.145L66.0637 174.553L65.5821 175.275H65.1005L63.6557 171.663L62.9333 169.496L63.1741 167.569L64.8597 163.717L66.0637 161.79Z" fill="#E9F0FD"/>
<path d="M138.785 160.105L140.471 160.346L145.046 162.754L147.695 164.921L149.862 167.329L151.066 169.496V170.218L148.899 170.7L147.695 170.218L146.731 169.496L146.491 168.292L143.119 166.365H140.711L139.748 165.884L138.785 162.031V160.105Z" fill="#82BFAA"/>
<path d="M264.482 151.436L265.927 151.677L266.408 154.566L262.315 155.53L261.111 156.252L261.351 158.901L260.87 158.66L260.388 157.456L258.943 155.53L258.462 155.289V154.807H257.739V155.53H258.221L258.462 156.011L258.943 159.864L257.98 158.66L256.054 157.215L254.85 156.734L254.609 154.566L254.85 151.677L264.482 151.436Z" fill="#4E283E"/>
<path d="M76.6588 136.988H78.1036L80.2708 137.951L81.234 139.396L81.9564 142.767L82.1972 143.971V145.657L81.7156 145.898H77.8628L78.3444 144.934L79.5484 144.212H80.03V141.804L79.5484 140.118L78.826 139.396V138.914L77.8628 138.674L77.622 141.082L75.9364 141.563L74.4916 141.322L74.7324 142.045L74.2508 142.526L75.4548 143.73L76.1772 144.212V146.62H73.7692L73.2876 146.379L72.806 145.175V138.674H73.2876L73.5284 137.951L75.214 137.229L76.6588 136.988Z" fill="#4A2C42"/>
<path d="M257.739 154.807H258.462V155.289L259.425 155.77L260.87 157.697L261.11 158.66L262.074 159.623L263.518 164.439L262.074 164.921L261.11 163.717L257.017 162.994L254.127 162.272V158.901L254.609 155.77L255.091 156.734L256.776 157.456L258.462 158.901V158.419L258.221 155.53H257.739V154.807Z" fill="#FDB088"/>
<path d="M8.27203 228.973H11.4024L12.6064 229.455L15.2552 229.696L18.1448 231.863L21.516 235.475L21.7568 235.956L19.5896 235.475L15.7368 234.752L11.1616 233.067L7.54964 232.104L7.30884 231.14L8.27203 228.973Z" fill="#F66765"/>
<path d="M308.307 133.617L309.27 133.858L309.752 134.821L310.715 135.303L312.401 137.229L313.845 138.433V139.878L312.401 140.841H311.919L311.678 142.286L313.364 142.526L312.882 143.249L311.197 143.73L309.511 143.971L308.548 143.008L306.381 142.767V142.526H308.066V142.045L307.344 141.804L306.862 140.841V137.711L307.826 134.58L308.307 133.617Z" fill="#FAAA82"/>
<path d="M26.8135 126.875H29.2215L29.9439 127.597L29.7031 129.042L28.7399 130.968L28.2583 131.209V131.69H27.0543L26.5727 130.727L24.8871 131.209L24.4055 131.69V133.376L26.0911 134.098H28.4991L29.4623 133.617L30.6663 133.858L30.4255 135.784L29.2215 137.229L28.7399 137.47H27.2951L25.8503 136.506L24.6463 135.543L23.9239 135.302L22.9607 133.858L22.4791 132.172V130.486L23.9239 128.319L25.1279 127.356L26.8135 126.875Z" fill="#512A3F"/>
<path d="M229.566 130.727L230.77 131.209L232.215 132.172L233.659 132.894L234.382 134.098L234.141 135.543L232.696 136.988L231.011 137.71L230.288 138.674L229.084 138.433L227.88 137.229L225.713 134.821V133.135L226.436 131.69L227.64 130.968L229.566 130.727Z" fill="#FEC486"/>
<path d="M77.8629 138.674L78.8261 138.914L80.0301 140.6L80.2709 141.804V143.73L79.5485 144.453L78.1037 145.416L77.8629 145.898H80.9933V146.138L78.5853 146.379L80.2709 146.861L79.5485 148.306L77.8629 149.75L76.1773 150.954H75.6957L75.4549 149.51L74.9733 148.546V147.102L74.7325 146.62H76.1773L75.9365 144.212L74.2509 143.008L74.0101 142.286L74.4917 141.804V141.322L77.3813 141.082L77.8629 138.674Z" fill="#FEC388"/>
<path d="M67.0269 230.659L67.2677 231.622L66.7861 235.715H54.987L54.5054 235.475L54.7462 234.271L56.191 233.067L62.6925 231.863L66.0637 231.622L66.7861 231.381L67.0269 230.659Z" fill="#87C0AD"/>
<path d="M159.253 202.967L197.299 203.208V203.689L196.817 203.93L186.704 204.171L182.851 204.412H172.256L164.31 204.171L153.714 203.93L152.751 203.448L152.992 203.208L159.253 202.967Z" fill="#DE8D49"/>
<path d="M319.384 110.741L320.828 110.982L321.551 112.668L322.032 114.353V115.798L320.106 117.243L319.384 118.206L316.976 117.002L315.772 116.039L315.049 113.39V110.982H318.661L319.384 110.741Z" fill="#FEC486"/>
<path d="M156.363 200.559H196.577L196.336 201.04L193.928 201.281L183.092 201.522H160.216L152.029 201.04V200.8L156.363 200.559Z" fill="#E9903D"/>
<path d="M254.609 227.769L255.09 228.251V232.103H258.943L260.629 231.622H261.592L261.833 234.752L261.592 234.993H248.83L249.793 233.548L253.405 232.344L253.886 230.418L254.368 228.732L254.609 227.769Z" fill="#1E1C2D"/>
<path d="M274.114 231.622L275.318 231.863L275.558 233.067V234.993H262.314V233.789L265.686 232.826L267.13 232.103L268.575 231.863H273.632L274.114 231.622Z" fill="#191C2C"/>
<path d="M109.407 185.389H113.501L117.113 186.833L119.762 188.76L123.615 192.613L126.263 196.225L128.19 199.355L131.32 204.653L132.043 205.375V205.857L131.079 205.616L129.635 203.449L127.708 200.077L125.059 195.743L123.133 193.094L120.725 190.927L120.003 190.205V189.723L119.039 189.241L116.391 187.556L113.742 186.593H109.889L108.685 187.074L105.555 189.482L104.351 190.445H103.628L104.11 189.001L105.795 187.074L107.481 186.111L109.407 185.389Z" fill="#10652F"/>
<path d="M268.094 132.172L268.575 132.654L269.057 134.821V136.747L267.853 138.674L266.408 139.396L264.963 139.637H263.037L261.351 138.914L259.907 137.229V135.543L261.111 134.58H261.592L261.833 134.099L262.315 136.266L262.555 137.229L265.927 136.988L266.89 136.025L268.094 132.172Z" fill="#5B93CE"/>
<path d="M307.103 135.302H307.344L307.103 137.71V140.841L307.585 141.804L308.066 142.045V142.526H304.454L302.287 142.045L302.046 141.804V138.914L303.732 136.988L306.381 135.784L307.103 135.302Z" fill="#1F1F2F"/>
<path d="M263.278 122.781L265.926 123.022L268.334 123.985L269.779 125.671L270.02 126.152V128.56L268.816 131.209L268.094 132.413L267.371 131.691L267.853 130.487L268.816 129.283V128.079L265.204 126.393L262.314 125.43V123.744L263.278 122.781Z" fill="#1B1E2F"/>
<path d="M15.0144 131.931L15.9776 132.172L20.312 136.507L22.9608 137.711L26.8135 138.433L30.6663 138.674L29.9439 138.915V139.396L26.0912 139.878L25.3688 140.119L24.6464 139.637L22.2384 139.396L21.0344 139.155H19.8304V138.192H18.6264L18.1448 136.988L17.1816 137.229L16.7 135.784L16.4592 134.58L14.0512 134.099L13.8104 133.376L15.2552 132.895H14.7736L14.5328 132.172L15.0144 131.931Z" fill="#BFDC64"/>
<path d="M254.127 162.272L256.535 162.513L257.739 162.994L261.11 163.476L262.314 164.921V165.402H264.241L264 164.439H264.482L265.204 165.162L265.926 165.643V166.125L264.963 166.366H254.609L254.127 166.125L254.368 165.402L257.739 165.162L256.054 164.921H254.368L254.127 162.272Z" fill="#4A2A3F"/>
<path d="M330.942 232.344L332.146 232.826L333.591 233.789L334.795 234.511V234.993H334.313V235.475H321.792L321.551 236.197L321.792 233.307L325.645 233.548L329.497 233.067L330.701 233.307L330.461 232.585L330.942 232.344Z" fill="#FEC386"/>
<path d="M84.6053 236.438H111.093L115.668 236.679L114.224 237.401H102.906L101.702 237.16H100.257L100.016 237.401L91.5885 237.642L88.4581 237.401L85.0869 236.92L84.6053 236.438Z" fill="#964F4C"/>
<path d="M259.666 221.508L260.629 221.749L261.351 223.916L261.111 227.047L261.351 228.01L261.833 228.251L261.351 229.214L260.388 230.418H259.907V230.899L258.462 230.659L257.017 228.973L257.258 227.287L258.221 225.843L259.425 221.99L259.666 221.508Z" fill="#002F6C"/>
<path d="M136.858 169.255L139.748 169.978L142.156 170.459L142.397 170.7L147.454 171.182V171.663L148.898 171.422L148.417 172.626L145.046 173.349L139.026 173.59L138.785 171.422L137.34 170.459L136.858 169.255Z" fill="#7FD2EE"/>
<path d="M257.739 154.807H258.462V155.289L259.425 155.77L260.87 157.697L261.11 158.66L262.074 159.623L263.518 164.439L262.074 164.921L261.11 163.717L259.666 163.476L259.906 162.513H259.425L258.462 160.345L258.702 159.142L258.221 156.011V155.53H257.739V154.807Z" fill="#F9AA81"/>
<path d="M104.592 147.343H109.408L110.371 147.583L109.889 148.547L108.685 149.269L108.444 149.751L108.926 152.158L110.13 152.399V152.64H105.073L104.592 151.677V147.343Z" fill="#FEB9C7"/>
<path d="M198.503 6.23438L198.985 7.19757L199.948 8.16076L201.633 7.91996L203.56 6.71597H205.486L206.208 7.43837L206.931 9.36476V10.8095L205.727 11.5319L204.041 11.2911L201.874 9.84635L201.393 9.60555L198.744 9.36476L198.503 6.23438Z" fill="#FEC486"/>
<path d="M159.012 221.508H187.426L211.024 221.749V221.99L186.944 222.231L182.128 222.471H177.794L173.701 222.231H162.624V221.749H159.012V221.508Z" fill="#F88F25"/>
<path d="M38.6127 178.405H39.5759V186.111L39.3351 195.502H39.0943L38.3719 187.796L38.1311 183.221L36.9271 180.813L35.0007 178.887L38.6127 178.405Z" fill="#305F9D"/>
<path d="M57.1543 42.3542H60.7662L61.2478 43.0766L61.4886 45.4846L61.9702 45.7254L61.4886 46.4478L59.803 46.6886L59.5622 46.4478V49.0966L58.5991 49.5782L58.3583 47.6518V44.7622L59.0807 45.003L58.8399 44.2806H59.3215V43.3174H58.8399L58.5991 44.0398L58.1175 44.7622L57.8767 46.4478H55.7095L56.1911 45.2438L56.4319 45.003L56.9135 42.595L57.1543 42.3542Z" fill="#7DC3BD"/>
<path d="M295.304 234.511L296.508 234.752L303.973 234.993V235.475L307.825 235.715L309.029 236.197L308.789 236.919H300.12L296.026 236.438L295.545 236.197L295.304 234.511Z" fill="#F59D5C"/>
<path d="M15.0145 176.479H16.2185L16.9409 176.961H19.1081L20.5528 177.683V178.165L21.516 177.924L22.9608 178.165L25.6096 178.405L26.8136 178.646L28.9808 178.887L29.2216 179.128L30.9072 179.369V179.609L28.9808 179.85H23.6832L19.1081 179.128L15.2553 178.165L14.7737 177.683L15.0145 176.479Z" fill="#BFDC64"/>
<path d="M23.9241 131.69H24.1649L24.4057 133.376L26.0913 134.098H28.4993L29.4625 133.617L30.6664 133.858L30.4256 135.784L29.2217 137.229L28.7401 137.47H27.2953L25.8505 136.506L24.6465 135.543L23.9241 135.302L22.9609 133.858L22.7201 132.654L23.9241 131.69Z" fill="#9B544D"/>
<path d="M155.882 0.455322H157.567L160.457 1.41852L161.661 2.86331L161.42 4.0673L160.216 4.3081L158.771 3.3449L154.437 3.5857L153.714 2.86331L153.955 1.65931L155.882 0.455322Z" fill="#221E2E"/>
<path d="M107.24 169.737L108.685 169.977L110.612 170.7L110.371 171.663L108.444 175.275H106.518L105.073 174.793L105.314 173.589L106.036 173.108L106.518 170.941L107.24 169.737Z" fill="#FDAD85"/>
<path d="M0.566528 236.679H13.8104L19.5896 236.92L20.0712 237.642H0.566528V236.679Z" fill="#4C2A40"/>
<path d="M26.8136 236.679H53.0606V236.92L46.3183 237.401L44.6327 237.642H34.2784L30.6664 237.16L26.8136 236.92V236.679Z" fill="#233347"/>
<path d="M266.89 229.455H268.334L268.816 229.695V230.659H272.91L274.114 230.899V231.863L273.632 232.103H268.575L266.408 232.585L265.204 233.307H261.833L262.074 232.344L264 232.103L265.926 231.622L266.89 230.418L267.612 230.177L267.853 229.695L266.89 229.455Z" fill="#E9F0FD"/>
<path d="M84.1237 232.585L86.0501 233.789L87.7357 234.752L87.0133 234.993V235.475H78.5853V234.271L80.0301 233.548L82.6789 233.308L84.1237 232.585Z" fill="#83BFA7"/>
<path d="M26.0912 130.487L27.0544 130.968L27.2952 131.45L28.2584 131.691V131.209L27.7768 130.968L28.4992 130.727L29.2216 132.413L29.4624 133.135L30.4256 133.376L28.4992 134.339H26.0912L24.4056 133.617L24.1648 133.376V131.691L25.3688 130.727L26.0912 130.487Z" fill="#FCB387"/>
<path d="M263.278 235.475H275.799L275.558 235.956L266.89 236.197L286.154 236.438V236.679H261.351L255.572 236.438V236.197L258.462 235.956V235.715L263.278 235.475Z" fill="#FBAD73"/>
<path d="M214.396 169.255H215.6L215.359 170.459L213.673 172.386H213.192L212.951 173.108L212.71 172.145L213.192 171.182L211.506 171.904L211.265 172.626L212.228 171.663L212.71 171.904L211.265 173.59H205.968L203.801 173.349L205.245 172.626V173.108L206.69 172.867L207.653 173.108L209.098 172.867L210.061 171.904H210.543V171.422L210.061 171.182H210.543L210.784 170.218L214.396 169.255Z" fill="#4DABB3"/>
<path d="M238.957 80.8821L239.439 81.8453V84.9757L239.198 85.9388L238.716 87.3836L237.994 88.106H237.512L236.79 88.8284L236.549 87.8652V84.7349L237.031 83.0493L237.753 81.6045L238.957 80.8821Z" fill="#FBA648"/>
<path d="M308.307 133.617L309.27 133.858L309.752 134.821L310.715 135.303L312.401 137.229L313.845 138.433V139.878L313.364 140.359H312.641V139.155L312.16 138.915L311.919 138.192L309.752 137.711L307.825 135.784L307.585 135.062L308.307 133.617Z" fill="#FAAA82"/>
<path d="M135.655 174.312L136.618 175.275L137.34 178.165V178.646L152.751 178.887L155.4 179.128V179.369H136.377L135.655 179.128V174.312Z" fill="#DB8B4E"/>
<path d="M275.558 231.381L276.04 231.863L276.281 232.585L276.522 235.956L278.207 236.197V236.438H265.445L264.963 235.956L274.114 235.715H267.371L262.555 235.475V235.234H275.558L275.318 233.067L275.558 231.381Z" fill="#FCFAF8"/>
<path d="M6.3456 107.129L7.3088 107.37L8.03119 109.056L7.7904 110.019V109.537L4.41922 110.26L2.49283 110.019L2.01123 109.537V108.092L2.73363 107.852L5.38241 107.611L6.3456 107.129Z" fill="#FDAE85"/>
<path d="M232.696 132.413L233.9 133.135L234.382 134.098L234.141 135.543L232.696 136.988L231.492 137.229L229.325 136.988L228.844 136.025L229.325 135.062H230.288L229.807 134.58H232.215L232.696 134.821V133.858L232.215 133.617L232.696 132.413Z" fill="#FEAE86"/>
<path d="M30.1847 228.973L33.5559 229.214L37.4086 230.177V230.418H35.7231L37.8902 231.622L36.9271 231.863L34.5191 231.381H32.8335L31.3887 231.622H30.6663V229.696L30.1847 228.973Z" fill="#FDB384"/>
<path d="M100.257 236.919H102.184L102.906 237.16L117.354 237.401V237.642L108.444 237.883H87.254V237.642L100.016 237.16L100.257 236.919Z" fill="#E5A979"/>
<path d="M75.9365 147.102H80.03L79.5484 148.306L77.8628 149.75L76.1773 150.954H75.6957L75.4549 149.51L74.9733 148.546V147.824H75.4549V147.342L75.9365 147.102Z" fill="#FEC386"/>
<path d="M70.1574 236.197H91.8292V236.438L76.4181 236.679L76.6589 237.16L76.1773 237.401H70.1574L69.9166 236.679H67.7494V236.438L70.1574 236.197Z" fill="#FAA96E"/>
<path d="M17.6631 234.993L19.5895 235.234L21.9975 235.956V236.438H51.6157V236.679H20.3119L20.7935 236.197H16.4591V235.716L17.6631 235.234V234.993Z" fill="#6DC0CB"/>
<path d="M269.779 90.2732H271.224L271.706 90.7548L270.02 92.6812L268.575 94.3668L267.853 94.8484L267.131 97.4971L266.167 97.9787L265.927 97.7379V96.534L267.131 93.6444L269.779 90.2732Z" fill="#EF4457"/>
<path d="M80.5116 140.359L80.9932 140.6L81.4748 142.767H81.9564L82.1972 143.971V145.657L81.7156 145.897H77.8628L78.3444 144.934L79.5484 144.212H80.03V140.6L80.5116 140.359Z" fill="#994D4C"/>
<path d="M159.493 202.967L197.299 203.208V203.689H156.122V203.448L159.253 203.208L159.493 202.967Z" fill="#FBA241"/>
<path d="M79.3076 35.3711H80.5116V38.9831L80.03 42.1135L79.3076 43.5582L78.3444 44.2806H77.8628V42.1135L78.826 41.3911L79.0668 40.4279L79.3076 35.3711Z" fill="#FEC486"/>
<path d="M304.936 83.7715H306.622L306.14 84.7347L303.973 86.1795H303.491V86.6611L302.528 86.9019V86.4203L300.361 86.9019H298.675L297.953 86.1795L298.194 85.4571L302.769 85.2163L304.936 83.7715Z" fill="#43A0A3"/>
<path d="M26.5728 62.3406L27.5359 62.5814L28.9807 67.6381L30.9071 69.5645L30.4255 70.5277L29.4623 70.0461L27.7767 68.3605L26.8136 66.6749L26.5728 62.3406Z" fill="#369895"/>
<path d="M274.114 231.622L275.318 231.863L275.558 233.067L275.318 234.271L274.354 233.789L274.114 232.344L272.428 233.307L270.502 233.548V232.826L269.779 233.067L269.538 233.548L267.612 233.789L268.575 232.826L267.612 232.585L266.89 233.067H265.686L266.408 232.344L268.575 231.863H273.632L274.114 231.622Z" fill="#191C2C"/>
<path d="M208.857 162.031L209.339 162.272L208.617 163.476L205.486 166.606L204.523 166.847L204.041 167.81L202.837 169.014H202.356L202.115 168.051L203.078 166.606L205.727 164.198L208.857 162.031Z" fill="#7FD1ED"/>
<path d="M8.51289 228.491H11.4025L14.0513 228.973H16.2184L18.6264 231.381L19.8304 232.344L21.2752 234.511H20.312L17.6632 231.622L15.2553 229.936L12.6065 229.695L11.4025 229.214L8.27209 228.973L8.51289 228.491Z" fill="#F9FBFC"/>
<path d="M221.379 63.3037H243.773L245.459 63.5445L246.663 65.4709V68.1197L246.181 69.3237L245.94 68.6013V66.9157L244.495 64.0261L243.532 63.7853H221.138L221.379 63.3037Z" fill="#FEB186"/>
<path d="M307.103 233.307H309.029L309.27 234.271L308.789 234.511H306.14L305.658 234.271V233.789L304.454 234.03H299.398L303.732 234.511V234.752H295.545L295.304 234.271L298.434 233.548L307.103 233.307Z" fill="#FDFDFD"/>
<path d="M263.759 233.307L265.926 233.548L266.649 234.03L265.445 234.511H266.649L267.853 234.271H270.983L271.465 234.03H272.91L274.114 234.752V234.993H262.314V233.789L263.759 233.307Z" fill="#191C2C"/>
<path d="M136.858 169.255L139.748 169.978L140.952 170.941L142.397 171.182L142.156 171.904L142.878 171.663L143.36 172.386L144.805 172.626V172.867H140.952L140.711 173.349L139.507 172.626L138.785 171.422L137.34 170.459L136.858 169.255Z" fill="#338992"/>
<path d="M261.833 234.511H262.314V234.993H275.558V235.234L262.555 235.475H248.107L248.348 234.993L261.592 234.752L261.833 234.511Z" fill="#FDD1AD"/>
<path d="M41.0206 233.307L42.4654 233.789L44.3917 234.993L44.6325 235.956H36.6862L36.2046 235.475L39.335 234.993H40.539L40.7798 234.03L41.0206 233.307Z" fill="#F66765"/>
<path d="M319.625 111.223L320.347 111.463L320.588 111.945V114.112L321.551 114.353L321.31 115.557L320.588 116.039L319.143 115.798L318.421 114.594L318.18 112.186L319.143 111.945V111.463L319.625 111.223Z" fill="#FCA748"/>
<path d="M131.561 216.692H131.802V220.545L130.116 227.528H129.875L129.635 224.88L129.875 222.231V220.304L130.839 219.341L131.079 217.415L131.561 216.692Z" fill="#10652F"/>
<path d="M335.999 136.988L337.925 137.951L340.333 138.433V139.155H337.925L336.24 138.914L333.35 140.359L331.183 140.6L331.664 139.637L333.109 138.914L335.517 137.951L335.999 136.988Z" fill="#52BBDD"/>
<path d="M132.283 57.7654H141.193L143.119 58.0062V58.4878L138.303 58.7286H132.765L131.079 58.4878L130.838 59.2102V58.4878H126.986V58.247L130.838 58.0062L132.283 57.7654Z" fill="#F88F25"/>
<path d="M203.56 6.71606H205.486L206.208 7.43846L206.931 9.36485V10.8096L205.727 10.0872L204.764 9.12405L203.56 8.64245L201.874 8.40165L201.633 7.92006L203.56 6.71606Z" fill="#FEAE86"/>
<path d="M274.836 174.312L276.04 174.553L277.726 174.793V180.091L277.485 184.185H277.244V175.757L277.485 175.034H277.003L276.762 176.479L275.318 177.442L274.354 177.201L274.114 176.479V174.553L274.836 174.312Z" fill="#002F6C"/>
<path d="M205.004 169.496H206.208L206.69 170.459L206.449 171.422L207.412 172.626L207.172 173.349L206.449 173.108H203.56V171.181L205.004 169.496Z" fill="#7DCFE6"/>
<path d="M184.055 137.47H184.296V138.915L185.259 139.155L184.777 140.119L182.61 141.323L181.406 141.804L180.925 142.526L181.165 141.323V140.841V138.674L183.814 138.433L184.055 137.47Z" fill="#EAB47C"/>
<path d="M331.905 232.826L334.554 234.271L334.795 234.993H334.313V235.475H321.792V235.234H330.46L330.701 234.03L331.664 233.789L331.905 232.826Z" fill="#FBB281"/>
<path d="M150.102 123.022L151.066 123.503L152.751 126.152L154.678 128.078L154.437 129.042L153.714 129.282V128.56H153.233L152.751 127.356H152.27L151.788 125.911L150.584 125.43L148.176 126.875L147.213 127.115L147.454 126.393L149.862 124.948L150.102 123.022Z" fill="#002F6C"/>
<path d="M54.5054 235.475L65.3413 235.715L67.2677 235.956V236.438H54.5054V235.475Z" fill="#FDE4D7"/>
<path d="M28.9808 180.091H29.7032L29.944 181.295L29.2216 185.148L28.2584 190.686L27.0544 195.502H26.8136L27.0544 193.094L28.4992 184.425L28.9808 180.091Z" fill="#305F9D"/>
<path d="M23.9241 95.5708L24.6465 95.8116L24.1649 98.2196L23.9241 98.942V100.868L24.6465 103.517V104.962H23.9241L23.2017 101.832L21.9977 100.146L22.7201 99.1828L23.9241 95.5708Z" fill="#51B8D6"/>
<path d="M275.077 35.1304H275.799L276.281 35.8528L276.04 37.0568L275.077 38.2608L274.836 40.6687H275.318L275.559 41.3911L276.04 41.6319V44.0399H275.559L274.355 41.1503L273.632 39.9463L273.873 38.2608L274.836 37.2976L275.077 35.1304Z" fill="#33999B"/>
<path d="M252.923 151.195H254.127L253.405 158.66L252.923 161.309H252.683V151.436L252.923 151.195Z" fill="#429C9A"/>
<path d="M250.997 236.438H255.09L260.147 236.679V236.92H256.054V237.401H246.903L247.867 236.679L250.997 236.438Z" fill="#4A263E"/>
<path d="M210.302 107.852H210.543L211.024 111.464L211.265 112.186L208.376 113.631H207.653L208.135 112.186L210.061 108.574L210.302 107.852Z" fill="#FBFCFD"/>
<path d="M48.4855 107.611H50.8935L52.8198 108.092L52.579 109.296L52.0975 110.019L52.3383 110.5H50.8935L49.9303 109.778V109.055L48.7263 108.574L48.4855 107.611Z" fill="#FDAE85"/>
<path d="M124.578 194.78H125.3L127.949 198.873L131.079 204.412L132.043 205.375V205.857L131.079 205.616L129.635 203.449L127.708 200.077L125.059 195.743L124.578 194.78Z" fill="#10652F"/>
<path d="M233.659 135.784L233.9 136.266L232.696 137.47L230.288 139.637L229.566 140.359L228.603 139.878L227.399 138.192V136.747L228.362 137.47V137.951L229.325 138.433L230.288 138.674L230.77 137.711L231.733 136.988L232.937 136.507L233.659 135.784Z" fill="#FAFCFC"/>
<path d="M110.371 147.824H110.611V152.158L110.13 152.64L108.926 152.158L108.203 149.51L109.167 148.546L110.371 147.824Z" fill="#FDFDFD"/>
<path d="M205.245 130.487H206.69L209.098 131.45L210.543 132.172L211.506 134.099L211.988 134.821V135.784H211.024L209.82 132.895L207.653 131.931L205.245 131.691L205.005 130.727L205.245 130.487Z" fill="#285F69"/>
<path d="M15.9776 148.065L16.2184 148.787H16.7V151.918L15.7368 163.476H15.496L15.7368 152.399L15.9776 148.065Z" fill="#BFDC64"/>
<path d="M109.167 190.445H112.779L114.946 191.649L115.187 192.131H113.019L112.056 191.89V191.168L110.611 191.409L109.407 192.131H107.963L107.722 191.409L109.167 190.445Z" fill="#10652F"/>
<path d="M347.798 156.974L348.761 158.178L349.243 159.382L348.761 161.068L348.039 161.55L346.112 162.031V162.513H344.427L344.186 162.031L346.112 161.309L347.557 160.346L347.316 158.66L347.798 157.697L347.076 157.215L347.798 156.974Z" fill="#FEAE86"/>
<path d="M113.501 33.4448H114.223L114.946 36.5752L114.705 38.02L114.946 39.224L112.779 39.7056H111.575V38.9832L112.779 38.2608H113.26L113.742 37.0568V35.1304L113.501 33.4448Z" fill="#FEC686"/>
<path d="M299.398 233.789H305.658L306.14 234.03V234.511L308.789 234.752V234.993H296.508V234.752L301.324 234.511L298.916 234.271L299.398 233.789Z" fill="#FDB187"/>
<path d="M93.7555 115.557L95.2003 115.798L96.4043 116.761L97.3675 116.52L98.3307 115.798L98.0899 116.761L97.1267 117.724L96.1635 117.484L94.9595 116.52L93.7555 116.761L91.1067 118.206L90.1435 118.688H89.4211L89.9027 117.724L93.7555 115.557Z" fill="#27525D"/>
<path d="M161.42 3.58569L161.902 4.54889L162.624 7.43847L163.105 10.5689L163.346 11.532H164.55V11.7728L162.383 12.2544L161.661 7.19767L160.698 4.78969V4.06729H161.42V3.58569Z" fill="#FEBD85"/>
<path d="M230.048 158.901L230.529 159.142L230.288 159.382L229.807 162.272L228.603 162.994H226.195L226.436 162.272L227.64 161.55H228.121L228.603 160.346L229.566 160.105L230.048 158.901Z" fill="#EFF3F2"/>
<path d="M58.5989 80.6411L59.5621 80.8819L60.7661 82.0859L63.4148 83.0491L66.5452 83.5307H68.7124L68.9532 84.0123L68.4716 84.2531H66.3044L62.9333 83.7715L60.7661 83.0491L59.3213 82.8083V82.3267H59.8029L58.5989 81.1227V80.6411Z" fill="#5DC1E1"/>
<path d="M171.774 21.8864L172.978 22.1272L176.109 23.3311L176.831 23.8127V24.2943H175.145L172.737 24.0535L172.015 24.2943L171.774 21.8864Z" fill="#F1F6F4"/>
<path d="M38.8536 177.442L39.8168 177.683V178.165L38.6128 178.646L33.0745 179.369H31.1481L32.1113 178.887L35.2416 177.924H37.4088L38.8536 177.442Z" fill="#BFDC64"/>
<path d="M57.1543 42.3542H57.8767V43.0766H58.3583L57.8767 45.7254V46.4478H55.7095L56.1911 45.2438L56.4319 45.003L56.9135 42.595L57.1543 42.3542Z" fill="#78C0BC"/>
<path d="M276.04 36.8159H276.281V39.7055L275.799 40.4279V41.1503L276.281 41.3911L276.522 43.0767L276.281 44.2807L275.077 44.5215L275.318 43.3175L275.558 44.0399H276.04V41.6319L275.318 41.3911V40.6687H274.836V38.2607L276.04 36.8159Z" fill="#AAEAF6"/>
<path d="M265.204 126.393L266.408 126.634L269.057 128.078V129.282L268.575 128.319L267.371 128.078V128.56H266.89L266.649 129.282L265.204 128.319L264.963 126.634L265.204 126.393Z" fill="#FDAE85"/>
<path d="M262.314 123.744L263.278 124.707V125.189H266.167L267.612 126.393L268.094 127.597L263.278 125.671L262.314 125.43V123.744Z" fill="#562F42"/>
<path d="M139.989 170.218L142.156 170.459L142.397 170.7L147.454 171.181V171.422L144.564 171.663L144.805 172.626H143.36L142.638 171.904H142.156V171.422L140.711 170.941L139.989 170.218Z" fill="#47AAB9"/>
<path d="M126.022 97.0156L127.226 98.2196L128.912 100.868L132.042 104.48L132.524 105.203L131.561 104.962L129.634 103.276L126.022 97.4972V97.0156Z" fill="#FEB086"/>
<path d="M77.8629 138.674L78.8261 138.914L80.0301 140.6L80.2709 141.804V143.49L79.3077 141.563L79.5485 141.082H79.0669L78.8261 141.804V141.082H78.3445L78.1037 141.563L77.6221 141.804V139.878L77.8629 138.674Z" fill="#FEC388"/>
<path d="M206.208 113.631H206.69L207.172 114.594L205.968 115.316L203.078 117.002H202.356L202.837 116.039L204.523 114.594L206.208 113.631Z" fill="#FEC686"/>
<path d="M156.363 200.559H169.126V200.8L159.734 201.04L155.882 201.281L152.029 201.04V200.8L156.363 200.559Z" fill="#FBA342"/>
<path d="M302.046 231.14L302.528 232.104L303.25 232.344V233.067L304.936 233.308V233.548H298.675L298.916 232.826L299.397 232.585L301.805 232.344L302.046 231.14Z" fill="#FEBECB"/>
<path d="M271.465 234.03H272.91L274.114 234.752V234.993H265.445V234.752L267.612 234.271H270.983L271.465 234.03Z" fill="#191C2C"/>
<path d="M109.407 170.459L110.611 170.7L110.371 171.663L108.444 175.275H106.518L107.481 174.553L108.203 173.83L109.167 170.7L109.407 170.459Z" fill="#FDAD85"/>
<path d="M226.917 107.129H227.399L226.917 108.092L226.195 109.296L224.509 111.223L221.62 113.872L220.897 113.39L223.787 110.741L225.472 109.056L226.917 107.129Z" fill="#EAAE80"/>
<path d="M87.4948 64.5078H88.9396V64.9894L87.254 65.471L86.2908 66.675L84.3644 69.5646L83.8828 69.8054L83.4012 69.5646L83.8828 68.6014L85.3276 66.675L86.05 65.2302L87.4948 64.5078Z" fill="#C57855"/>
<path d="M288.802 108.333H290.97L293.859 109.778L295.304 110.741L294.822 110.982L292.414 109.778L291.21 109.296H288.08L286.635 110.259L286.154 110.019L288.321 108.574L288.802 108.333Z" fill="#50A9B0"/>
<path d="M189.353 200.559H196.577L196.336 201.04L193.928 201.281H188.389L189.353 200.559Z" fill="#FCA748"/>
<path d="M310.233 140.118H311.437L311.919 140.6V141.322H311.437L310.956 142.286H308.548L309.27 142.045L309.029 140.841H309.511V140.359L310.233 140.118Z" fill="#FAAA82"/>
<path d="M84.6053 236.438H89.6621L92.0701 236.679L91.8293 237.401H88.4581L85.0869 236.92L84.6053 236.438Z" fill="#4A263E"/>
<path d="M76.1772 144.212H76.418V146.139H77.8628L78.1036 145.898H80.9932V146.139L78.5852 146.379L80.2708 146.861V147.102L75.4548 147.343L75.214 147.824L74.7324 146.62H76.1772V144.212Z" fill="#FEC386"/>
<path d="M136.858 169.255L139.748 169.978L140.952 170.941L142.397 171.182V171.422H138.785L137.34 170.459L136.858 169.255Z" fill="#243D4E"/>
<path d="M254.609 155.77L255.091 156.733L256.776 157.456L257.98 158.419V158.901L256.295 158.419L254.368 158.901L254.609 155.77Z" fill="#FDBD7E"/>
<path d="M74.2509 141.323L74.7325 142.045L74.2509 142.527L75.4549 143.73L76.1773 144.212V146.62H74.7325L75.2141 146.379V143.971L73.5285 143.49L73.2877 142.286L73.5285 141.563L74.2509 141.323Z" fill="#964F4C"/>
<path d="M77.3812 141.082L77.622 141.804L78.826 142.045V142.526L76.6588 143.49H76.1772L76.418 142.526L75.214 142.286V141.322L77.3812 141.082Z" fill="#FEC388"/>
<path d="M274.114 231.622L275.318 231.863L275.558 233.067L275.318 234.271L274.355 233.789L274.114 232.344L272.428 233.307H271.224L272.428 232.103L274.114 231.622Z" fill="#191C2C"/>
<path d="M77.8628 141.082H79.5484L79.7892 142.045L80.2708 143.73L79.5484 144.453L78.826 144.212L79.0668 143.73H78.1036L77.8628 143.008L78.826 142.526L78.5852 142.045L77.8628 141.804V141.082Z" fill="#FEC388"/>
<path d="M7.06799 231.622L12.6064 233.307L13.5696 234.03L9.23518 233.548L7.54959 232.585L7.06799 231.622Z" fill="#F66765"/>
<path d="M44.151 236.679H53.0605V236.92L46.3182 237.401L43.4286 237.642L44.151 236.679Z" fill="#4A263E"/>
<path d="M132.283 211.154H132.765V217.415L132.283 220.064L131.802 220.304L132.283 211.154Z" fill="#FEC584"/>
<path d="M151.066 169.978L151.547 170.7L149.621 172.145L148.417 172.386L148.898 171.422L147.454 171.663L147.935 170.218L148.898 170.459L151.066 169.978Z" fill="#87D5ED"/>
<path d="M231.974 157.456V158.178L230.77 159.864L230.047 162.513L229.084 163.235L225.954 163.717V162.994L228.603 162.754L229.566 162.272L230.047 159.382L231.974 157.456Z" fill="#3F777D"/>
<path d="M306.381 142.526H313.364L312.882 143.249L311.197 143.73L309.511 143.971L308.548 143.008L306.381 142.767V142.526Z" fill="#FDAF80"/>
<path d="M244.495 63.5447L245.699 63.7855L246.663 65.4711V68.1198L246.181 69.3238L245.94 68.6014V66.9159L244.495 64.0263V63.5447Z" fill="#FEAF89"/>
<path d="M246.422 236.438H250.997V236.679L247.867 236.92L247.626 237.16L255.572 237.401V237.642H245.218L246.181 236.92L246.422 236.438Z" fill="#964F4C"/>
<path d="M8.51294 232.104L11.1617 232.344L15.4961 233.789L15.9777 234.271L17.6633 234.752L16.7001 234.993L13.0881 233.789L9.23533 232.585L8.51294 232.104Z" fill="#F66765"/>
<path d="M213.432 170.7V171.422L212.951 172.145V172.867L213.192 172.386L213.914 172.626L213.432 173.83H211.506V172.867L212.228 171.904L210.784 173.108L211.265 171.904L213.432 170.7Z" fill="#82CCD4"/>
<path d="M262.074 161.79L262.796 162.031L263.519 164.439L262.074 164.921L261.111 163.717V162.994H261.833L262.074 161.79Z" fill="#FDE9DC"/>
<path d="M107.481 64.0261L108.444 64.2669L107.481 64.7485L107.963 64.9893V65.4709L108.203 66.1933L107.24 67.6381L106.277 66.6749V64.7485L107.481 64.0261Z" fill="#FBA74A"/>
<path d="M19.108 233.307L20.7936 234.752L21.7568 235.956L19.5896 235.475L18.6264 235.234V234.752L17.1816 234.511V234.271L18.6264 234.03L19.108 233.307Z" fill="#F66765"/>
<path d="M115.668 236.679L121.447 236.92L122.411 237.401L117.354 237.642L114.224 237.401L114.705 236.92L115.668 236.679Z" fill="#4E283E"/>
<path d="M66.0638 161.79L68.231 162.272L69.435 163.476L69.1942 163.957L67.5086 163.476L67.2678 163.235L65.3414 162.994L66.0638 161.79Z" fill="#E9F0FD"/>
<path d="M77.3813 137.951L78.3445 138.674H77.8629L77.6221 141.082L75.9365 141.563L74.4917 141.322L75.6957 140.359L77.3813 139.155V137.951Z" fill="#964F4C"/>
<path d="M255.091 150.954H258.703L263.519 151.436V151.677H257.017L254.609 151.436L255.091 150.954Z" fill="#7FD1EB"/>
<path d="M43.4287 234.511L44.3918 234.993L44.6326 235.956H37.4087V235.715L42.2247 235.234H43.6695L43.4287 234.511Z" fill="#F66765"/>
<path d="M283.505 62.0999L284.468 62.5815L285.672 66.4342L289.766 67.879L290.488 68.1198V68.6014L287.598 67.879L285.19 66.675L283.986 63.063L283.505 62.0999Z" fill="#DD9A6A"/>
<path d="M212.228 171.663L212.71 171.904L211.265 173.589H205.968L203.801 173.349L205.245 172.626V173.108L206.69 172.867L207.653 173.108L208.857 172.867V173.349H210.302L210.543 172.385L211.024 172.867L212.228 171.663Z" fill="#369697"/>
<path d="M67.7493 161.068L69.1941 161.309L69.9165 163.476V164.921L69.4349 164.68L68.9533 162.994L66.7861 162.031L66.0637 161.309L67.7493 161.068Z" fill="#BFDC64"/>
<path d="M119.039 100.146L120.003 100.387L122.17 103.276L121.929 103.999L120.484 102.795L119.521 101.591L119.039 101.35V100.868H118.558V100.387L119.039 100.146Z" fill="#002F6C"/>
<path d="M205.245 130.487H206.69L209.098 131.45V132.413L207.653 131.931L205.245 131.691L205.005 130.727L205.245 130.487Z" fill="#40A5B0"/>
<path d="M145.527 111.704L146.49 111.945L147.454 114.112L147.213 115.076L146.25 114.594L145.768 114.112L145.527 111.704Z" fill="#FEC086"/>
<path d="M307.103 233.307H309.029L309.27 234.271L308.789 234.511H306.14L305.417 233.789V233.548L307.103 233.307Z" fill="#FDFBFB"/>
<path d="M210.543 170.459L212.71 170.7L210.784 172.626L210.302 173.349H208.857L209.58 172.145L210.543 171.904V171.422L210.061 171.181H210.543V170.459Z" fill="#51A5A0"/>
<path d="M144.564 27.6655H145.046L144.805 28.3879L142.397 30.3143L141.434 29.8327L140.47 29.1103V28.3879L141.674 28.8695H142.878L144.564 27.6655Z" fill="#26202F"/>
<path d="M78.3444 234.271H78.5852V235.475H87.0132V234.993L89.662 235.475V235.716H78.1036L78.3444 234.271Z" fill="#FDAC7C"/>
<path d="M35.0007 230.177L37.6495 230.418L39.3351 231.381L39.8167 231.863L39.5759 232.585L36.6863 231.14L35.0007 230.418V230.177Z" fill="#FDFDFD"/>
<path d="M16.2186 171.181L16.941 172.145L17.1818 172.626L17.9042 173.349L17.6634 174.312H16.2186L15.9778 174.071V171.663L16.2186 171.181Z" fill="#BFDC64"/>
<path d="M181.165 138.674H182.851L182.369 140.6H181.888L182.129 141.563L181.406 141.804L180.925 142.526L181.165 141.322V140.841V138.674Z" fill="#FDAF81"/>
<path d="M139.026 171.663L139.748 172.626L140.711 173.108L140.952 172.867H144.805L145.046 173.349L139.026 173.589V171.663Z" fill="#4EADBB"/>
<path d="M257.739 154.807H258.462V155.289L259.425 155.77L260.388 157.215L260.629 158.178H260.147L259.666 156.974H259.184L258.943 156.734V158.419H258.462L258.221 155.53H257.739V154.807Z" fill="#F1C3A0"/>
<path d="M312.641 140.359L313.123 140.6V142.045H316.494V142.286L311.437 142.526L311.919 140.841L312.641 140.359Z" fill="#5E3141"/>
<path d="M258.943 163.717H260.87L261.833 165.161H259.184L258.943 163.717Z" fill="#181B2B"/>
<path d="M8.75372 134.821H10.1985L9.71692 135.784L8.99452 136.506H8.51292L8.27212 137.71L7.79053 136.988V135.543L8.75372 134.821Z" fill="#FDBA81"/>
<path d="M275.077 35.1304H275.799L276.281 35.8528L276.04 37.0568L274.836 38.2608L273.873 38.7423L274.354 37.7792L274.836 37.2976L275.077 35.1304Z" fill="#3FA5B1"/>
<path d="M141.193 173.349H143.842L143.119 173.83L140.711 174.312H138.303V173.589L141.193 173.349Z" fill="#E8964C"/>
<path d="M250.636 233.006L252.321 233.247L252.081 234.21L250.154 234.451H249.191L249.673 233.488L250.636 233.006Z" fill="#1E1C2D"/>
<path d="M233.178 132.895L233.9 133.135L234.382 134.099L234.141 135.543L233.178 135.784L232.937 135.543V133.376L233.178 132.895Z" fill="#FEC186"/>
<path d="M26.0912 130.487L26.8136 130.727V131.45H26.332V132.895H25.8504V132.413L24.4056 132.172L24.8872 130.968L26.0912 130.487Z" fill="#FCB387"/>
<path d="M289.525 119.651L291.21 119.891V120.614L289.043 121.095L287.358 120.614L287.839 120.132L289.525 119.651Z" fill="#FEB8C1"/>
<path d="M212.469 84.2532L213.673 84.494L213.914 85.698L213.432 86.902L212.71 86.6612L212.228 85.698V84.494L212.469 84.2532Z" fill="#FEAE86"/>
<path d="M304.936 83.7715H306.621L306.14 84.7347L304.695 85.6979H303.973L303.732 84.9755L304.936 83.7715Z" fill="#2B8383"/>
<path d="M58.5989 80.6411L59.5621 80.8819L60.7661 82.0859L62.6925 82.8083V83.2899L60.7661 83.0491L59.3213 82.8083V82.3267H59.8029L58.5989 81.1227V80.6411Z" fill="#4FB3C9"/>
<path d="M254.609 227.769L255.091 228.251V230.899L254.85 232.103L254.368 231.622L253.887 231.863L254.127 228.973L254.609 227.769Z" fill="#27918D"/>
<path d="M8.51289 228.491H11.4025L13.0881 228.973L14.5329 229.455V229.695H12.6065L11.4025 229.214L8.27209 228.973L8.51289 228.491Z" fill="#FBB9A8"/>
<path d="M92.5515 116.279H93.0331L93.2739 117.002L91.1067 118.206L90.1435 118.687H89.4211L89.9027 117.724L92.5515 116.279Z" fill="#2B6773"/>
<path d="M124.096 107.129L124.819 107.37L125.059 108.333H125.541L124.578 110.741H124.096V107.129Z" fill="#002F6C"/>
<path d="M89.662 91.9587L90.6252 92.4403L91.1068 93.4035L90.6252 93.6443L90.1436 94.6075L89.1804 94.1259L89.4212 92.1995L89.662 91.9587Z" fill="#254A57"/>
<path d="M29.7031 228.01L29.9439 228.491H34.5191L34.7599 229.455L31.3887 229.214L29.7031 228.732V228.01Z" fill="#439D9A"/>
<path d="M208.857 212.117H210.061V214.284L208.857 214.525L208.616 214.284V212.358L208.857 212.117Z" fill="#3C2736"/>
<path d="M143.36 195.502H144.564L144.805 196.706L144.082 197.429L143.119 197.188L142.878 195.984L143.36 195.502Z" fill="#271F30"/>
<path d="M238.235 71.0093L239.92 71.4909L239.68 71.9725H239.198L238.957 73.1765L237.994 74.1397H237.512L238.235 71.0093Z" fill="#FBA74C"/>
<path d="M76.418 143.971L78.3444 144.934L78.1036 146.62L77.8628 146.138H76.418V143.971Z" fill="#FEC686"/>
<path d="M269.057 128.319L269.539 129.042L268.816 131.209L268.094 132.413L267.371 131.691L267.853 130.487L268.816 129.283L269.057 128.319Z" fill="#82494B"/>
<path d="M111.575 78.9556L112.538 79.1964L113.26 82.0859L113.019 82.8083L111.575 80.6412V78.9556Z" fill="#FCA748"/>
<path d="M255.572 231.14L259.666 231.622V232.104L258.943 232.344H255.091V232.104L256.295 231.863L255.572 231.622V231.14Z" fill="#002F6C"/>
<path d="M89.662 158.66L90.3844 159.623L91.3476 163.476L89.9028 162.994L90.1436 162.031L89.9028 161.79V160.105L89.662 158.66Z" fill="#FDAD85"/>
<path d="M269.057 229.936H273.391L274.114 230.177V230.659H271.706L269.057 230.418V229.936Z" fill="#002F6C"/>
<path d="M136.377 24.7759H137.099L137.581 25.7391L137.34 26.4615L134.21 25.7391L134.691 25.2575L136.377 24.7759Z" fill="#FEC285"/>
<path d="M59.0805 45.9663H59.3213L59.5621 49.0967L58.599 49.5783L58.3582 47.6519L58.599 46.2071L59.0805 45.9663Z" fill="#74BCB7"/>
<path d="M309.029 228.973H309.27V231.863L309.029 233.308H307.103L306.862 232.585L308.789 232.104L309.029 228.973Z" fill="#FEB8C2"/>
<path d="M33.556 230.418L36.4456 230.659L37.8904 231.622L36.9272 231.863L34.5192 231.381V230.9L33.556 230.418Z" fill="#FEB5AE"/>
<path d="M89.1803 157.215H89.6619L89.1803 158.178L87.7355 160.105L87.4948 159.382L87.7355 157.697L89.1803 157.215Z" fill="#BFDC64"/>
<path d="M70.6389 147.343H72.3245L71.6021 147.824L68.4717 149.028L66.7861 149.751V149.269L69.1941 147.824L70.6389 147.343Z" fill="#A3CB38"/>
<path d="M22.9608 100.868L23.6832 101.109L23.924 102.554H24.4056L24.6464 104.962H23.924L23.2016 101.832L22.9608 100.868Z" fill="#40A5AE"/>
<path d="M57.3951 44.5215H57.6359L57.8767 46.4479H55.7095L56.1911 45.2439L57.3951 44.5215Z" fill="#54AAA8"/>
<path d="M211.747 169.978H213.673L213.432 170.941L212.71 171.422L211.747 171.182V170.941L210.784 170.7V170.218L211.747 169.978Z" fill="#2A8D8B"/>
<path d="M254.85 151.677H261.592V151.918L256.776 152.158L256.535 152.399H255.091L254.85 153.122V151.677Z" fill="#223246"/>
<path d="M30.9072 229.936L33.0744 230.659L32.8336 231.381L31.3888 231.622H30.6664L30.9072 229.936Z" fill="#FCAA7B"/>
<path d="M106.518 215.007H107.24L107.481 216.452L107.24 216.692H105.555V216.211L105.073 215.97L106.277 215.248L106.518 215.007Z" fill="#E6F7FB"/>
<path d="M178.757 56.3206L179.239 56.5614L177.313 58.0061L174.905 59.6917L174.423 59.4509L177.313 57.043L177.794 56.5614L178.757 56.3206Z" fill="#FDC186"/>
<path d="M162.142 8.64246L162.624 9.36485V10.5688H163.105L163.346 11.532H164.55V11.7728L162.383 12.2544L162.142 10.5688V8.64246Z" fill="#FDBE80"/>
<path d="M143.36 212.117L144.805 212.358L144.082 214.525H143.119L143.36 212.117Z" fill="#5F3341"/>
<path d="M254.368 160.586L255.331 161.55V162.031L257.258 162.272L258.462 162.754V162.994H257.017L254.368 162.272V160.586Z" fill="#FEC78E"/>
<path d="M157.567 3.10413H158.049V4.06732L155.882 3.82652V4.30812L154.437 3.82652L154.678 3.34492L157.567 3.10413Z" fill="#DF845B"/>
<path d="M301.805 232.344L302.046 232.826L301.805 233.307L298.675 233.548L298.916 232.826L299.397 232.585L301.805 232.344Z" fill="#FDAD80"/>
<path d="M35.4823 135.784L35.9639 136.025L34.7599 137.711L32.8336 138.433L31.8704 137.951L34.7599 136.747L35.4823 135.784Z" fill="#BFDC64"/>
<path d="M145.046 170.459H147.935L147.454 171.422L143.842 170.941V170.7L145.046 170.459Z" fill="#81C0AD"/>
<path d="M198.503 125.911L198.744 126.634L196.577 129.042H195.854L196.336 128.079L198.503 125.911Z" fill="#F7BD78"/>
<path d="M179.721 20.9232H180.202L179.721 23.3312L179.239 24.2944L178.517 23.572L178.998 22.368L179.721 20.9232Z" fill="#FEBF81"/>
<path d="M208.616 195.743H210.061L210.302 196.706L208.135 196.947V195.984L208.616 195.743Z" fill="#2C2131"/>
<path d="M130.598 202.967L132.283 203.448V205.134L131.32 204.652L130.598 203.689V202.967Z" fill="#EFFAFC"/>
<path d="M148.176 171.422H148.898L148.417 172.386H147.213L146.009 172.867L146.25 172.145L145.286 171.904L145.768 171.663L148.176 171.422Z" fill="#46AFC8"/>
<path d="M74.2509 141.323L74.7325 142.045L74.2509 142.527L75.2141 143.49V143.971L73.5285 143.49L73.2877 142.286L73.5285 141.563L74.2509 141.323Z" fill="#984E4C"/>
<path d="M264.722 151.677H265.926L266.408 154.566L265.686 154.326L265.926 153.603H265.445L264.722 152.158V151.677Z" fill="#191E2F"/>
<path d="M218.489 77.5107H218.73V79.1963L218.489 80.4003L217.526 79.9187L217.767 78.4739L218.489 77.5107Z" fill="#FFC787"/>
<path d="M16.4591 236.919H19.5895L20.0711 237.642H16.4591V236.919Z" fill="#233347"/>
<path d="M340.092 236.438L341.296 236.679L341.537 237.642H339.611V236.679L340.092 236.438Z" fill="#5D3240"/>
<path d="M275.558 230.177H275.799L275.558 232.344L275.318 231.863L274.114 231.622L274.354 230.659L275.558 230.177Z" fill="#002F6C"/>
<path d="M129.875 228.973L130.116 229.696L136.136 229.936V230.177H129.394V229.696H129.875V228.973Z" fill="#FEBE84"/>
<path d="M134.691 178.165L135.655 178.405V179.128H133.487L131.802 178.887V178.646L134.691 178.165Z" fill="#FBFCFD"/>
<path d="M139.989 170.218L142.156 170.459L143.842 170.941L143.36 171.422L140.952 171.181L139.989 170.218Z" fill="#2F9594"/>
<path d="M311.438 141.323L311.678 142.286L310.715 142.767H308.789L308.066 142.527V142.045L307.344 141.804L307.826 141.563L308.548 142.045H310.956L311.438 141.323Z" fill="#FAAA82"/>
<path d="M310.715 202.004H312.882V202.244L311.197 202.485L310.474 202.726V207.301H310.233V202.244L310.715 202.004Z" fill="#FDFDFD"/>
<path d="M80.5116 233.067H82.9195L82.6788 233.548L80.03 233.789L79.0668 234.03V233.307L80.5116 233.067Z" fill="#FCA748"/>
<path d="M213.673 170.7H214.877L213.673 172.386H213.192L212.951 173.108L212.71 172.145L213.673 170.7Z" fill="#459794"/>
<path d="M29.2216 68.6013L30.1848 68.8421L30.9071 69.5645L30.4256 70.5277L29.4624 70.0461L29.2216 68.6013Z" fill="#274A57"/>
<path d="M57.8766 42.3542H59.803L59.3214 42.595V43.3174H58.8398L58.599 44.0398L57.8766 44.7622L58.1174 43.5582L58.3582 43.0766H57.8766V42.3542Z" fill="#7FD0E7"/>
<path d="M136.858 169.255L139.748 169.978L139.266 170.941L137.34 170.459L136.858 169.255Z" fill="#2A8A88"/>
<path d="M74.4917 141.323H75.2141V142.767H75.9365V143.249L74.7325 143.49L74.0101 142.286L74.4917 141.804V141.323Z" fill="#FEC388"/>
<path d="M268.575 231.863H271.706L272.428 232.344L271.224 233.307H270.742L270.983 232.344L268.575 232.103V231.863Z" fill="#191C2C"/>
<path d="M156.363 200.559H157.326L157.086 201.281L152.029 201.04V200.8L156.363 200.559Z" fill="#FBA545"/>
<path d="M291.451 108.815L292.655 109.055L295.304 110.741L294.822 110.982L291.933 109.537L291.451 108.815Z" fill="#359999"/>
<path d="M60.0437 231.622L60.2845 232.344L58.3581 232.826L57.6357 232.344L58.3581 231.863L60.0437 231.622Z" fill="#F9FCFD"/>
<path d="M140.952 171.422H142.156V171.904L142.878 171.663L143.119 172.386L141.193 172.626L140.952 171.422Z" fill="#3B9B9B"/>
<path d="M255.572 155.048H257.499L257.258 156.252L255.813 155.77L255.572 155.048Z" fill="#181B2B"/>
<path d="M338.166 138.433H340.333V139.155H337.925L338.166 138.433Z" fill="#379A9A"/>
<path d="M28.2583 130.727L28.7399 130.968L28.2583 132.654H27.2951L27.0543 131.69L27.7767 131.45L28.2583 131.69V131.209L27.7767 130.968L28.2583 130.727Z" fill="#FCB387"/>
<path d="M277.003 83.29L277.485 83.7716L276.281 86.902L275.799 87.1428L276.281 84.9756H276.762V83.7716L276.281 83.5308L277.003 83.29Z" fill="#FDECEE"/>
<path d="M272.428 232.104H273.632L273.391 232.826L272.428 233.308H271.224L272.428 232.104Z" fill="#191C2C"/>
<path d="M145.046 172.145L146.491 172.626L147.695 172.145L148.417 172.626L146.731 173.108H144.805L145.046 172.145Z" fill="#77CCE2"/>
<path d="M205.245 130.487L206.449 130.727L206.931 131.45L205.245 131.691L205.005 130.727L205.245 130.487Z" fill="#254E5C"/>
<path d="M332.628 233.548L334.313 234.03L334.795 234.993H334.313V235.475L333.109 234.993L333.832 234.512L332.628 233.789V233.548Z" fill="#EBA073"/>
<path d="M261.592 231.863H261.833V233.307H263.759L263.037 233.789H262.315V234.511H261.833L261.592 234.03V231.863Z" fill="#A6E7F4"/>
<path d="M257.499 232.344H258.943L258.462 232.826L257.017 233.307H255.572V232.826L257.499 232.344Z" fill="#1E1C2D"/>
<path d="M29.2216 224.639L29.944 224.879V226.565L29.4624 227.528L29.2216 227.047V224.639Z" fill="#429EA0"/>
<path d="M263.518 164.198L264.241 164.68V165.402H262.314V164.68L263.518 164.198Z" fill="#8CD6E6"/>
<path d="M46.7998 135.062H47.2814L47.0406 136.747L45.5958 136.266V135.784H46.3182V135.303L46.7998 135.062Z" fill="#FEB4A2"/>
<path d="M178.276 23.5719H178.757L178.998 24.5351H180.443V24.7759H177.553L178.035 23.8127L178.276 23.5719Z" fill="#FCF3EC"/>
<path d="M299.398 233.789H301.565L302.046 234.271L301.324 234.511L298.916 234.271L299.398 233.789ZM302.046 233.789L302.769 234.03H302.046V233.789Z" fill="#FEB5AF"/>
<path d="M78.826 233.067H80.5116V233.307L79.0668 233.548V234.271H78.3444V235.475H78.1036V233.307L78.826 233.067Z" fill="#DEC18C"/>
<path d="M38.6127 178.405H39.3351V181.536H39.0943L38.6127 179.85V178.405Z" fill="#305F9D"/>
<path d="M23.924 95.5708L24.6464 95.8116L24.4056 96.7748L23.924 97.9788H23.4424L23.6832 96.0524L23.924 95.5708Z" fill="#35969E"/>
<path d="M89.4212 64.7485H90.866V65.4709L89.9028 65.2301L88.9396 66.4341H88.458L88.9396 65.2301L89.4212 64.7485Z" fill="#E19058"/>
<path d="M265.204 165.402L265.927 165.643V166.125H261.592V165.884L264.482 165.643L265.204 165.402Z" fill="#191B2B"/>
<path d="M258.462 159.382L259.184 159.623L259.906 162.272L259.184 162.031L258.462 160.346V159.382Z" fill="#F8932F"/>
<path d="M258.221 156.011H258.462L258.943 159.864L257.98 158.66L257.499 157.938L257.98 157.697L258.221 156.011Z" fill="#B94950"/>
<path d="M77.6219 149.269L78.3443 149.51L76.8995 150.473L75.6956 150.954L75.9364 149.991L77.6219 149.269Z" fill="#FEC386"/>
<path d="M313.364 138.192L313.846 138.433V139.878L313.364 140.359H312.642V139.155L312.16 138.915L312.882 138.674L313.364 139.396V138.192Z" fill="#FAAA82"/>
<path d="M98.09 115.798L98.3308 116.52L97.1268 117.724L96.1636 117.483V117.002L97.3676 116.52L98.09 115.798Z" fill="#2B6C74"/>
<path d="M129.875 101.109H131.561V101.832L129.875 102.313L129.635 101.35L129.875 101.109Z" fill="#002F6C"/>
<path d="M78.224 145.867H81.6855L81.0835 146.168L78.224 146.469V145.867Z" fill="#994D4C"/>
<path d="M24.3455 135.333L25.7752 136.386L27.2049 137.44L29.4624 136.838V138.458H26.8463L24.6465 138.042L24.3455 135.333Z" fill="#FCB387"/>
<path d="M68.9631 169.421C69.1136 169.872 72.5751 169.872 72.5751 169.872V174.387H69.2641L67.7591 171.904C68.0933 170.793 68.8126 168.969 68.9631 169.421Z" fill="#D9ED8C"/>
<path d="M266.649 229.365C267.552 228.612 274.475 230.719 274.475 230.719L274.926 231.472L273.233 231.773H271.239L267.702 231.923C267.702 231.923 266.987 232.224 266.95 232.074C266.912 231.923 265.746 230.117 266.649 229.365Z" fill="#002F6C"/>
</svg>
