<svg width="306" height="307" viewBox="0 0 306 307" fill="none" xmlns="http://www.w3.org/2000/svg">
<path d="M221.122 20.1494H229.433L235.478 22.4161L238.878 24.6827L240.767 26.1939L244.167 30.7272L246.056 36.0161V43.1939L244.544 49.2383L241.9 56.0383L239.633 62.4605L238.878 66.2383V70.3939L241.144 71.1494V73.4161L240.389 75.305L241.522 77.5716L247.189 82.8605L249.078 83.9939L251.722 88.905L252.856 91.1716L253.611 96.0827L253.989 96.8383H257.389L265.322 99.8605L271.367 103.261L276.656 107.038L281.567 111.194L284.967 114.972L289.122 120.638L293.656 128.572L297.811 138.016L300.833 146.327L303.478 155.394L304.989 161.816L305.367 167.861L304.233 177.305L301.967 188.261L299.322 198.838L296.3 209.416L292.522 221.127L286.1 240.016L278.544 260.794L273.256 274.394L267.589 288.372L263.811 297.438L262.3 300.838L261.544 301.216H213.567L207.144 300.838L206.389 300.461L206.011 302.727L202.233 304.238L193.544 305.372L170.122 306.883H139.144L118.367 305.372L113.833 304.616L112.7 304.238L112.322 303.483V299.705L114.211 283.838L116.856 267.216L118.367 261.172L120.256 261.927L121.389 263.816L123.278 265.327H124.789L124.411 263.061L122.9 260.038L122.522 258.149H123.656L127.433 263.061L128.189 264.949H131.211L130.078 261.549L127.433 257.394L127.811 256.261L130.078 257.016L130.833 258.527L132.722 260.416L134.233 262.683L134.611 263.816L136.878 264.194L137.256 263.816V261.549L134.233 256.261L131.589 252.105L132.344 251.727L135.744 254.372L138.011 257.016L139.144 258.905H140.656L140.278 255.505L136.5 249.461L131.967 244.927L131.211 244.549V243.794L129.322 243.038V242.283L127.811 241.527L124.033 238.505L121.767 233.972V227.549L121.011 224.149L119.5 209.416L118.367 206.016L114.589 192.794L113.833 190.527L111.944 183.727V182.972H110.811L110.056 184.483L106.278 187.883L104.011 189.772L99.8556 193.927V196.572L101.367 200.349L104.767 207.527L106.278 210.172L107.411 212.438V213.194H108.167L110.056 217.349V218.105H110.811L116.1 229.061V232.083L112.7 235.861L109.3 238.505L103.256 241.149L100.611 241.905H98.7222L96.4556 240.016L93.8111 236.994L89.6556 232.461L86.2556 228.305L82.4778 224.149L78.7 219.238L75.3 214.327L72.2778 209.038L69.6334 201.105L68.8778 195.816V192.794L70.0111 187.127L71.5223 182.594L73.7889 178.061L75.3 174.283L77.1889 170.505H77.9445L78.3223 168.994L81.7223 161.816L84.3667 157.283L84.7445 156.149H85.5L85.8778 154.638L86.2556 153.505H87.0111L87.3889 151.616L90.4111 146.705H91.1667L91.5445 145.194L93.8111 141.794H94.5667V140.661H95.3223L96.0778 138.772L100.989 133.105L105.144 129.327L108.922 127.061L115.344 124.038L119.122 122.527L126.3 120.261L131.967 118.749H134.989L136.878 109.305L138.011 99.4827V98.7272L134.611 97.9716L133.1 95.705L131.211 88.905L128.189 80.9716L127.056 76.0605L126.678 72.2827V68.8827L127.433 63.5939L128.567 61.3272L131.967 57.5494L137.256 53.7716L141.033 51.8827L148.211 48.105L152.744 46.2161L155.389 45.8383L155.767 46.9716L155.389 47.7272L161.433 46.5939L166.722 46.9716L168.989 45.4605L176.922 45.8383L181.833 47.3494L184.478 48.8605L187.878 51.8827L192.411 57.9272L197.7 64.3494L201.856 68.8827L204.878 72.2827L207.9 74.9272L212.433 78.705L217.722 82.4827L220.744 84.3716L223.767 85.8827L224.144 86.6383L224.9 91.5494V93.4383H225.656L224.522 88.1494L224.144 82.8605L222.633 77.9494V77.1939L221.122 76.8161L219.989 76.0605L220.367 74.5494L222.256 73.7939L220.744 69.6383L218.478 65.8605L213.944 60.9494L210.544 57.1716L206.767 51.8827L203.744 45.8383L202.989 42.4383V37.5272L204.5 32.9939L206.767 29.2161L210.167 25.4383L213.944 22.7939L218.478 20.905L221.122 20.1494Z" fill="#BFDC64"/>
<path d="M138.767 50.3718L140.656 50.7496L139.522 53.0163L135.367 55.2829L131.211 58.6829L128.567 61.7052L127.433 65.1052L127.056 68.8829V72.2829L127.811 77.9496L129.7 84.3718L131.967 89.6607L133.478 95.7052L134.611 97.5941L138.011 98.3496L138.389 99.4829L137.256 109.305L135.744 116.861L134.989 118.75L128.944 119.883L119.122 122.905L114.211 124.794L107.789 128.194L104.389 130.461L99.8556 134.616L95.7 139.905L95.3222 140.661H94.5667V141.794L93.0555 143.305L91.1667 146.705H90.4111L89.6555 148.594L87.3889 152.372L87.0111 153.505H86.2556L85.8778 155.016L85.5 156.15H84.7444L84.3667 158.039L82.1 161.816L78.7 168.994L77.9444 170.505H77.1889L76.4333 172.772L74.5444 176.55L73.4111 179.572L71.9 182.594L70.0111 188.261L69.2556 192.794L69.6333 198.839L71.1444 204.883L73.4111 210.55L75.6778 214.327L78.3222 218.105L82.1 223.016L91.1667 233.594L96.4556 239.261L98.7222 241.527L101.744 241.15L107.789 238.883L111.944 236.239L114.967 233.216L115.722 232.083V229.061L110.811 218.861V218.105H110.056L108.167 213.95V213.194H107.411L104.767 207.905L101.367 201.483L99.8556 197.327L99.4778 196.572V193.927L102.878 190.527H103.633L104.011 189.394L107.033 186.75L110.433 183.727L110.811 182.972H111.944L114.211 190.527L116.478 198.461L118.744 206.016L119.878 209.416L121.389 224.15L122.144 227.55V233.972L124.411 238.505L128.189 241.527L129.322 242.283V243.039L131.211 243.794V244.55L132.722 245.305L136.878 249.461L140.656 255.505L141.033 258.905L139.522 259.661L138.011 258.15L136.5 255.505L133.1 252.483H131.967L135.367 257.394L137.633 261.55V263.816L136.878 264.572L135.367 264.194L133.478 262.305L131.589 259.661V258.905L130.456 258.527L130.078 257.016L127.811 256.639L128.567 258.527L131.211 263.061L131.589 264.95L131.211 265.327H128.944L127.433 263.816L123.656 258.527H122.9L124.033 261.55L125.167 264.194L124.789 265.705L122.522 265.327L120.256 263.061V261.927L118.367 261.172L116.478 271.372L113.833 289.505L112.322 303.483H111.944V301.216H79.8333L48.1 300.839L45.4556 300.083L43.5667 290.639L39.7889 261.927L37.1444 248.705L34.5 238.883L31.8556 230.95L28.8333 224.527L26.1889 221.127L23.9222 218.483L22.7889 217.727V216.972L21.2778 216.216L16.7444 213.572L11.8333 211.305L8.05556 209.039L5.78889 205.639L3.52222 201.105L2.01111 193.927L0.877778 182.972L0.5 173.15V162.194L1.25556 147.083L2.76667 130.461L4.65556 117.994L7.3 106.283L9.56667 99.4829L11.0778 97.2163L14.8556 93.8163L25.8111 88.1496L33.7444 84.7496L48.1 79.0829L64.7222 72.6607L74.5444 69.2607L90.0333 63.9718L107.789 58.3052L126.3 53.0163L131.967 51.8829L136.5 50.7496L138.767 50.3718Z" fill="#BFDC64"/>
<path d="M155.011 45.8384L155.767 46.2162L155.389 47.7273L161.433 46.5939L165.211 46.9717L168.233 49.6162V52.2606L166.722 53.3939H165.967V54.1495L170.878 53.7717L174.656 54.905L177.3 57.1717L178.056 59.0606V62.4606L176.544 65.105L173.9 67.7495L170.878 70.0162L169.744 70.3939L170.122 77.9495V97.5939L168.989 101.372L166.722 104.772L164.078 107.038L160.678 108.172H159.922L161.056 115.727L161.811 117.238V118.372L168.611 118.749L177.3 120.261L181.078 121.016L184.478 122.149L189.389 124.038L195.433 127.061L199.967 130.461L206.011 135.372L212.433 140.661L216.211 143.683V144.438L218.1 145.194L218.856 146.705L220.744 147.461L221.5 148.972L223.011 149.727L228.3 153.883V154.638H229.433V155.394H230.189L230.567 149.727L232.078 134.238L233.589 121.394L235.1 113.838L235.478 113.083L237.367 112.705H242.656L249.078 113.838L252.856 115.349L256.256 117.616L256.633 117.994L257.389 128.194V164.461L256.633 173.149L255.122 178.438L253.611 181.461L250.211 184.861L245.678 186.749L243.789 187.127H235.1L227.167 185.616L219.233 182.972L214.7 181.083L209.033 178.816L206.389 177.305L202.611 175.794L199.211 173.905L199.589 182.594V221.505L198.078 224.527L197.7 232.838L196.189 234.349L194.678 234.727L193.922 227.927L188.633 228.683L189.011 235.861L186.744 236.616L179.189 237.372H175.411L175.033 230.949H173.9L174.278 236.994L172.011 237.749L159.544 238.127L158.789 231.705L158.411 238.505H140.656L139.144 237.749V231.327L134.989 231.705L134.233 238.127L125.167 237.372L122.9 236.238L121.767 233.972V227.549L121.011 224.149L119.5 209.416L118.367 206.016L114.589 192.794L113.833 190.527L111.944 183.727V182.972H110.811L110.056 184.483L106.278 187.883L104.011 189.772L99.8556 193.927V196.572L101.367 200.349L104.767 207.527L106.278 210.172L107.411 212.438V213.194H108.167L110.056 217.349V218.105H110.811L116.1 229.061V232.083L112.7 235.861L109.3 238.505L103.256 241.149L100.611 241.905H98.7223L96.4556 240.016L93.8111 236.994L89.6556 232.461L86.2556 228.305L82.4778 224.149L78.7 219.238L75.3 214.327L72.2778 209.038L69.6334 201.105L68.8778 195.816V192.794L70.0111 187.127L71.5223 182.594L73.7889 178.061L75.3 174.283L77.1889 170.505H77.9445L78.3223 168.994L81.7223 161.816L84.3667 157.283L84.7445 156.149H85.5L85.8778 154.638L86.2556 153.505H87.0111L87.3889 151.616L90.4111 146.705H91.1667L91.5445 145.194L93.8111 141.794H94.5667V140.661H95.3223L96.0778 138.772L100.989 133.105L105.144 129.327L108.922 127.061L115.344 124.038L119.122 122.527L126.3 120.261L131.967 118.749H134.989L136.878 109.305L138.011 99.4828V98.7273L134.611 97.9717L133.1 95.705L131.211 88.905L128.189 80.9717L127.056 76.0606L126.678 72.2828V68.8828L127.433 63.5939L128.567 61.3273L131.967 57.5495L137.256 53.7717L141.033 51.8828L148.211 48.105L152.744 46.2162L155.011 45.8384Z" fill="#002F6C"/>
<path d="M191.656 227.927H193.922L194.678 230.949L195.056 234.349L197.322 233.594L198.456 235.861L202.233 257.016L203.367 265.705L205.633 289.505L206.389 298.572V301.972L205.256 303.105L202.233 304.238L193.544 305.372L170.122 306.883H139.144L118.367 305.372L113.833 304.616L112.7 304.238L112.322 303.483V299.705L114.211 283.838L116.856 267.216L118.367 261.172L120.256 261.927L121.389 263.816L123.278 265.327H124.789L124.411 263.061L122.9 260.038L122.522 258.149H123.656L127.433 263.061L128.189 264.949H131.211L130.078 261.549L127.433 257.394L127.811 256.261L130.078 257.016L130.833 258.527L132.722 260.416L134.233 262.683L134.611 263.816L136.878 264.194L137.256 263.816V261.549L134.233 256.261L131.589 252.105L132.344 251.727L135.744 254.372L138.011 257.016L139.144 258.905H140.656L140.278 255.505L136.5 249.461L131.967 244.927L131.211 244.549V243.794L129.322 243.038V242.283L127.811 241.527L124.033 238.505L123.278 236.616L128.189 237.372L133.1 237.749L134.233 238.127V234.349L134.611 231.705L134.989 231.327H139.144L139.522 237.749L140.656 238.127L158.411 238.505V231.705L159.167 231.327L159.544 238.127L172.011 237.372L173.9 236.994V230.949H175.033L175.411 232.838V237.372L186.744 236.238L188.633 235.861V228.683L191.656 227.927Z" fill="#5B93CE"/>
<path d="M168.605 45.1655L176.916 45.5433L181.827 47.0544L184.472 48.5655L187.872 51.5877L192.405 57.6322L197.694 64.0544L201.85 68.5877L204.872 71.9877L207.894 74.6322L212.427 78.41L217.716 82.1877L220.738 84.0766L223.761 85.5877L224.138 86.3433L224.894 91.2544V93.1433L226.027 93.5211L227.916 98.4322L231.316 104.099L236.605 109.388L236.983 112.41L235.472 112.788L233.583 123.743L232.072 137.343L230.561 153.21L230.183 155.099H229.427V154.343H228.294L226.405 152.454L221.494 148.677L219.605 146.788L216.961 144.521L212.805 141.121L209.405 138.099L205.25 134.699L199.205 129.788L194.294 126.388L186.361 122.988L183.338 121.854L177.294 120.343L168.605 118.832L161.805 118.077L160.672 115.432L159.916 110.521V107.877L164.072 106.366L167.094 103.721L169.361 99.1877L169.738 97.2989V77.6544L169.361 70.8544L171.25 68.9655L175.027 65.9433L177.294 63.2989L177.672 62.1655V58.7655L177.294 56.8766L175.783 56.1211L173.894 54.61L170.872 53.8544H165.961V53.0989L167.472 51.9655H168.227L167.85 49.3211L165.961 47.0544L168.605 45.1655Z" fill="#BFDC64"/>
<path d="M155.011 45.8384L155.767 46.2162L155.389 47.7273L161.433 46.5939L165.211 46.9717L168.233 49.6162V52.2606L166.722 53.3939H165.967V54.1495L170.878 53.7717L174.656 54.905L177.3 57.1717L178.056 59.0606V62.4606L176.544 65.105L173.9 67.7495L170.878 70.0162L169.744 70.3939L170.122 77.9495V97.5939L168.989 101.372L166.722 104.772L164.078 107.038L160.678 108.172H159.922L161.056 115.727L161.811 117.238V118.372L162.944 118.749L162.189 122.527L160.678 124.794L158.033 126.683L153.122 128.194H148.967L144.056 126.683L139.9 124.416L135.744 121.016L134.233 119.505L132.722 118.749H134.989L136.878 109.305L138.011 99.4828V98.7273L134.611 97.9717L133.1 95.705L131.211 88.905L128.189 80.9717L127.056 76.0606L126.678 72.2828V68.8828L127.433 63.5939L128.567 61.3273L131.967 57.5495L137.256 53.7717L141.033 51.8828L148.211 48.105L152.744 46.2162L155.011 45.8384Z" fill="#F8AC81"/>
<path d="M221.122 20.1494H229.433L235.478 22.4161L238.878 24.6827L240.767 26.1939L244.167 30.7272L246.056 36.0161V43.1939L244.545 49.2383L241.9 56.0383L239.633 62.4605L238.878 66.2383V70.3939L241.145 71.1494V73.4161L240.389 75.305L241.522 77.5716L247.189 82.8605L249.078 83.9939L251.722 88.905L252.856 91.1716L253.989 97.2161V102.505L253.233 115.727L249.078 114.216L242.656 113.083H236.233L236.989 112.705L235.856 109.305L230.945 104.394L227.545 98.7272L225.656 93.8161L224.522 88.1494L224.145 82.8605L222.633 77.9494V77.1939L221.122 76.8161L219.989 76.0605L220.367 74.5494L222.256 73.7939L220.745 69.6383L218.478 65.8605L213.945 60.9494L210.545 57.1716L206.767 51.8827L203.745 45.8383L202.989 42.4383V37.5272L204.5 32.9939L206.767 29.2161L210.167 25.4383L213.945 22.7939L218.478 20.905L221.122 20.1494Z" fill="#FEC95A"/>
<path d="M110.811 182.972H111.944L114.211 190.527L116.478 198.461L118.744 206.016L119.878 209.416L121.389 224.149L122.144 227.549V233.972L124.411 238.505L128.189 241.527L129.322 242.283V243.038L131.211 243.794V244.549L132.722 245.305L136.878 249.461L140.656 255.505L141.033 258.905L139.522 259.661L138.011 258.149L136.5 255.505L133.1 252.483H131.967L135.367 257.394L137.633 261.549V263.816L136.878 264.572L135.367 264.194L133.478 262.305L131.589 259.661V258.905L130.456 258.527L130.078 257.016L127.811 256.638L128.567 258.527L131.211 263.061L131.589 264.949L131.211 265.327H128.944L127.433 263.816L123.656 258.527H122.9L124.033 261.549L125.167 264.194L124.789 265.705L122.522 265.327L120.256 263.061V261.927L118.744 261.172L117.611 258.905L113.833 255.883L109.678 253.238L106.656 250.594L103.256 246.438L100.611 243.416V242.283L99.1 241.905L105.144 240.016L110.433 237.372L114.211 233.972L115.722 232.083V229.061L110.811 218.861V218.105H110.056L108.167 213.949V213.194H107.411L104.767 207.905L101.367 201.483L99.8555 197.327L99.4778 196.572V193.927L102.878 190.527H103.633L104.011 189.394L107.033 186.749L110.433 183.727L110.811 182.972Z" fill="#F8AC81"/>
<path d="M155.011 45.8384L155.767 46.2162L155.389 47.7273L161.433 46.5939L165.211 46.9717L168.233 49.6162V52.2606L166.722 53.3939H165.967V54.1495L170.878 53.7717L174.656 54.905L177.3 57.1717L178.056 59.0606V62.4606L176.544 65.105L173.9 67.7495L170.878 70.0162L169.367 70.7717L168.989 67.7495V66.2384L167.856 66.6162H163.7L161.056 65.8606H159.544L158.411 68.1273L155.389 71.1495L150.1 74.5495L146.322 76.4384L142.544 77.1939L142.922 78.705V84.3717L141.411 90.0384L140.278 91.9273L138.389 91.5495L136.5 88.905L135.744 88.5273L131.211 88.905L128.189 80.9717L127.056 76.0606L126.678 72.2828V68.8828L127.433 63.5939L128.567 61.3273L131.967 57.5495L137.256 53.7717L141.033 51.8828L148.211 48.105L152.744 46.2162L155.011 45.8384Z" fill="#131312"/>
<path d="M240.389 76.4385L242.278 78.3274L247.189 82.8607L249.078 83.994L251.722 88.9051L252.855 91.1718L253.989 97.2163V102.505L253.233 115.727L249.078 114.216L242.655 113.083H236.233L236.989 112.705L235.855 109.305L230.944 104.394L227.544 98.7274L225.655 93.8163L224.522 88.1496L224.144 82.8607L223.011 79.4607L223.389 78.3274V79.0829L225.278 78.7051V77.5718L227.922 77.194L229.055 80.2163L229.433 83.6163L237.744 83.2385L239.255 80.594L240.389 76.4385Z" fill="#F8AC81"/>
<path d="M110.811 182.972H111.945L114.211 190.527L116.478 198.461L118.745 206.016L119.878 209.416L121.389 224.149L122.145 227.549V231.327L121.389 232.461L117.233 231.705L113.456 224.527L110.811 218.861V218.105H110.056L108.167 213.949V213.194H107.411L104.767 207.905L101.367 201.483L99.8556 197.327L99.4778 196.572V193.927L102.878 190.527H103.633L104.011 189.394L107.033 186.749L110.433 183.727L110.811 182.972Z" fill="#BFDC64"/>
<path d="M128.189 117.239L130.078 118.372V119.127L127.811 120.261L120.256 122.527L115.722 124.039L110.056 127.061L107.789 128.194L104.389 130.461L99.8555 134.616L95.6999 139.905L95.3222 140.661H94.5666V141.794L93.0555 143.305L91.1666 146.705H90.4111L89.6555 148.594L87.3888 152.372L87.0111 153.505H86.2555L85.8777 155.016L85.4999 156.15H84.7444L84.3666 158.039L82.0999 161.816L78.6999 168.994L77.9444 170.505H77.1888L76.4333 172.772L74.5444 176.55L73.4111 179.572L71.8999 182.594L70.0111 188.261L69.2555 192.794L69.6333 198.839L71.1444 204.883L73.4111 210.55L75.6777 214.327L78.3222 218.105L82.0999 223.016L91.1666 233.594L96.4555 239.261L99.0999 241.905L100.611 242.283L102.122 244.927L104.767 247.95L104.011 248.327L102.122 246.439L101.744 245.305V246.816L100.989 247.572L97.5888 246.061V245.305L96.4555 245.683L94.5666 243.794L92.2999 241.905L90.0333 238.883V237.75L88.8999 237.372L86.2555 234.35L83.9888 230.572V229.816H83.2333L82.4777 228.305L81.3444 227.172V226.416H80.5888L79.0777 224.15L76.0555 219.994L73.0333 215.461L70.0111 209.416L67.7444 204.127L66.2333 196.572V193.55L67.3666 188.261L68.4999 185.239L72.2777 175.794L74.5444 171.261L76.4333 165.972L79.8333 159.927L82.0999 155.394L83.6111 153.505L85.4999 149.35L87.3888 147.461L89.6555 144.439L91.5444 140.661L94.1888 138.394L96.4555 134.994L97.9666 133.105L100.989 130.461L102.122 130.083L102.878 128.572L105.9 126.683L108.167 124.794L110.811 123.283L113.455 122.15L117.989 120.261L121.767 118.75L126.3 117.994L128.189 117.239Z" fill="#BFDC64"/>
<path d="M233.211 119.127H233.967L233.589 124.038L232.078 137.638L230.567 153.505L230.189 155.394H229.433V154.638H228.3L226.411 152.749L221.5 148.972L219.611 147.083L216.967 144.816L212.811 141.416L209.411 138.394L205.256 134.994L199.211 130.083L194.3 126.683L190.144 124.794L189.767 123.661L191.278 123.283L193.544 123.661L199.211 125.549L202.989 127.816L209.789 132.727L213.944 135.749L217.344 138.772L218.1 139.149V139.905L219.989 140.661L224.522 144.061H226.411L228.3 138.394L228.678 132.349L230.189 128.194L231.7 121.016L233.211 119.127Z" fill="#BFDC64"/>
<path d="M258.144 166.35L258.9 167.105L259.278 170.505L259.656 170.883V175.794L258.144 181.083H257.389L257.011 183.35L255.5 185.616L254.744 187.127L250.967 190.15L245.3 192.038L242.656 193.172H236.611L229.433 191.283L223.767 189.016L221.122 187.883L217.344 185.994L211.678 183.35L209.033 182.216L206.011 180.327L205.256 178.816L203.744 178.061H204.878V177.305L202.989 176.55L202.233 176.172L202.611 175.416L208.656 178.061L212.056 179.572L215.078 181.083L221.5 183.35L227.167 185.238L235.1 186.75H243.789L248.7 185.238L250.967 183.727L253.989 180.327L255.878 175.038L256.633 170.127L257.389 166.727L258.144 166.35Z" fill="#BFDC64"/>
<path d="M177.678 266.838L178.056 267.594L176.922 270.238L173.145 280.061L171.633 286.105L171.256 289.505L171.633 294.038L173.522 299.705L176.922 305.372V306.127L173.9 306.505H163.7L164.456 300.083L166.722 285.349L168.233 279.305L170.878 274.016L173.9 270.616L176.922 267.972L177.678 266.838Z" fill="#002F6C"/>
<path d="M107.411 192.038L109.3 192.416L111.567 195.816L113.456 200.349L115.722 206.016L117.233 209.416L117.989 217.349L118.744 219.616L117.989 221.883L116.478 221.505L114.211 218.861L110.056 210.172L104.767 198.838L104.389 194.683L107.411 192.038Z" fill="#BFDC64"/>
<path d="M145.944 49.2383L147.456 49.6161L147.078 50.3716L148.211 50.7494L147.456 52.2605L144.433 53.7716L142.544 54.5272H141.411V55.2827L138.767 56.0383L137.633 57.1716L136.122 58.3049L133.856 59.0605L132.344 61.7049H131.589L130.833 63.5938L129.7 66.9938V77.1938L130.456 79.8383L132.344 83.2383L134.233 84.7494L136.878 85.8827L138.767 85.505L139.9 84.3716L141.033 79.8383H142.167L142.544 79.0827L142.922 80.9716V84.3716L141.411 90.0383L140.278 91.9272L138.389 91.5494L136.5 88.905L135.744 88.5272L131.211 88.905L128.189 80.9716L127.056 76.0605L126.678 72.2827V68.8827L127.433 63.5938L128.567 61.3272L131.967 57.5494L137.256 53.7716L141.033 51.8827L145.944 49.2383Z" fill="#150D0F"/>
<path d="M234.722 71.1494H241.144V73.4161L240.389 75.305L240.011 78.705L238.878 82.105L237.744 83.6161H229.433L227.922 77.5716H225.278V78.705L223.389 79.0827L222.633 77.1939L221.122 76.8161L219.989 76.0605L220.367 74.5494L223.011 73.7939L228.678 72.2827L234.722 71.1494Z" fill="#DF935E"/>
<path d="M139.522 230.949H158.411L158.033 237.749H139.9L139.522 236.994V230.949Z" fill="#0F0B0D"/>
<path d="M162.944 118.372L164.833 118.749L164.456 119.505L163.7 124.416L162.567 125.927H161.811L161.056 127.438L157.656 129.705L155.011 130.838L149.722 131.594L141.789 129.327L138.389 127.438L136.5 125.927V125.172L134.989 124.416L132.344 121.394V120.638L130.078 119.883L130.456 119.127L132.722 118.749L134.611 119.505L138.389 122.905L142.544 125.549L147.078 127.438L148.967 127.816H153.122L158.033 126.305L161.056 124.038L162.189 121.772L162.567 118.749L162.944 118.372Z" fill="#5B93CE"/>
<path d="M169.745 230.572H173.9L174.278 236.994L172.011 237.75L159.545 238.127V231.327L159.922 230.95L169.745 230.572Z" fill="#130C0E"/>
<path d="M185.233 229.438H188.255L189.011 235.86L186.744 236.616L179.189 237.372H175.411L175.033 230.194L185.233 229.438Z" fill="#110C0E"/>
<path d="M122.522 228.305L125.544 229.816L134.611 230.949V234.349L134.233 238.127L125.167 237.372L122.9 236.238L121.767 233.972V231.327L122.522 228.305Z" fill="#201014"/>
<path d="M127.056 62.0828H127.811L127.056 68.8828V72.2828L127.811 77.9494L129.7 84.3717L131.967 89.6605L131.589 91.5494L130.078 91.9272L127.811 89.2828L126.3 84.3717V82.4828H125.167L124.789 79.0828L124.033 76.8161L123.656 68.1272L124.033 66.6161L124.789 63.9717L125.922 63.5939L126.678 63.9717L127.056 62.0828Z" fill="#BFDC64"/>
<path d="M139.522 230.949H158.411V233.216L157.656 231.705H155.389L155.011 234.349L153.122 235.483L149.345 236.238L145.189 235.861L143.3 234.727L141.789 231.705H139.522V230.949Z" fill="#1D1013"/>
<path d="M157.656 64.7273H160.678L159.167 66.6162L158.033 68.5051L155.389 71.1495L150.1 74.5495L146.322 76.4384L142.544 76.8162V74.9273L143.678 73.794H144.811V73.0384L150.1 70.394L153.5 68.1273L157.656 64.7273Z" fill="#150D0F"/>
<path d="M199.211 173.905L199.967 174.283V214.327L200.344 214.705L200.722 220.372L200.344 222.261L200.722 222.638L201.1 229.816H199.967H199.211L198.833 230.949L198.456 229.061L198.078 232.461H197.7V224.527L199.211 221.505V173.905Z" fill="#BFDC64"/>
<path d="M172.011 54.5271L174.656 54.9049L177.3 57.1715L178.056 59.0604V62.4604L176.544 65.1049L173.9 67.7493L170.878 70.016L169.367 70.7715L168.989 69.2604L170.5 65.8604L174.278 63.9715L175.789 62.4604L176.167 60.9493L175.411 58.3049L173.144 57.1715L172.011 55.2827V54.5271Z" fill="#140D0F"/>
<path d="M132.345 231.705H134.233L133.856 237.372L133.1 237.75H128.189L124.033 236.994L122.522 235.861V232.083L124.033 232.461L124.789 234.35L128.189 235.483L129.322 234.727H130.456V233.972H131.211L131.589 232.083L132.345 231.705Z" fill="#140D0F"/>
<path d="M141.789 103.638L143.678 104.016L147.078 105.527L151.989 107.416L153.878 108.172V108.927L156.144 109.305V111.572L153.5 111.95L150.855 110.816L147.078 108.927L143.678 106.283L141.789 104.394V103.638Z" fill="#DD9560"/>
<path d="M191.656 227.927H193.922L194.3 229.061V234.349L191.656 235.483H189.389L188.633 234.349V228.683L191.656 227.927Z" fill="#E6EDF1"/>
<path d="M231.7 83.6162H236.989L235.856 87.0162L233.967 90.0384L233.589 90.4162H231.7L230.567 89.2829L229.811 87.0162V83.994L231.7 83.6162Z" fill="#E9F0FD"/>
<path d="M178.811 60.5718L179.944 62.0829L179.567 64.3496L177.3 67.3718L174.656 70.394L172.389 71.1496L172.011 71.9051H171.256L170.878 73.4162L169.744 73.0384L169.367 71.1496L171.256 69.2607L175.033 66.2384L177.3 63.594L178.811 60.5718Z" fill="#BFDC64"/>
<path d="M211.678 28.0828H212.433L212.056 29.9717L209.411 33.7494L207.9 37.1494L207.145 43.9494L206.011 44.3272L205.256 42.8161V37.5272L206.767 33.7494L209.033 30.3494L211.678 28.0828Z" fill="#E9F0FD"/>
<path d="M216.967 48.105H217.722L220.745 55.6605L227.167 71.905V72.6605L225.278 72.2828L222.633 64.7272L217.345 51.1272L216.967 48.105Z" fill="#E9F0FD"/>
<path d="M134.989 231.327H139.144V238.127H135.744L134.611 237.749V231.705L134.989 231.327Z" fill="#E6EAEC"/>
<path d="M180.7 229.816H185.233L184.478 230.194L184.1 233.216L182.967 233.972H178.811L177.678 232.083L176.922 231.705V230.572L175.789 230.949L175.411 232.838H175.033V230.194L180.7 229.816Z" fill="#201014"/>
<path d="M196.944 224.527H197.322L197.7 226.416V232.838L196.189 234.35L194.678 234.727L193.922 229.061V227.172L196.944 224.527Z" fill="#150D0F"/>
<path d="M169.745 230.572H173.9V232.461L173.145 231.327H170.122L169.745 232.838H168.989V233.594H167.1L166.345 233.972L161.811 232.838L159.545 233.216V231.327L159.922 230.95L169.745 230.572Z" fill="#201014"/>
<path d="M158.789 231.327H159.167L159.544 238.127L172.011 237.372H174.278L173.9 238.883L165.211 239.26H159.167L158.789 238.505V231.327Z" fill="#5B93CE"/>
<path d="M233.589 46.2161L234.722 46.5938V71.1494L233.589 70.7716V49.2383L233.211 46.5938L233.589 46.2161Z" fill="#E9F0FD"/>
<path d="M253.233 109.305H253.611V111.95L255.878 112.705L258.144 116.861L257.389 119.883L256.633 118.75L254.744 116.861L253.233 116.105L252.856 114.594L253.233 109.305Z" fill="#BFDC64"/>
<path d="M154.255 96.4607L162.567 96.8385L162.189 98.7274L158.789 99.4829L155.389 98.7274L153.878 97.2162L154.255 96.4607Z" fill="#FCFDFD"/>
<path d="M114.967 258.149L116.478 258.527H117.611L118.744 260.038L117.989 263.438L116.1 263.816L114.211 260.794V258.905L114.967 258.149Z" fill="#BFDC64"/>
<path d="M198.078 227.927L198.833 229.061L200.722 230.949V233.216L199.211 235.483V240.016H198.833L197.7 234.727L197.322 232.838L197.7 232.461L198.078 227.927Z" fill="#BFDC64"/>
<path d="M216.967 0.882812L218.1 1.26059L221.122 15.9939L220.745 17.1273L219.989 16.7495L218.1 8.43837L216.967 2.01615V0.882812Z" fill="#FEC959"/>
<path d="M230.189 103.261L236.611 109.683L236.989 112.705L235.478 113.083L234.722 115.727L233.589 115.35L234.344 111.572V108.55L231.7 106.283L230.189 104.394V103.261Z" fill="#BFDC64"/>
<path d="M222.633 62.0828L223.767 63.2161L227.167 71.905V72.6605L225.278 72.2828L222.633 64.7272L221.878 62.4605L222.633 62.0828Z" fill="#E9F0FD"/>
<path d="M189.389 54.5271L191.278 56.416L195.433 61.7049L200.344 67.3715L202.233 69.2604L201.856 70.016L198.833 66.9938L198.078 66.616V65.8604L196.944 65.4827L194.3 62.0827L189.767 56.0382L189.389 54.5271Z" fill="#BFDC64"/>
<path d="M211.678 28.0828H212.433L212.055 29.9717L209.411 33.7494L208.655 34.8828H207.9V34.1272L206.767 34.505L207.522 32.2383L210.922 28.4605L211.678 28.0828Z" fill="#E9F0FD"/>
<path d="M144.433 238.883H153.878L151.989 240.772L150.478 240.394L149.722 240.772H146.7V240.016L145.567 240.394L144.433 238.883Z" fill="#5B93CE"/>
<path d="M301.211 148.972L301.966 149.727L304.989 161.816L305.366 167.861L304.989 172.016H304.611L304.233 162.572L302.722 157.283L301.589 151.994L301.211 148.972Z" fill="#E6F4FD"/>
<path d="M204.878 72.6606L206.389 73.4162L210.922 77.5718L217.722 82.4829L220.744 84.3718L219.611 84.7495L217.344 83.6162L216.211 82.4829L213.567 80.9718V80.2162L212.056 79.4606L208.656 76.8162L206.767 74.9273L204.878 72.6606Z" fill="#BFDC64"/>
<path d="M16.7444 213.194L19.0111 213.572L23.9222 216.972L25.0556 217.727L25.8111 219.239L26.9444 220.372L29.5889 224.15L29.2111 225.283L26.5667 221.505L23.9222 218.483L22.7889 217.727V216.972L21.2778 216.216L16.7444 213.572V213.194Z" fill="#BFDC64"/>
<path d="M169.744 73.0383L170.5 73.4161L170.878 77.5717L170.5 97.9717L169.744 98.7272V73.0383Z" fill="#BFDC64"/>
<path d="M203.367 11.8384L206.011 13.3495L211.3 18.6384L210.922 19.7717L205.633 15.2384L203.367 12.5939V11.8384Z" fill="#FEC959"/>
<path d="M204.878 278.549H205.256L205.633 283.083L206.389 285.349L206.767 288.372L206.389 290.638L206.011 293.66H205.633L204.5 281.572V278.927L204.878 278.549Z" fill="#BFDC64"/>
<path d="M122.522 229.816L124.411 230.949L126.3 233.972L128.567 235.105L127.811 235.861L124.789 234.349L123.655 232.461L122.522 232.083V235.105L121.767 233.972V231.327L122.522 229.816Z" fill="#1C1415"/>
<path d="M233.589 46.2161L234.722 46.5938V57.5494L233.967 57.9272L233.589 49.2383L233.211 46.5938L233.589 46.2161Z" fill="#E9F0FD"/>
<path d="M172.011 237.372H174.278L173.9 238.883H165.967L165.589 238.127L172.011 237.372Z" fill="#5B93CE"/>
<path d="M120.633 215.46L121.389 216.594L122.144 224.527V226.038H122.9V227.927L121.767 227.549L121.011 224.149L120.633 220.372V215.46Z" fill="#30151B"/>
<path d="M173.9 230.949H175.033L175.411 232.838V237.372H174.656L174.278 238.127L173.9 236.238V230.949Z" fill="#5B93CE"/>
<path d="M200.722 249.083L202.611 249.839V257.016H201.856L200.722 250.594V249.083Z" fill="#BFDC64"/>
<path d="M168.611 45.4607H170.878L171.256 46.2162L169.367 47.3496L168.611 48.1051V49.6162L167.1 48.8607L165.967 47.3496L168.611 45.4607Z" fill="#BFDC64"/>
<path d="M234.344 6.54956L234.722 7.68289L231.322 14.4829L230.567 14.1051L230.944 12.2162L233.967 6.92734L234.344 6.54956Z" fill="#FDC460"/>
<path d="M159.167 109.305L159.922 109.683V113.083L159.167 113.461L158.033 113.083L157.278 111.194L157.656 109.683L159.167 109.305Z" fill="#DE9761"/>
<path d="M6.92215 207.149L9.94437 208.661V209.416L11.8333 210.172L16.7444 212.816L15.611 213.194L9.56659 210.172L7.67771 208.661L6.92215 207.149Z" fill="#BFDC64"/>
<path d="M153.878 96.8384L156.9 97.2162H158.789L158.033 98.7273L161.811 98.3495L161.433 99.105L157.655 99.4828L154.633 98.3495L153.878 96.8384Z" fill="#EBF6FD"/>
<path d="M179.567 235.861L186.744 236.238V236.616L179.189 237.372H175.411L175.789 236.238V236.994L179.567 235.861Z" fill="#5B93CE"/>
<path d="M206.011 293.661L206.767 294.416L207.9 299.705L208.278 300.838L206.389 300.461L206.011 298.572V293.661Z" fill="#BFDC64"/>
<path d="M253.989 96.8384H257.389V97.2162L254.744 97.9717L253.989 108.927H253.611V102.505L253.989 96.8384Z" fill="#BFDC64"/>
<path d="M232.833 124.794H233.211V128.194L232.833 131.594L232.078 131.216L231.322 128.572L232.833 124.794Z" fill="#BFDC64"/>
<path d="M258.144 119.883L259.278 121.394L258.522 123.661L257.389 124.794L257.011 120.261L258.144 119.883Z" fill="#BFDC64"/>
<path d="M164.456 106.283L165.211 106.66L161.811 109.305H160.678V110.816H159.922V108.172L164.078 106.66L164.456 106.283Z" fill="#BFDC64"/>
<path d="M169.744 73.0383L170.5 73.4161L170.878 77.5717L170.5 82.8606H170.122L169.744 77.9494V73.0383Z" fill="#BFDC64"/>
<path d="M203.744 270.616H204.5L205.633 272.127L204.5 276.66H204.122L203.744 270.616Z" fill="#BFDC64"/>
<path d="M199.211 240.016L199.967 241.149L201.1 244.927L200.722 248.327H200.344L199.211 242.283V240.016Z" fill="#BFDC64"/>
<path d="M111.944 220.75L113.078 221.127L114.967 224.15V226.794L113.833 225.283L111.944 221.505V220.75Z" fill="#DCCAC2"/>
<path d="M120.256 217.35H120.633L121.389 224.15V226.038L120.256 224.905V217.35Z" fill="#DCC4B8"/>
<path d="M206.389 38.6604H206.767V43.1937H206.011L205.256 41.6826V39.0382L206.011 39.416L206.389 38.6604Z" fill="#E9F0FD"/>
<path d="M220.744 57.9272L221.122 58.6828H221.878L223.011 62.0828H221.5L220.744 59.8161V57.9272Z" fill="#E9F0FD"/>
<path d="M116.856 198.461L117.611 198.838L118.367 201.483L118.744 201.861V204.505L117.989 204.127L116.856 200.727V198.461Z" fill="#2C141A"/>
<path d="M226.411 96.0828L227.167 97.2161L230.189 102.505L229.811 103.261L227.544 100.238L226.411 97.9717V96.0828Z" fill="#BFDC64"/>
<path d="M162.944 46.9717H165.211L166.722 48.4828L164.456 48.8606L162.567 48.105L162.944 46.9717Z" fill="#140D0F"/>
<path d="M233.589 119.505H233.967L233.589 124.038L232.078 123.283V121.394L233.589 120.638V119.505Z" fill="#BFDC64"/>
<path d="M130.456 57.5496L131.589 57.9273L129.322 60.9496L128.567 61.3273L127.811 60.5718H128.567L128.944 59.0607L130.456 57.5496Z" fill="#BFDC64"/>
<path d="M124.789 238.127L127.811 238.505L127.433 239.261L127.811 240.394L125.922 240.016L124.789 239.261V238.127Z" fill="#5B93CE"/>
<path d="M184.478 230.194L185.233 231.705V233.216L182.589 234.727H181.078V233.972L183.722 233.216L184.478 230.194Z" fill="#131312"/>
<path d="M186.744 121.772L187.122 122.527L189.011 122.905L190.144 124.038L189.389 124.416L185.989 122.905L186.744 121.772Z" fill="#BFDC64"/>
<path d="M160.294 110.899L161.05 112.41L161.427 112.788L161.805 116.943L160.672 115.432L160.294 113.543V110.899Z" fill="#BFDC64"/>
<path d="M134.989 97.9717L138.011 98.3495L138.389 99.4828L138.011 103.638H137.633L137.255 99.105L134.989 98.7272V97.9717Z" fill="#BFDC64"/>
<path d="M222.255 46.2161L223.389 47.3494V49.2383H221.878L221.5 46.5938L222.255 46.2161Z" fill="#E9F0FD"/>
<path d="M207.145 38.2827L207.522 39.0383L207.145 43.9494L206.011 44.3272L205.256 42.816L205.633 41.6827L206.011 43.1938H206.767V38.6605L207.145 38.2827Z" fill="#E9F0FD"/>
<path d="M120.633 215.46L121.389 216.594L121.767 220.749L121.011 221.127L120.633 220.372V215.46Z" fill="#2C141A"/>
<path d="M138.389 99.8606L138.766 100.994L140.278 101.749L140.655 103.261L138.389 102.505L138.011 100.994L138.389 99.8606Z" fill="#DE945E"/>
</svg>
