<svg width="317" height="263" viewBox="0 0 317 263" fill="none" xmlns="http://www.w3.org/2000/svg">
<path d="M120.955 2.6394H122.711L123.966 3.64318L124.719 5.65072V7.90921L123.966 10.1677L123.464 11.4224L121.958 11.6734L123.213 12.1752L121.707 17.696V20.7073H123.213L125.221 17.1941L127.479 12.1752H131.243L131.494 14.6847L130.741 18.9507L130.24 22.213L127.479 29.9922L127.228 32.2507L128.483 31.9998L129.989 29.4903L131.996 25.2243L133.502 21.4601L134.506 19.9545L135.258 19.4526H136.764L138.27 20.7073L138.772 21.7111V25.2243L137.517 29.4903L135.258 35.0111L132.247 41.2847L131.494 43.0413V45.2998L133 44.5469L135.76 40.03L138.27 35.7639L140.026 33.5054L141.532 32.2507H143.038L143.79 33.0035L144.041 35.262L143.289 39.2771L141.532 44.045L139.524 47.8092L136.262 52.0752L133.502 56.0903L132.498 58.3488V60.8582L133.753 60.6073L136.262 58.3488L139.274 54.8356L142.285 51.0715L142.034 49.5658L141.281 47.8092L141.532 45.5507L142.536 44.045L144.543 42.5394L145.547 42.2884L148.809 42.5394L149.562 42.7903H153.075L154.079 41.5356L155.083 39.2771L156.338 38.2733L157.09 38.0224H159.349L161.106 38.7752L163.615 41.5356L165.372 42.2884L167.379 42.0375L170.14 41.2847L170.39 41.0337H173.151L174.657 41.7866L175.911 43.2922L176.162 43.7941V46.8054L174.657 49.8167L172.9 51.3224L171.896 51.8243H171.143V52.3262H169.136L169.638 54.0828L169.889 56.0903V60.8582L169.136 66.379L168.132 70.1431L166.375 73.6563L165.623 74.4092L164.117 74.9111L163.113 75.162V81.6865H194.732L194.23 79.9299L189.713 80.1809L188.458 78.9262L187.204 76.9186L186.451 74.6601L182.436 75.162L181.683 74.4092L180.679 71.6488V67.8847L180.93 67.3828L184.192 66.6299H185.196V63.1167L185.949 60.8582L187.204 59.8545L190.466 59.1016L192.724 58.8507L194.983 58.3488L198.747 57.8469L207.279 56.3413L208.534 56.5922L209.287 57.0941V57.596L210.29 58.0979L211.545 57.8469L214.055 56.5922L218.321 53.8318L221.332 51.8243L222.336 50.8205L224.343 49.8167L228.107 47.5583L229.111 46.5545L231.621 45.2998L234.381 43.2922L236.389 41.7866L238.145 41.0337L240.906 41.2847L243.415 43.5432L245.924 48.0601L247.179 51.3224L248.685 57.596L249.689 63.8696L249.939 66.6299V71.8997L249.438 76.4167L248.434 79.1771L247.179 80.9337L246.175 81.4356L244.168 81.1846L225.849 76.6677L221.834 75.6639L217.066 74.4092L214.306 73.9073H213.051L212.047 76.1658L211.294 76.6677L204.017 77.9224H202.762L203.264 81.4356H203.766L205.021 81.1846L205.272 81.4356L226.602 81.6865H242.16L247.43 82.6903L249.939 84.6979L251.445 87.2073L251.947 88.7129L252.198 137.396H261.734V122.59L262.487 121.336L263.741 120.583L284.068 120.332L288.585 120.081L292.349 120.332L304.896 120.583L306.151 121.336L307.155 122.59V151.449L306.151 153.205L304.645 153.958L288.083 154.209L264.745 153.958L262.989 153.456L261.734 151.951V137.898H252.198V176.292L254.958 173.03L256.966 171.022L260.228 168.513L261.483 167.76L261.734 161.236L263.239 159.479L263.741 159.228H304.896L306.402 160.232L307.155 161.486V190.345L306.151 192.102L304.143 192.854L285.824 193.105L288.585 194.36L292.851 196.619L297.117 199.63L302.136 204.147L304.896 206.907L306.653 209.166L306.402 209.919L303.139 211.926L297.117 215.188L291.094 217.698L288.836 218.451V225.226L290.341 226.23L289.087 227.736H288.585V235.013L291.596 234.009H296.113L298.121 234.511L297.619 235.766L295.36 239.028L293.353 240.785L290.341 242.039L288.585 242.29L288.836 246.556L292.851 248.564L298.372 251.073L301.383 252.328L306.653 252.077L309.915 253.081L312.675 254.837L314.934 257.096L316.189 259.103L314.432 259.605L310.668 259.856L307.155 259.103L304.645 257.598L302.638 255.088L302.136 254.085V253.332L299.626 252.579L293.353 249.819L289.087 247.811L284.319 245.302L277.794 241.537L270.266 236.519L265.749 233.256L262.236 230.496L258.973 227.736L255.46 224.724L248.434 217.698L244.67 218.952H232.373L230.115 217.447H228.358L225.849 218.451L223.34 217.949L222.838 217.698H221.332L219.826 218.702L219.575 218.952H163.113V229.492L219.073 229.743L226.1 229.492L229.362 229.743L230.366 230.747V239.53L229.613 240.534L225.096 240.785H217.317L216.313 241.036H163.113V245.552H180.679L181.181 246.054L180.93 247.058L180.679 247.309H111.67L109.411 247.058L109.16 246.054L109.411 245.803L112.423 245.552H162.611V240.785H110.917L107.404 240.283L106.651 239.279L106.4 236.519V230.747L107.404 229.743L109.662 229.492H162.611V218.952H67.0019L64.2415 217.949L62.2339 216.443L60.4773 213.934L59.7245 211.675L59.4736 205.402L56.9641 207.66L54.9566 209.166L52.4471 210.42L48.683 211.675L44.417 212.428H40.1509V209.668L41.4056 204.9L43.9151 200.132L45.9226 197.622L40.4019 196.619L35.6339 194.862L30.6151 192.102L26.6 189.09L23.3377 186.33L19.0717 182.064L16.8132 179.303L14.8057 176.794V176.292L18.8207 174.034L22.083 172.277L26.0981 170.771L30.6151 169.517L37.3905 168.513L43.4132 168.262L42.4094 165.502L41.1547 164.498L39.3981 163.996H29.1094L26.8509 163.494L24.8434 162.239L23.3377 160.483L22.5849 158.726L22.334 156.468L23.3377 152.453L26.6 146.179L27.8547 143.67L28.1056 142.666V139.905L26.8509 137.898L26.6 137.145L24.0906 135.89V135.388L21.0792 135.137L14.0528 134.887L11.2924 133.883L9.2849 132.377L8.28113 130.37L8.53207 127.86L10.2887 124.347L12.5472 120.583L13.8019 117.32V113.305L11.2924 105.777L10.2887 101.009L9.78679 97.496V92.2262L10.7906 88.462L12.2962 86.2035L14.0528 84.6979L16.0604 83.945H20.0755L21.5811 84.6979L22.8358 86.2035L23.8396 88.7129L24.5924 93.4809L25.5962 95.4884L27.1019 96.2412H29.8622L31.3679 95.9903H34.8811L36.8887 97.245V97.9978L37.8924 98.4997L38.8962 101.009L39.1472 102.013L39.3981 108.036L39.9 110.796L41.1547 112.804L43.4132 114.058L44.6679 114.309L51.4434 114.56L53.2 115.564L54.7056 117.571L55.4585 119.579V122.841L54.7056 125.351L51.4434 131.373L50.6905 132.879V135.388L51.4434 137.396L52.1962 138.902L54.7056 141.16L56.9641 142.164L59.7245 142.666L59.2226 138.651L59.7245 134.636L60.2264 129.366V121.587L59.9754 117.571L59.7245 116.568V89.2148L60.4773 86.7054L60.9792 85.9526L60.7283 84.6979L58.2188 80.6828L55.7094 79.679L52.949 79.1771L52.6981 80.4318L51.9453 80.9337L50.1887 80.6828L49.6868 79.9299V78.9262H50.1887L50.4396 78.1733L51.9453 77.9224L52.4471 78.4243L55.4585 78.6752L57.466 79.428L56.9641 78.1733L54.9566 74.1582L52.4471 72.1507L51.4434 71.6488L49.9377 71.3979V71.8997L48.683 72.6526H47.4283L46.4245 71.8997V70.1431L47.1773 69.3903H49.1849L49.9377 70.3941L52.6981 71.3979L54.2037 72.4016L52.1962 67.6337L50.6905 63.3677L47.4283 61.3601L45.6717 60.6073L44.9188 61.3601H43.1622L42.6604 60.8582V58.8507L43.1622 58.3488H44.9188L45.6717 59.1016V59.6035L47.1773 60.1054L50.1887 61.862L49.6868 59.1016L48.4321 52.8281L45.9226 50.8205L44.417 49.8167H41.9075L41.1547 48.0601L42.4094 46.8054H43.6641L44.166 47.3073L44.417 48.813L47.1773 50.5696L48.1811 51.3224L47.6792 43.2922L46.1736 42.2884L45.9226 41.7866V40.2809L46.9264 39.0262L48.1811 38.7752L49.4358 39.2771L50.1887 40.2809V41.7866L48.9339 43.0413V48.562L49.4358 53.079L49.6868 53.8318L52.1962 51.3224L53.7019 50.3186H54.2037V49.0639L55.2075 48.0601L56.7132 48.3111L57.466 49.3149L57.2151 50.8205L56.7132 51.3224H54.9566L54.4547 51.0715L52.1962 52.5771L50.1887 54.5847L49.9377 55.8394L51.4434 62.113L52.4471 65.3752L53.9528 62.6148L54.9566 61.3601H55.4585V59.8545L56.7132 58.5998L58.4698 58.8507L59.2226 59.8545L58.9717 61.6111L57.9679 62.3639L55.2075 62.113L53.4509 65.6262L53.2 67.6337L54.9566 72.1507L56.2113 74.9111L57.9679 71.3979L58.4698 70.896V68.6375L59.2226 67.8847H60.7283L61.732 68.8884L61.4811 70.3941L60.9792 70.896L59.2226 71.1469L57.717 73.4054L57.2151 74.6601V76.9186L59.4736 80.9337L61.4811 84.196L61.732 83.945L62.2339 81.4356L63.7396 78.9262H64.2415L63.9905 77.9224L64.7434 76.6677L66.249 76.4167L67.2528 77.4205V79.1771L66.249 79.9299H64.9943H63.9905L62.9868 82.1884V83.6941L65.4962 82.1884L67.5037 81.6865H92.5981L89.8377 78.1733L88.0811 75.162L87.3283 73.4054L86.3245 71.3979V70.896H85.8226L83.8151 66.1281L82.3094 60.1054L81.8075 56.8432V55.3375H89.8377L96.8641 56.3413L97.366 56.5922V57.0941H99.6245L103.389 58.5998L104.894 59.1016L105.145 57.596L106.149 56.5922L107.906 56.3413L110.917 56.8432L114.681 59.1016L118.194 61.3601L120.453 62.113H122.711V60.8582L120.955 59.6035L116.94 58.3488L113.677 57.0941L110.917 55.0865L108.407 52.8281L106.4 51.0715L104.643 48.3111L102.887 46.0526L101.883 44.045V41.7866L103.138 40.2809L104.392 39.779L105.647 40.03L107.655 41.7866L109.913 44.5469L112.423 46.5545L116.438 48.562L118.696 49.0639L117.943 47.3073L115.183 44.5469L112.423 42.2884L109.411 39.5281L107.153 37.2696L104.894 33.7564L104.141 31.9998V28.7375L104.643 27.4828L106.4 27.2318L108.909 28.4866L111.419 30.7451L114.932 34.0073L117.441 35.513H118.696L118.445 34.2583L115.685 31.2469L113.175 28.9884L110.415 26.73L107.906 24.4715L106.902 22.4639L106.651 21.4601V17.9469L107.153 17.1941L108.909 16.9432L110.415 17.4451L112.423 19.2017L114.681 21.4601L116.689 22.7149H117.441L117.191 21.4601L115.183 18.6998L112.924 16.4413L112.674 15.4375L111.419 12.9281V12.1752L114.179 11.9243L114.681 11.6734L111.168 11.4224V8.91299L111.67 7.40733L112.924 6.6545L114.43 6.90544L115.936 8.91299L116.689 11.1715V11.9243H117.943L118.696 6.40355L119.7 3.89412L120.955 2.6394Z" fill="#89CAFF"/>
<path d="M145.547 79.428L148.558 79.9299L151.821 80.4318H157.592L160.102 79.9299L161.607 81.6865L163.113 82.4393L164.87 84.4468L167.128 86.9563L170.39 91.4733L172.9 94.7355L175.66 98.7506L178.923 103.519L180.177 105.275L181.181 104.271L183.69 100.256L182.687 99.0016L185.949 94.7355L186.451 93.9827L187.706 94.2336L193.477 97.245L196.74 99.2525L194.481 105.275L193.728 106.53L192.473 106.028L192.223 107.283L188.96 114.811L188.458 115.815L188.709 117.069L190.717 118.826L191.972 119.328H194.983L198.747 118.324L204.017 116.066L209.789 113.054L215.058 109.792L216.062 109.039H216.564L215.811 107.534L219.073 105.024L219.826 104.522L220.83 104.773L226.602 110.545L226.1 111.8L224.343 114.058L223.089 115.564L222.085 115.062H221.081L212.298 123.845L210.29 125.602L207.279 128.362L204.519 130.62L201.006 133.381L196.489 136.141L192.473 138.149L191.219 138.4H187.956L185.447 137.647L181.934 135.639L179.926 134.134L179.173 133.883L178.672 135.388L177.166 137.898V141.411L178.421 165.752V168.513H123.715L123.213 162.49V148.186L123.715 139.403V132.628L124.217 130.119L124.97 127.609L126.224 118.826L127.981 110.294L129.738 103.769L131.996 97.245L134.255 92.477L136.764 88.7129L139.023 86.2034L141.03 84.1959L144.543 81.4355H145.045L145.547 79.428Z" fill="#BFDC64"/>
<path d="M16.0604 83.9448H20.0755L21.5811 84.6977L22.8358 86.2033L23.8396 88.7127L24.5924 93.4807L25.5962 95.4882L27.1019 96.241H29.8622L31.3679 95.9901H34.8811L36.8887 97.2448V97.9976L37.8924 98.4995L38.8962 101.009L39.1472 102.013L39.3981 108.035L39.9 110.796L41.1547 112.803L43.4132 114.058L44.6679 114.309L51.4434 114.56L53.2 115.564L54.7056 117.571L55.4585 119.579V122.841L54.7056 125.35L51.4434 131.373L50.6905 132.879V135.388L51.4434 137.396L52.1962 138.901L54.7056 141.16L56.9641 142.164L59.7245 142.666V204.649L57.466 207.158L55.4585 208.915L52.4471 210.42L48.683 211.675L44.417 212.428H40.1509V209.667L41.4056 204.899L43.9151 200.132L45.9226 197.622L40.4019 196.618L35.6339 194.862L30.6151 192.101L26.6 189.09L23.3377 186.33L19.0717 182.064L16.8132 179.303L14.8057 176.794V176.292L18.8207 174.033L22.083 172.277L26.0981 170.771L30.6151 169.516L37.3905 168.513L43.4132 168.262L42.4094 165.501L41.1547 164.498L39.3981 163.996H29.1094L26.8509 163.494L24.8434 162.239L23.3377 160.483L22.5849 158.726L22.334 156.467L23.3377 152.452L26.6 146.179L27.8547 143.669L28.1056 142.666V139.905L26.8509 137.898L26.6 137.145L24.0906 135.89V135.388L21.0792 135.137L14.0528 134.886L11.2924 133.883L9.2849 132.377L8.28113 130.369L8.53207 127.86L10.2887 124.347L12.5472 120.583L13.8019 117.32V113.305L11.2924 105.777L10.2887 101.009L9.78679 97.4958V92.226L10.7906 88.4618L12.2962 86.2033L14.0528 84.6977L16.0604 83.9448Z" fill="#A3CB38"/>
<path d="M120.955 2.6394H122.711L123.966 3.64318L124.719 5.65072V7.90921L123.966 10.1677L123.464 11.4224L121.958 11.6734L123.213 12.1752L121.707 17.696V20.7073H123.213L125.221 17.1941L127.479 12.1752H131.243L131.494 14.6847L130.741 18.9507L130.24 22.213L127.479 29.9922L127.228 32.2507L128.483 31.9998L129.989 29.4903L131.996 25.2243L133.502 21.4601L134.506 19.9545L135.258 19.4526H136.764L138.27 20.7073L138.772 21.7111V25.2243L137.517 29.4903L135.258 35.0111L132.247 41.2847L131.494 43.0413V45.2998L133 44.5469L135.76 40.03L138.27 35.7639L140.026 33.5054L141.532 32.2507H143.038L143.79 33.0035L144.041 35.262L143.289 39.2771L141.532 44.045L139.524 47.8092L136.262 52.0752L133.502 56.0903L132.498 58.3488V60.8582L133.753 60.6073L136.262 58.3488L139.274 54.8356L142.285 51.0715L142.034 49.5658L141.281 47.8092L141.532 45.5507L142.536 44.045L144.543 42.5394L145.547 42.2884L148.809 42.5394L149.562 42.7903H153.075L154.079 41.5356L155.083 39.2771L156.338 38.2733L157.09 38.0224H159.349L161.106 38.7752L163.615 41.5356L165.372 42.2884L167.379 42.0375L170.14 41.2847L170.39 41.0337H173.151L174.657 41.7866L175.911 43.2922L176.162 43.7941V46.8054L174.657 49.8167L172.9 51.3224L171.896 51.8243H171.143V52.3262H169.136L169.638 54.0828L169.889 56.0903V60.8582L169.136 66.379L168.132 70.1431L166.375 73.6563L165.623 74.4092L164.117 74.9111L160.855 75.6639L159.851 76.9186L159.349 78.1733V80.1809L157.592 80.6828H151.821L147.304 79.9299L145.547 79.428L145.296 80.9337L144.543 81.6865H92.849L91.0924 79.9299L88.8339 76.6677L87.5792 73.6563L86.3245 71.3979V70.896H85.8226L83.815 66.1281L82.3094 60.1054L81.8075 56.8432V55.3375H89.8377L96.8641 56.3413L97.366 56.5922V57.0941H99.6245L103.389 58.5998L104.894 59.1016L105.145 57.596L106.149 56.5922L107.906 56.3413L110.917 56.8432L114.681 59.1016L118.194 61.3601L120.453 62.113H122.711V60.8582L120.955 59.6035L116.94 58.3488L113.677 57.0941L110.917 55.0865L108.407 52.8281L106.4 51.0715L104.643 48.3111L102.887 46.0526L101.883 44.045V41.7866L103.138 40.2809L104.392 39.779L105.647 40.03L107.655 41.7866L109.913 44.5469L112.423 46.5545L116.438 48.562L118.696 49.0639L117.943 47.3073L115.183 44.5469L112.423 42.2884L109.411 39.5281L107.153 37.2696L104.894 33.7564L104.141 31.9998V28.7375L104.643 27.4828L106.4 27.2318L108.909 28.4866L111.419 30.7451L114.932 34.0073L117.441 35.513H118.696L118.445 34.2583L115.685 31.2469L113.175 28.9884L110.415 26.73L107.906 24.4715L106.902 22.4639L106.651 21.4601V17.9469L107.153 17.1941L108.909 16.9432L110.415 17.4451L112.423 19.2017L114.681 21.4601L116.689 22.7149H117.441L117.191 21.4601L115.183 18.6998L112.924 16.4413L112.674 15.4375L111.419 12.9281V12.1752L114.179 11.9243L114.681 11.6734L111.168 11.4224V8.91299L111.67 7.40733L112.924 6.6545L114.43 6.90544L115.936 8.91299L116.689 11.1715V11.9243H117.943L118.696 6.40355L119.7 3.89412L120.955 2.6394Z" fill="#A3CB38"/>
<path d="M133.502 93.9827L134.004 94.2336L133.753 94.9864L133.502 98.7506L134.255 103.017L136.262 108.035L139.023 112.803L141.532 116.317L144.292 119.83L146.551 122.339L148.307 124.347L151.319 127.609L153.075 129.617L156.589 133.381L158.596 135.137L160.855 136.392L161.106 137.647L164.87 140.156L165.121 140.909L166.626 141.411L169.387 142.415H172.649L174.155 141.662L176.162 139.152L176.664 138.651L177.166 141.411L178.421 165.752V168.513H123.715L123.213 162.49V148.186L123.715 139.403V132.628L124.217 130.118L124.97 127.609L126.224 118.826L127.981 110.294L129.738 103.769L131.996 97.2449L133.502 93.9827Z" fill="#A3CB38"/>
<path d="M123.966 168.513H178.421V201.387L175.159 201.637H158.596L122.209 201.387V194.109L123.213 178.802L123.715 169.768L123.966 168.513Z" fill="#305F9D"/>
<path d="M238.145 41.0337L240.906 41.2846L243.415 43.5431L245.924 48.0601L247.179 51.3224L248.685 57.5959L249.689 63.8695L249.94 66.6299V71.8997L249.438 76.4167L248.434 79.1771L247.179 80.9337L246.175 81.4356L244.168 81.1846L225.849 76.6676L221.834 75.6639L217.066 74.4091L214.306 73.9073H213.051L212.047 76.1657L211.294 76.6676L204.017 77.9224H202.762L203.264 82.1884L201.257 83.945L198.496 86.4544L196.74 87.2073L196.238 86.9563L194.732 82.1884L194.23 79.9299L189.713 80.1808L188.458 78.9261L187.204 76.9186L186.451 74.6601L182.436 75.162L181.683 74.4091L180.679 71.6488V67.8846L180.93 67.3827L184.192 66.6299H185.196V63.1167L185.949 60.8582L187.204 59.8544L190.466 59.1016L192.724 58.8507L194.983 58.3488L198.747 57.8469L207.279 56.3412L208.534 56.5922L209.287 57.0941V57.5959L210.291 58.0978L211.545 57.8469L214.055 56.5922L218.321 53.8318L221.332 51.8243L222.336 50.8205L224.343 49.8167L228.107 47.5582L229.111 46.5544L231.621 45.2997L234.381 43.2922L236.389 41.7865L238.145 41.0337Z" fill="#305F9D"/>
<path d="M263.741 159.228H304.896L306.402 160.232L307.155 161.486V190.345L306.151 192.101L304.143 192.854H284.57L263.741 192.603L262.487 191.85L261.734 190.596V161.235L263.24 159.479L263.741 159.228Z" fill="#A3CB38"/>
<path d="M288.083 120.081L292.349 120.332L304.896 120.583L306.151 121.336L307.154 122.59V151.449L306.151 153.205L304.645 153.958L288.083 154.209L264.745 153.958L262.988 153.456L261.734 151.951L261.483 137.396L261.734 122.59L262.487 121.336L263.741 120.583L284.068 120.332L288.083 120.081Z" fill="#002F6C"/>
<path d="M225.096 229.492L229.362 229.743L230.366 230.747V239.53L229.613 240.534L225.096 240.785H217.317L216.313 241.036H163.113V245.553H180.679L181.181 246.054L180.93 247.058L180.679 247.309H111.67L109.411 247.058L109.16 246.054L109.411 245.804L112.423 245.553H162.611V240.785H110.917L107.404 240.283L106.651 239.279L106.4 236.519V230.747L107.404 229.743H219.073L225.096 229.492Z" fill="#BFDC64"/>
<path d="M264.494 81.6865H287.832L305.147 81.9375L306.653 83.1922L307.155 84.196V112.803L306.151 114.309L304.896 115.062L288.083 115.313L263.741 115.062L262.236 114.058L261.734 112.803V84.196L262.487 82.6903L263.49 81.9375L264.494 81.6865Z" fill="#305F9D"/>
<path d="M261.483 167.76H261.734L261.985 190.596L262.487 191.851L263.741 192.353L284.57 192.604L288.334 194.109L292.851 196.619L297.117 199.63L302.136 204.147L304.896 206.907L306.653 209.166L306.402 209.919L303.139 211.926L297.117 215.189L291.094 217.698L288.334 218.702L284.068 219.706L280.555 220.207H270.768L268.007 221.211L264.745 221.462L260.73 220.96L257.719 219.956L257.468 218.953L258.973 215.69L258.722 214.687L256.213 212.428L253.453 209.668L251.947 207.66V176.543L254.958 173.03L256.966 171.023L260.228 168.513L261.483 167.76Z" fill="#BFDC64"/>
<path d="M37.3906 168.513H42.6604L47.1773 169.015L51.9453 170.27L57.2151 172.779L59.4736 174.536L59.7245 174.787V204.649L57.466 207.158L55.4585 208.915L52.4472 210.42L48.683 211.675L44.417 212.428H40.1509V209.668L41.4057 204.9L43.9151 200.132L45.9226 197.622L40.4019 196.619L35.634 194.862L30.6151 192.102L26.6 189.09L23.3377 186.33L19.0717 182.064L16.8132 179.304L14.8057 176.794V176.292L18.8208 174.034L22.083 172.277L26.0981 170.771L30.6151 169.517L37.3906 168.513Z" fill="#BFDC64"/>
<path d="M157.09 38.0225H159.349L161.106 38.7753L163.615 41.5357L165.372 42.2885L167.379 42.0376L170.14 41.2847L170.39 41.0338H173.151L174.656 41.7866L175.911 43.2923L176.162 43.7942V46.8055L174.656 49.8168L172.9 51.3225L171.896 51.8243H171.143V52.3262H169.136L169.638 54.0828L169.889 56.0904V60.8583L169.136 66.3791L168.132 70.1432L166.375 73.6564L165.623 74.4092L164.117 74.9111L160.855 75.664L159.851 76.9187L159.349 78.1734V80.1809L157.592 80.6828H151.821L147.304 79.93L146.049 79.4281V76.9187L146.3 75.664L146.551 68.1357L146.3 66.1281L144.292 65.8772L142.285 64.8734L141.03 63.6187L140.528 62.364V59.6036L142.034 55.8394L142.787 54.0828V51.3225L141.281 47.8092L141.532 45.5508L142.536 44.0451L144.543 42.5394L145.547 42.2885L148.809 42.5394L149.562 42.7904H153.075L154.079 41.5357L155.083 39.2772L156.338 38.2734L157.09 38.0225Z" fill="#FED8D0"/>
<path d="M251.947 207.911L252.7 208.162L254.456 210.42L257.97 213.934L259.224 214.937L258.973 216.192L257.719 218.952V219.705L260.73 220.709L265.247 221.211L268.007 220.96L270.768 219.956H280.554L285.071 219.203L288.585 218.451L288.836 225.226L290.341 226.23L289.087 227.735H288.585V235.013L291.596 234.009H296.113L298.12 234.511L297.619 235.766L295.36 239.028L293.353 240.784L290.341 242.039L288.585 242.29L288.836 246.556L292.851 248.564L298.371 251.073L301.383 252.328L306.653 252.077L309.915 253.081L312.675 254.837L314.934 257.096L316.188 259.103L314.432 259.605L310.668 259.856L307.154 259.103L304.645 257.598L302.637 255.088L302.136 254.084V253.332L299.626 252.579L293.353 249.818L289.087 247.811L284.319 245.301L277.794 241.537L270.266 236.518L265.749 233.256L262.236 230.496L258.973 227.735L255.46 224.724L248.434 217.698L248.936 216.694L250.441 214.937L251.445 212.93L251.696 211.926L251.947 207.911Z" fill="#E9F0FD"/>
<path d="M145.547 79.428L148.558 79.9299L151.821 80.4318H157.592L160.102 79.9299L161.607 81.6865L163.113 82.4393L164.87 84.4468L167.128 86.9563L170.39 91.4733L172.9 94.7355L175.66 98.7506L178.922 103.519L180.177 105.275L179.926 106.781L176.664 111.549L173.151 116.568L170.892 119.579L169.136 121.586L168.132 120.583L165.121 115.815L162.611 112.051L161.356 110.545L158.345 106.279L154.832 101.511L152.072 97.9978L150.064 95.4883L147.805 92.728L145.547 90.2185L143.289 89.2148H140.026L137.517 90.2185L136.011 91.2223L134.756 92.728L134.505 92.2261L136.764 88.7129L139.022 86.2034L141.03 84.1959L144.543 81.4355H145.045L145.547 79.428Z" fill="#A3CB38"/>
<path d="M81.8075 55.3374H89.8377L96.8641 56.3412L97.366 56.5921V57.094H99.6245L103.389 58.5997L105.647 59.1016L109.662 61.1091L112.423 62.8657L115.685 65.6261L117.692 67.8846L119.951 71.3978L121.206 73.9072L121.707 75.6638L122.46 77.4204L122.962 79.9298V81.6864H92.849L91.0924 79.9298L88.8339 76.6676L87.5792 73.6563L86.3245 71.3978V70.8959H85.8226L83.815 66.128L82.3094 60.1053L81.8075 56.8431V55.3374Z" fill="#BFDC64"/>
<path d="M80.5528 226.23H84.8188L87.3282 226.732L91.3433 228.739L94.1037 230.998L96.1113 233.758L97.6169 237.02L98.1188 239.028V244.298L97.366 247.309L95.8603 250.32L93.8528 252.83L91.8452 254.586L88.8339 256.343L85.3207 257.347H79.549L77.0396 256.594L74.0282 255.088L71.5188 253.081L69.7622 251.073L68.2565 248.564L67.2528 245.803L67.0018 244.047V239.028L68.0056 235.515L70.2641 232.001L73.0245 229.241L75.7848 227.484L78.7962 226.481L80.5528 226.23Z" fill="#002F6C"/>
<path d="M219.826 104.522L220.83 104.773L226.602 110.545L226.1 111.8L224.343 114.058L223.089 115.564L222.085 115.062H221.081L212.298 123.845L210.29 125.601L207.279 128.362L204.519 130.62L201.006 133.381L196.489 136.141L192.474 138.149L191.219 138.4H187.957L185.447 137.647L181.934 135.639L179.675 133.883L179.926 132.628L186.2 120.081L187.957 116.066L188.96 117.32L190.717 118.826L191.972 119.328H194.983L198.747 118.324L204.017 116.066L209.789 113.054L215.058 109.792L216.062 109.039H216.564L215.811 107.534L219.074 105.024L219.826 104.522Z" fill="#BFDC64"/>
<path d="M207.279 56.3413L208.534 56.5923L209.287 57.0941V57.596H209.789L209.538 58.8507L208.534 59.3526L207.781 61.3602V65.6262L208.534 69.3904L210.291 72.9036L212.549 73.6564L212.8 74.4092L212.047 76.1658L211.294 76.6677L204.017 77.9224H202.762L203.264 82.1885L201.257 83.9451L198.496 86.4545L196.74 87.2073L196.238 86.9564L194.732 82.1885L194.23 79.93L189.713 80.1809L188.458 78.9262L187.204 76.9187L186.451 74.6602L182.436 75.1621L181.683 74.4092L180.679 71.6488V67.8847L180.93 67.3828L184.192 66.63H185.196V63.1168L185.949 60.8583L187.204 59.8545L190.466 59.1017L192.724 58.8507L194.983 58.3489L198.747 57.847L203.013 57.0941L207.279 56.3413Z" fill="#5B93CE"/>
<path d="M166.124 168.764H178.421V201.387L175.158 201.637H158.596V200.634L159.6 196.117L162.109 185.828L162.862 182.817L165.121 176.794L165.874 172.779V169.015L166.124 168.764Z" fill="#002F6C"/>
<path d="M157.09 38.0225H159.349L161.106 38.7753L163.615 41.5357L165.372 42.2885L167.379 42.0376L170.14 41.2847L170.39 41.0338H173.151L174.656 41.7866L175.911 43.2923L176.162 43.7942V46.8055L174.656 49.8168L172.9 51.3225L171.143 52.0753L161.106 52.3262L157.09 53.33L155.836 54.0828L155.334 55.0866L154.581 59.3526L153.828 60.3564L152.323 60.1055L151.319 58.8508L150.315 55.5885V55.0866L148.809 55.5885L148.056 56.8432L147.806 59.1017L148.056 60.8583V64.3715L147.304 65.6262L146.551 66.1281L144.292 65.8772L142.285 64.8734L141.03 63.6187L140.528 62.364V59.6036L142.034 55.8394L142.787 54.0828V51.3225L141.281 47.8092L141.532 45.5508L142.536 44.0451L144.543 42.5394L145.547 42.2885L148.809 42.5394L149.562 42.7904H153.075L154.079 41.5357L155.083 39.2772L156.338 38.2734L157.09 38.0225Z" fill="#1E1374"/>
<path d="M162.109 75.1619H163.113V81.6864H194.732L195.485 84.1958L192.975 85.9524L191.721 87.96L190.717 90.9713L188.458 94.4845L186.451 93.9826L185.949 94.9864L182.938 99.0015L183.941 100.256L181.432 104.271L180.428 105.777L179.424 104.522L176.915 101.009L173.653 96.2411L170.39 91.7241L168.132 88.7128L166.124 86.2034L163.113 82.9411V82.4392L161.607 81.9373L160.102 80.1807L159.349 79.9298L159.098 78.1732L160.102 76.1656L160.855 75.4128L162.109 75.1619Z" fill="#89CAFF"/>
<path d="M238.898 41.2844H240.906L243.415 43.5429L245.924 48.0599L247.179 51.3222L248.685 57.5957L249.689 63.8693L249.94 66.6297V71.8995L249.438 76.4165L248.434 79.1769L247.179 80.9335L246.175 81.4353L244.168 81.1844L243.666 80.9335V80.1806L242.662 79.6787L240.404 76.4165L240.153 75.4127L239.149 74.9108L237.141 69.641V67.8844L239.149 66.8806L240.655 65.124L241.157 63.8693V60.6071L240.153 58.5995L238.396 57.0939L237.141 56.592L234.883 56.341V53.0788L235.134 48.5618L235.385 47.8089L235.636 45.5505L236.64 43.292L238.898 41.2844Z" fill="#002F6C"/>
<path d="M144.543 81.4355L144.794 82.1884L147.304 82.9412L149.813 83.4431H157.843L159.851 87.4582L161.356 91.2223L162.862 96.4921L165.121 105.024L165.873 108.788L166.375 110.796L166.877 116.066V118.073L165.873 117.069L163.113 112.803L162.109 111.298L161.356 110.545L158.345 106.279L154.832 101.511L152.072 97.9978L150.064 95.4884L147.805 92.728L145.547 90.2186L143.289 89.2148H140.026L137.517 90.2186L136.011 91.2223L134.756 92.728L134.505 92.2261L136.764 88.7129L139.022 86.2035L141.03 84.1959L144.543 81.4355Z" fill="#A3CB38"/>
<path d="M249.94 224.473H250.943L251.947 228.488V233.507L250.943 237.522L249.187 240.784L246.426 243.796L244.168 245.803L238.898 249.317L238.145 249.567L237.643 248.313L236.89 244.298L236.64 241.788V239.53L237.141 236.017L238.396 232.754L240.153 230.245L242.16 228.237L244.921 226.481L248.434 224.975L249.94 224.473Z" fill="#002F6C"/>
<path d="M59.2226 194.862H59.7245V204.649L57.466 207.158L55.4584 208.915L52.4471 210.42L48.683 211.675L44.4169 212.428H40.1509V209.667L41.4056 204.9L43.915 200.132L46.1735 197.12H51.1924L55.2075 196.367L59.2226 194.862Z" fill="#A3CB38"/>
<path d="M261.483 167.76H261.734L261.985 190.596L262.487 191.349V192.102L258.472 193.858L254.958 196.117L252.449 198.124H252.198L251.947 196.368V176.543L254.958 173.03L256.966 171.023L260.228 168.513L261.483 167.76Z" fill="#D9ED8C"/>
<path d="M134.004 209.918H244.419L244.921 210.42L244.67 211.675L244.419 211.926H162.109L134.255 212.177L134.004 211.926V209.918Z" fill="#5B93CE"/>
<path d="M204.268 81.1846L205.272 81.4355L205.774 82.4393V88.7129L205.523 91.2223L207.279 96.994L207.53 98.2487L206.777 98.7506L203.013 99.5034L201.758 99.2525L200.002 96.4921L199.5 95.7393L196.991 96.4921H195.736L195.485 97.7468L195.234 98.2487L193.728 97.7468L188.208 94.7355L190.717 90.2185L191.972 86.9563L193.477 85.1997L195.485 84.1959L196.238 86.2034V86.9563L197.743 86.7053L201.006 83.9449L202.762 82.1883L204.268 81.1846Z" fill="#FDCDC1"/>
<path d="M241.658 90.9714L242.16 91.2224L241.909 92.728L240.153 95.7394L238.647 97.7469L241.658 94.4846L242.662 93.7318L243.415 93.9828L242.662 96.2412L240.404 99.2526L238.396 101.26L241.407 99.0016H242.16L241.909 100.507L239.4 103.268L235.887 106.028L233.377 107.785L231.621 108.788L229.111 109.29L226.351 109.541L225.598 109.792L221.583 105.777L221.834 105.024L223.841 103.77L225.849 100.005L227.606 97.7469L229.864 95.7394L230.868 94.4846L232.373 94.2337L232.123 95.7394L230.115 98.2488H229.613L229.362 99.5035H230.115L230.617 98.4997L234.883 94.4846L237.392 91.9752L238.647 91.2224H239.4L239.149 92.4771L237.141 95.2375L234.381 98.2488V98.4997L236.89 96.2412L239.149 93.4809L241.156 91.2224L241.658 90.9714Z" fill="#FDCDC2"/>
<path d="M268.76 208.664H273.528L277.794 209.668L280.805 210.671L279.802 212.177L277.543 214.937L274.532 217.949L271.521 219.956L268.007 221.211L264.745 221.462L260.73 220.96L257.719 219.956L257.468 218.952L259.224 214.937H259.726L260.228 213.934L261.985 211.926L264.243 210.169L267.506 208.915L268.76 208.664Z" fill="#002F6C"/>
<path d="M81.0547 232.503H84.066L85.5716 233.507L86.8264 235.013L87.0773 236.017V238.024L86.0735 240.032L85.3207 240.534L87.8301 241.788L89.0848 243.294L89.8377 245.051V248.815H75.283V245.552L76.0358 243.294L77.5414 241.537L79.7999 240.534L78.2943 238.777L78.0433 237.773V235.766L79.2981 233.758L80.5528 232.754L81.0547 232.503Z" fill="#FCFCFD"/>
<path d="M261.232 234.762H261.734L263.49 238.275L264.243 241.286V245.051L263.49 247.811L261.734 251.324L258.973 254.586L256.966 256.594H256.464L254.456 252.579L253.453 248.815V243.796L254.707 240.785L256.213 238.777L258.472 236.519L261.232 234.762Z" fill="#002F6C"/>
<path d="M47.9301 38.7754L49.4358 39.2773L50.1886 40.2811V41.7867L48.9339 43.0414V48.5622L49.4358 53.0792L49.6867 53.832L52.1962 51.3226L53.7018 50.3188H54.2037V49.0641L55.2075 48.0603L56.7131 48.3112L57.466 49.315L57.215 50.8207L56.7131 51.3226H54.9565L54.4547 51.0716L52.1962 52.5773L50.1886 54.5848L49.9377 55.8395L51.4433 62.1131L52.4471 65.3754L53.9528 62.615L54.9565 61.3603H55.4584V59.8546L56.7131 58.5999L58.4698 58.8509L59.2226 59.8546L58.9716 61.6112L57.9679 62.3641L55.2075 62.1131L53.4509 65.6263L53.1999 67.6339L54.9565 72.1508L56.2113 74.9112L57.9679 71.398L58.4698 70.8961V68.6376L59.2226 67.8848H60.7282L61.732 68.8886L61.4811 70.3942L60.9792 70.8961L59.2226 71.1471L57.7169 73.4056L57.215 74.6603V76.9188L59.4735 80.9339L61.4811 84.1961L61.732 83.9452L62.2339 81.4357L63.7396 78.9263H64.2414L63.9905 77.9225L64.7433 76.6678L66.249 76.4169L67.2528 77.4207V79.1773L66.249 79.9301H64.9943H63.9905L62.9867 82.1886L62.4848 84.4471L61.2301 85.4508L58.2188 80.6829L55.7094 79.6791L52.949 79.1773L52.6981 80.432L51.9452 80.9339L50.1886 80.6829L49.6867 79.9301V78.9263H50.1886L50.4396 78.1735L51.9452 77.9225L52.4471 78.4244L55.4584 78.6754L57.466 79.4282L56.9641 78.1735L54.9565 74.1584L52.4471 72.1508L51.4433 71.649L49.9377 71.398V71.8999L48.683 72.6527H47.4282L46.4245 71.8999V70.1433L47.1773 69.3905H49.1848L49.9377 70.3942L52.6981 71.398L54.2037 72.4018L52.1962 67.6339L50.6905 63.3678L47.4282 61.3603L45.6716 60.6075L44.9188 61.3603H43.1622L42.6603 60.8584V58.8509L43.1622 58.349H44.9188L45.6716 59.1018V59.6037L47.1773 60.1056L50.1886 61.8622L49.6867 59.1018L48.432 52.8282L45.9226 50.8207L44.4169 49.8169H41.9075L41.1547 48.0603L42.4094 46.8056H43.6641L44.166 47.3075L44.4169 48.8131L47.1773 50.5697L48.1811 51.3226L47.6792 43.2924L46.1735 42.2886L45.9226 41.7867V40.2811L46.9264 39.0263L47.9301 38.7754Z" fill="#A3CB38"/>
<path d="M31.3679 229.241L32.6226 229.492L38.1434 231.751L38.6453 232.503L39.3981 237.773V239.279L38.1434 240.534L34.6302 243.294L33.8774 243.796L32.3717 243.545L27.3528 241.537L26.6 240.785L25.8472 235.766V233.507L29.8623 230.245L31.3679 229.241Z" fill="#A3CB38"/>
<path d="M278.798 222.968H282.06L285.824 223.971L289.84 225.728L290.341 226.481L287.581 228.99L284.068 231.5L280.555 233.005L279.551 233.256H275.034L272.023 232.252L269.262 230.747L269.764 229.492L271.772 226.732L274.03 224.724L277.292 223.218L278.798 222.968Z" fill="#002F6C"/>
<path d="M140.528 63.1167H141.03L141.532 64.3714L142.536 64.8733L145.045 65.8771L146.3 66.128L146.802 68.1356L146.551 75.6639L146.049 79.428H145.547L145.296 80.9337L144.543 81.6865H137.517L137.015 81.1846L138.772 79.428L141.783 75.4129L142.034 74.4091H142.787L143.038 73.1544L143.289 72.4016V70.645L142.285 69.8922H140.277L138.27 71.3978L135.509 73.9073L135.258 74.4091H134.756V75.4129H132.498L131.996 74.911V72.4016L134.255 69.3903L137.266 66.128L140.026 63.3676L140.528 63.1167Z" fill="#E9F0FD"/>
<path d="M204.268 74.9109H212.047V76.1656L211.294 76.6675L204.017 77.9222H202.762L203.264 82.1882L201.256 83.9448L198.496 86.4543L196.74 87.2071L196.238 86.9562L194.732 82.1882L194.23 79.9298L189.713 80.1807L188.458 78.926L187.204 76.9184L186.702 75.1618L204.268 74.9109Z" fill="#305F9D"/>
<path d="M275.034 243.545L276.038 244.047L278.045 246.807L279.049 248.815L279.551 251.073V253.583L278.798 256.845L276.539 261.613L275.787 262.617L274.783 262.115L272.524 259.103L271.019 256.092L270.517 254.335V250.32L271.772 247.309L273.528 245.051L275.034 243.545Z" fill="#002F6C"/>
<path d="M248.685 216.945L250.441 218.45L256.464 224.473L258.471 226.23L261.734 228.99L266 232.252L270.015 235.264L275.285 238.777L280.554 242.039L284.319 244.298L292.349 248.313L298.371 251.073L301.383 252.328L306.653 252.077L309.915 253.081L312.675 254.837L314.934 257.096L316.188 259.103L314.432 259.605L310.668 259.856L307.154 259.103L304.645 257.598L302.637 255.088L302.136 254.084V253.332L299.626 252.579L293.353 249.818L289.087 247.811L284.319 245.301L277.794 241.537L270.266 236.518L265.749 233.256L262.236 230.496L258.973 227.735L255.46 224.724L248.434 217.698L248.685 216.945Z" fill="#A3CB38"/>
<path d="M145.547 79.428L148.558 79.9299L151.821 80.4318H157.592L160.102 79.9299L161.106 81.1846L161.356 82.1884L160.102 82.9412H159.349L161.356 87.4582L162.611 90.7204L163.615 92.9789L166.124 101.762L167.63 109.541L168.132 113.807L168.383 119.579L167.63 119.83L166.877 118.575L166.124 110.796L164.368 103.017L162.36 95.2374L160.102 88.4619L158.094 84.1959L157.843 83.4431L156.839 83.694H149.813L146.551 82.9412L144.794 82.1884L145.045 80.9336L145.547 79.428Z" fill="#002F6C"/>
<path d="M186.451 93.9827L187.706 94.2336L193.477 97.2449L196.739 99.2525L194.481 105.275L193.728 106.53L192.222 105.777L183.189 99.7544L182.687 99.0015L185.949 94.7355L186.451 93.9827Z" fill="#D9ED8C"/>
<path d="M153.577 0.882812H155.836L157.341 1.88659L158.094 3.1413V7.90922L156.84 13.9319L156.087 17.947L155.836 20.9583L154.832 21.2092L154.33 18.1979L152.824 12.9281L151.068 5.90168V3.39225L151.821 2.13753L152.824 1.13376L153.577 0.882812Z" fill="#A3CB38"/>
<path d="M169.638 90.9714L170.892 91.9752L173.904 96.2412L177.417 101.26L180.177 105.275L179.926 106.781L176.664 111.549L175.158 113.807H174.657L173.402 106.028L171.896 98.7507L170.391 93.4809L169.638 91.7243V90.9714Z" fill="#BFDC64"/>
<path d="M291.596 234.009H296.113L298.121 234.511L297.619 235.766L295.36 239.028L293.353 240.785L290.341 242.039H286.577L285.072 241.537L285.574 239.53L286.828 237.02L288.334 235.264L290.592 234.26L291.596 234.009Z" fill="#002F6C"/>
<path d="M109.411 250.822H162.36V252.077H109.411L109.16 251.073L109.411 250.822Z" fill="#002F6C"/>
<path d="M37.1396 195.364L41.6566 196.618L46.1736 197.371L44.6679 199.379L43.6641 200.885L37.6415 200.634V231.5H37.1396V200.634H0V200.132H37.1396V195.364Z" fill="#E9F0FD"/>
<path d="M67.5037 209.918H96.864L99.6244 210.169V211.926H67.2527L66.7509 210.671L67.5037 209.918Z" fill="#002F6C"/>
<path d="M59.2227 67.8845H60.7283L61.7321 68.8883L61.4812 70.394L60.9793 70.8958L59.2227 71.1468L57.717 73.4053L57.2151 74.66V76.9185L59.4736 80.9336L61.4812 84.1958L61.7321 83.9449L62.234 81.4355L63.7396 78.926H64.2415L63.9906 77.9223L64.7434 76.6675L66.2491 76.4166L67.2529 77.4204V79.177L66.2491 79.9298H64.9944H63.9906L62.9868 82.1883L62.4849 84.4468L61.2302 85.4506L58.2189 80.6826L55.7095 79.6789L52.9491 79.177L52.6981 80.4317L51.9453 80.9336L50.1887 80.6826L49.6868 79.9298V78.926H50.1887L50.4397 78.1732L51.9453 77.9223L52.4472 78.4241L55.4585 78.6751L57.4661 79.4279L56.9642 78.1732L54.9566 74.1581L52.4472 72.1506L51.4434 71.6487L49.9378 71.3977V71.8996L48.683 72.6524H47.4283L46.4246 71.8996V70.143L47.1774 69.3902H49.1849L49.9378 70.394L52.6981 71.3977L54.2038 72.4015L53.451 70.143L53.9529 69.6411L55.9604 74.66H56.4623L57.4661 72.1506L58.4698 70.8958V68.6374L59.2227 67.8845Z" fill="#A3CB38"/>
<path d="M134.004 209.918H159.349L162.611 210.169V211.675L162.109 211.926L134.255 212.177L134.004 211.926V209.918Z" fill="#5B93CE"/>
<path d="M234.632 56.3413H237.141L239.149 57.3451L240.906 59.3526L241.407 60.6073V63.8696L240.404 65.8772L238.396 67.6338L236.89 68.1356L236.138 66.1281L234.883 59.1017L234.632 56.3413Z" fill="#A3CB38"/>
<path d="M102.636 209.918H126.475V212.177L99.8754 211.926V210.169L102.636 209.918Z" fill="#002F6C"/>
<path d="M201.174 83.8506L201.174 83.8506L201.172 83.8522L198.427 86.3474L196.744 87.069L196.341 86.8679L194.856 82.1636L194.616 79.5313L201.518 78.2988H202.421L202.89 79.7054L203.133 82.1366L201.174 83.8506Z" fill="#002F6C" stroke="#002F6C" stroke-width="0.250943"/>
<path d="M129.487 207.158H131.243L132.749 207.911L133.753 209.166L134.004 209.668V212.428L133 213.934L131.243 214.937H129.487L127.981 214.185L126.726 212.679L126.475 210.17L127.228 208.413L128.483 207.409L129.487 207.158Z" fill="#89CAFF"/>
<path d="M288.836 250.822L289.84 251.073L291.596 252.328L292.851 254.085L293.353 255.59V260.107L292.851 262.115L291.596 261.613L289.589 259.856L288.083 257.849L287.581 256.343V253.834L288.836 250.822Z" fill="#002F6C"/>
<path d="M242.411 75.1619H245.674L249.438 75.4128L249.187 77.4204L247.681 80.4317L246.175 81.4354L244.168 81.1845L243.666 80.9336V80.1807L242.662 79.6788L240.404 76.4166L240.153 75.6638L242.411 75.1619Z" fill="#5B93CE"/>
<path d="M167.881 142.164L169.136 142.666L169.387 144.924L169.889 162.239V168.513H168.383L167.881 149.692V142.164Z" fill="#002F6C"/>
<path d="M154.33 24.2205H156.589L157.341 24.9733L158.345 25.4752L158.847 26.9808L158.596 29.2393L157.091 30.9959L156.338 31.2469H154.581L153.075 30.2431L152.072 28.7374V26.7299L152.824 25.4752L154.33 24.2205Z" fill="#002F6C"/>
<path d="M248.685 216.945L250.441 218.45L256.464 224.473L258.471 226.23L261.734 228.99L266 232.252L270.015 235.264L275.285 238.777L280.554 242.039L284.319 244.298L288.334 246.305L288.836 246.807L288.585 247.309L287.079 246.807L281.307 243.545L277.041 241.035L270.266 236.518L265.749 233.256L262.236 230.496L258.973 227.735L255.46 224.724L248.434 217.698L248.685 216.945Z" fill="#A3CB38"/>
<path d="M203.326 93.5898L203.345 93.579L203.359 93.5625L204.865 91.8059L204.881 91.7873L204.889 91.7639L205.094 91.1484L205.418 91.3105L207.157 97.0247L207.391 98.191L206.728 98.6325L203.013 99.3756L201.836 99.14L200.119 96.442L199.896 95.5502L203.326 93.5898Z" fill="#002F6C" stroke="#002F6C" stroke-width="0.250943"/>
<path d="M183.189 66.8809H184.945L185.698 71.8997L186.2 74.4092L182.938 75.162L181.934 74.911L180.93 72.6526L180.679 71.6488V67.8846L180.93 67.3827L183.189 66.8809Z" fill="#002F6C"/>
<path d="M116.187 234.762H161.356L161.607 235.515H116.187V234.762Z" fill="#002F6C"/>
<path d="M47.9301 38.7754L49.4358 39.2773L50.1886 40.2811V41.7867L48.9339 43.0414V48.5622L49.4358 53.581H48.9339L48.683 54.0829L48.1811 52.5773L45.1698 50.3188L44.4169 49.8169H41.9075L41.1547 48.0603L42.4094 46.8056H43.6641L44.166 47.3075L44.4169 48.8131L47.1773 50.5697L48.1811 51.3226L47.6792 43.2924L46.1735 42.2886L45.9226 41.7867V40.2811L46.9264 39.0263L47.9301 38.7754Z" fill="#A3CB38"/>
<path d="M281.809 36.0149L283.064 36.2658L281.809 37.5206L275.536 40.7828L270.015 43.7941L263.24 47.5583L256.966 50.8205L255.46 51.5734H254.457L254.958 50.5696L260.73 47.5583L266.502 44.296L272.274 41.2847L277.794 38.2734L281.809 36.0149Z" fill="#A3CB38"/>
<path d="M288.585 53.0789L289.589 53.5807L289.087 54.3336L258.472 59.6034H257.719V58.5996L284.57 53.8317L288.585 53.0789Z" fill="#A3CB38"/>
<path d="M223.089 142.917L224.343 143.419L229.613 146.932L228.107 148.688L227.104 149.19L225.849 150.445L224.092 150.947L223.089 151.198V142.917Z" fill="#002F6C"/>
<path d="M209.287 142.917L210.541 143.419L215.811 146.932L214.556 148.187L210.039 151.198H209.287V142.917Z" fill="#002F6C"/>
<path d="M195.485 142.917L196.74 143.419L202.009 146.932L200.755 148.187L196.238 151.198H195.485V142.917Z" fill="#002F6C"/>
<path d="M181.683 142.917L182.938 143.419L188.208 146.932L186.953 148.187L182.436 151.198H181.683V142.917Z" fill="#002F6C"/>
<path d="M112.925 142.917L115.183 144.171L118.947 146.681V147.434L113.426 151.198H112.925L112.674 150.445V143.67L112.925 142.917Z" fill="#002F6C"/>
<path d="M85.3206 142.917L87.5791 144.171L91.3433 146.681V147.434L85.8225 151.198H85.3206L85.0697 150.445V143.67L85.3206 142.917Z" fill="#002F6C"/>
<path d="M257.468 67.1318L260.479 67.3828L287.832 71.3979L289.338 71.8998L289.087 72.6526L283.315 71.8998L257.97 68.1356L257.217 67.3828L257.468 67.1318Z" fill="#A3CB38"/>
<path d="M99.1226 143.167H99.8755V143.669L100.879 143.92L105.145 146.681V147.434L101.381 149.943L100.628 150.696L99.1226 151.198L98.8717 150.445V144.673L99.1226 143.167Z" fill="#002F6C"/>
<path d="M20.3264 98.2488L21.0792 98.4997L20.3264 100.005V102.264L20.8283 103.77L21.8321 104.271L26.0981 107.283L28.3566 109.29L30.6151 112.553L32.1207 116.066L32.3717 117.32V120.332L31.8698 122.59V126.103L33.1245 129.115L34.1283 130.62L34.8811 131.624V132.126L33.8773 131.624L32.3717 129.868L31.117 126.856L30.866 125.853V123.092L31.3679 120.583V117.07L30.3641 114.058L28.6075 111.047L26.349 108.537L22.8358 106.028L20.8283 104.522L19.5736 103.017L19.3226 102.013V100.256L20.3264 98.2488Z" fill="#002F6C"/>
<path d="M282.562 171.775L284.821 173.03L288.836 175.79V176.292L283.064 180.056H282.562V171.775Z" fill="#FDFCFC"/>
<path d="M282.562 94.2336L284.821 95.4884L287.832 97.4959L289.087 98.4997L283.064 102.515H282.562V94.2336Z" fill="#FCFDFD"/>
<path d="M128.985 205.151H131.745L133.753 206.154L135.007 207.409L136.011 209.166V209.919H134.004L132.498 207.911L131.243 207.409H129.487L127.73 208.162L126.977 209.166L126.475 210.17L124.468 209.919L124.97 208.162L126.726 206.154L128.985 205.151Z" fill="#305F9D"/>
<path d="M282.562 132.879L285.323 134.636L288.083 136.643L287.832 138.149L283.566 140.909L282.562 141.411V132.879Z" fill="#FDFDFD"/>
<path d="M126.475 211.675L126.977 212.679L128.232 214.184L129.487 214.686H131.243L133.251 213.432L134.004 211.926L136.011 212.177L135.258 214.435L133.251 216.192L131.243 216.945H129.487L127.228 216.192L125.722 214.937L124.468 212.428V212.177H126.475V211.675Z" fill="#305F9D"/>
<path d="M299.626 244.549H302.387L304.394 245.301L303.892 246.556L301.634 248.313L300.379 248.815H298.121L296.364 248.062L297.368 246.054L299.626 244.549Z" fill="#002F6C"/>
<path d="M252.198 202.139L256.213 202.39L269.513 204.398L285.573 206.907V207.66L279.802 206.907L256.966 203.394L252.198 202.641V202.139Z" fill="#002F6C"/>
<path d="M36.8887 231.5L38.1434 231.751L38.6453 232.504L39.3981 237.773V239.279L38.1434 240.534L36.8887 241.287V231.5Z" fill="#A3CB38"/>
<path d="M162.109 75.1619H162.611V81.6864L161.607 81.9373L160.102 80.1807L159.349 79.9298L159.098 78.1732L160.102 76.1656L160.855 75.4128L162.109 75.1619Z" fill="#E9F0FD"/>
<path d="M37.1395 181.562L39.649 181.813L58.4697 185.326L59.7244 185.828V186.33L57.4659 186.079L41.4056 183.068L37.3905 182.064L37.1395 181.562Z" fill="#002F6C"/>
<path d="M47.9302 38.7754L49.4358 39.2773L50.1886 40.2811V41.7867L48.9339 43.0414L48.683 46.3037H48.432V43.0414L47.6792 43.2924L46.1736 42.2886L45.9226 41.7867V40.2811L46.9264 39.0263L47.9302 38.7754Z" fill="#002F6C"/>
<path d="M196.489 58.0979L197.492 58.3488L196.489 60.6073L196.238 64.6224V67.3828L194.732 67.6337L194.481 65.3753V62.8658L194.983 60.1054L195.736 58.3488L196.489 58.0979Z" fill="#002F6C"/>
<path d="M199.5 57.5959H200.755L199.751 60.1054L199.5 61.611V66.8808H197.994L197.743 65.6261V61.862L198.245 59.3526L198.998 57.8469L199.5 57.5959Z" fill="#002F6C"/>
<path d="M68.0055 197.12H85.8225L86.0735 197.873H67.7546L67.5037 197.371L68.0055 197.12Z" fill="#002F6C"/>
<path d="M192.724 58.8506H193.979L193.226 61.611L192.975 67.8845L191.47 68.1355V61.611L192.222 59.3525L192.724 58.8506Z" fill="#002F6C"/>
<path d="M189.713 59.3525H190.968L190.215 61.1091L189.964 62.3639V68.3865L188.208 68.6374V62.3639L188.96 60.1054L189.713 59.3525Z" fill="#002F6C"/>
<path d="M118.696 69.1392L121.457 70.6448L123.715 72.4014L124.468 73.6561L123.715 74.409L121.457 74.158L120.704 73.4052L119.198 70.3939L118.696 69.1392Z" fill="#E9F0FD"/>
<path d="M86.8263 59.1016L87.8301 59.3525L91.0923 61.8619L93.8527 64.1204L97.115 66.8808L98.8716 68.3865L99.1225 69.3902L98.1187 68.8884L95.6093 66.6299L92.0961 63.8695L89.0848 61.3601L86.8263 59.6034V59.1016Z" fill="#002F6C"/>
<path d="M56.7132 58.5996L58.4698 58.8506L59.2226 59.8543L58.9717 61.6109L57.9679 62.3638L56.2113 62.1128L55.7094 61.8619L55.4585 59.8543L56.7132 58.5996Z" fill="#002F6C"/>
<path d="M59.2226 67.8845H60.7283L61.732 68.8883L61.4811 70.394L60.9792 70.8958L59.2226 71.1468L57.2151 74.1581L56.9641 73.1543L58.4698 70.8958V68.6374L59.2226 67.8845Z" fill="#002F6C"/>
<path d="M48.934 151.951L51.1924 152.704L53.9528 154.209L56.2113 155.966L58.2189 157.973L59.7245 160.232V161.737L58.7207 160.483L57.2151 158.224L54.9566 155.966L51.6943 153.958L48.934 152.704V151.951Z" fill="#002F6C"/>
<path d="M21.0792 177.798L25.5962 178.802L35.6339 181.06L35.8849 181.562H33.8773L23.5887 179.304L21.0792 178.551V177.798Z" fill="#002F6C"/>
<path d="M47.1774 69.3904H49.1849L49.9378 70.3942V71.147H51.4434V71.3979H49.9378V71.8998L48.683 72.6526H47.4283L46.4246 71.8998V70.1432L47.1774 69.3904Z" fill="#002F6C"/>
<path d="M65.2451 76.4167L66.4998 76.6677L67.2527 77.4205V79.1771L66.2489 79.93H64.9942H63.9904L63.4885 79.679L63.7395 78.9262H64.2414L63.9904 77.9224L64.7432 76.6677L65.2451 76.4167Z" fill="#002F6C"/>
<path d="M67.7546 202.39H79.5489L79.7999 202.892L79.298 203.143H68.0055L67.5037 202.641L67.7546 202.39Z" fill="#002F6C"/>
<path d="M55.2075 48.0601L56.7132 48.311L57.466 49.3148L57.2151 50.8204L56.7132 51.3223H54.9566L54.2037 50.5695V49.0638L55.2075 48.0601Z" fill="#002F6C"/>
<path d="M53.7019 50.3186L54.4547 50.5695V51.0714L52.1962 52.5771L50.1887 54.5846L49.9377 55.8394L50.4396 58.8507L49.6868 59.1016L48.934 55.5884V53.5809H49.9377L52.1962 51.3224L53.7019 50.3186Z" fill="#A3CB38"/>
<path d="M43.1623 58.3489H44.9189L45.6717 59.1017V59.6036L46.1736 59.8545H45.6717L45.4208 60.8583L44.9189 61.3602H43.1623L42.6604 60.8583V58.8508L43.1623 58.3489Z" fill="#002F6C"/>
<path d="M50.9415 77.9221L52.1962 78.1731L52.949 78.6749V80.1806L51.9453 80.9334L50.1887 80.6825L49.6868 79.9297V78.9259H50.1887L50.4396 78.1731L50.9415 77.9221Z" fill="#002F6C"/>
<path d="M42.4094 46.8054H43.6641L44.166 47.3073L44.4169 49.0639L43.6641 49.8167H41.9075L41.1547 48.0601L42.4094 46.8054Z" fill="#002F6C"/>
<path d="M289.589 207.66H291.847L298.873 208.413L299.877 208.664V209.166H297.368L290.341 208.413L289.589 208.162V207.66Z" fill="#002F6C"/>
<path d="M106.651 75.9148L107.906 76.1657L111.168 79.1771L113.928 81.4355V81.6865H112.674L109.16 78.4242L107.153 76.6676L106.651 75.9148Z" fill="#002F6C"/>
<path d="M53.7019 69.6414L54.2038 70.3942L55.9604 74.6602L56.2113 75.1621L55.7094 75.664L54.9566 74.1583L52.4472 72.1508L51.4434 71.6489V71.147H49.9377V70.6451L51.6943 70.8961L54.2038 72.4017L53.4509 70.1432L53.7019 69.6414Z" fill="#A3CB38"/>
<path d="M37.1395 195.364L37.6414 195.615V200.132H43.915L43.4131 200.885L37.1395 200.634V195.364Z" fill="#E4E9F7"/>
<path d="M288.334 252.077H288.585V258.1L288.083 257.849L287.581 256.343V253.834L288.334 252.077Z" fill="#002F6C"/>
<path d="M124.468 129.617L124.97 130.119L124.468 133.13L124.217 137.396L123.966 139.153H123.715V132.628L124.217 130.119L124.468 129.617Z" fill="#A3CB38"/>
<path d="M40.1509 146.681L41.4056 147.936L43.4131 149.441L44.6679 150.194L44.4169 150.947L41.6565 149.441L40.1509 147.936V146.681Z" fill="#002F6C"/>
<path d="M100.879 70.394L101.883 70.8959L104.894 73.6563L105.647 74.4091L104.392 74.1582L101.632 71.8997L100.879 71.1469V70.394Z" fill="#002F6C"/>
<path d="M162.611 75.1619H163.113V82.1883L161.858 81.9373L162.611 81.6864V75.1619Z" fill="#E6EAF6"/>
<path d="M288.334 227.987H288.585L288.836 235.264L288.083 235.515L287.832 228.488L288.334 227.987Z" fill="#E6EBF7"/>
<path d="M124.468 210.169H126.224L126.475 212.177H124.468V210.169Z" fill="#305F9D"/>
<path d="M134.255 210.169H136.011V212.177H134.255L134.004 211.675L134.255 210.169Z" fill="#305F9D"/>
<path d="M63.2376 79.679H63.7395L63.4886 80.6827L62.4848 84.4469H61.9829V82.1884L63.2376 79.679Z" fill="#A3CB38"/>
<path d="M285.072 192.854H288.585V194.36L285.072 193.105V192.854Z" fill="#F1F2FB"/>
<path d="M52.9491 78.6753H55.4585L57.4661 79.4281L57.2151 79.93L54.7057 79.4281L52.9491 79.1772V78.6753Z" fill="#A3CB38"/>
<path d="M49.9377 70.645L51.6943 70.896L54.4547 72.4016L54.2038 73.1545L53.2 72.6526L51.4434 71.6488V71.1469H49.9377V70.645Z" fill="#A3CB38"/>
<path d="M40.4018 139.655H40.6527V141.662L40.1508 143.419H39.8999V140.407L40.4018 139.655Z" fill="#002F6C"/>
<path d="M56.9641 73.6562L57.215 74.66L56.7132 76.6676H56.2113L55.9603 75.1619H56.4622L56.9641 73.6562Z" fill="#A3CB38"/>
<path d="M58.4698 70.896H58.9717L58.4698 72.1507L57.466 74.1583L56.9641 73.1545L58.4698 70.896Z" fill="#A3CB38"/>
<path d="M55.4585 61.1091L55.7095 62.1129H55.2076L54.7057 63.1167L53.7019 63.3676L54.2038 62.3638L55.4585 61.1091Z" fill="#A3CB38"/>
<path d="M161.065 240.841H164.361L164.047 245.549H161.222L161.065 240.841Z" fill="#E9F0FD"/>
</svg>
