<svg width="18" height="13" viewBox="0 0 18 13" fill="none" xmlns="http://www.w3.org/2000/svg">
<path d="M9.25239 6.96506L14.3089 5.17944V7.98038H14.3075C14.2765 8.85884 11.9131 9.56792 9.00082 9.56792C6.08853 9.56792 3.7244 8.85884 3.69417 7.98038H3.6927V5.17944L8.74926 6.96432C8.83042 6.99304 8.91527 7.00777 9.00159 7.00777C9.08792 7.00777 9.17277 6.99304 9.25393 6.96432L9.25239 6.96506ZM16.5688 3.98222V5.34148C16.7407 5.39744 16.8669 5.55722 16.8669 5.74719V6.65509C16.8669 6.79941 16.7939 6.92679 16.6839 7.00485C16.7422 7.06155 17.0875 7.43265 17.2587 8.40536C17.4306 9.37953 17.4837 12.6694 17.486 12.8086C17.4874 12.9124 17.4041 12.9985 17.3 13H17.2971C17.1938 13 17.1097 12.9175 17.1082 12.8144C17.1074 12.7806 17.0528 9.41558 16.8868 8.47081C16.844 8.22634 16.7887 8.02753 16.7319 7.86482C16.847 9.48623 16.8758 12.6465 16.8772 12.81C16.878 12.9138 16.7946 12.9992 16.6898 12.9999H16.6883C16.585 12.9999 16.5002 12.9167 16.4994 12.8129C16.4891 11.6156 16.453 9.58632 16.3799 8.27718C16.3076 9.58638 16.2707 11.6157 16.2604 12.8129C16.2596 12.9167 16.1748 12.9999 16.0715 12.9999H16.07C15.966 12.9992 15.8819 12.9138 15.8826 12.81C15.8841 12.6458 15.9129 9.48536 16.028 7.86482C15.9711 8.02755 15.9158 8.2271 15.873 8.47081C15.7063 9.41552 15.6517 12.7805 15.6517 12.8144C15.6502 12.9175 15.5661 13 15.4628 13H15.4598C15.3558 12.9985 15.2724 12.9124 15.2739 12.8086C15.2761 12.6687 15.3292 9.37953 15.5011 8.40536C15.6723 7.43265 16.0176 7.06155 16.0759 7.00485C15.9652 6.9268 15.8929 6.79942 15.8929 6.65509V5.74719C15.8929 5.55722 16.0191 5.39743 16.1918 5.34148V4.11549L9.12693 6.61011C9.08635 6.62484 9.04355 6.63146 9.00076 6.63146C8.95796 6.63146 8.91517 6.6241 8.87458 6.61011L0.7516 3.74207C0.600342 3.68905 0.5 3.54619 0.5 3.38642V3.24504C0.5 3.08526 0.601086 2.94314 0.7516 2.8894L8.87383 0.0213535C8.91441 0.00662682 8.9572 0 9 0C9.04279 0 9.08559 0.00736348 9.12617 0.0213535L17.2484 2.8894C17.3997 2.94241 17.5 3.08527 17.5 3.24504V3.38642C17.5 3.54621 17.3989 3.68832 17.2484 3.74207L16.5688 3.98222ZM9.13206 5.91435C11.1847 5.18612 14.3037 4.07206 16.3858 3.33358C16.4094 3.32622 16.3946 3.2894 16.3732 3.29824C15.7343 3.44698 15.1093 3.63475 14.477 3.8019C12.6899 4.3107 10.7627 4.9491 8.9992 5.56172C6.59596 4.72746 4.09186 3.90423 1.62592 3.2982C1.60304 3.28937 1.59124 3.32692 1.61337 3.33355L5.29822 4.64421C5.90622 4.85995 7.47271 5.4181 8.06148 5.62721C8.21347 5.67875 8.60453 5.82382 8.75209 5.87315C8.86867 5.91954 9.00887 5.96813 9.13134 5.91438L9.13206 5.91435Z" fill="#E9F0FD"/>
</svg>
