<svg width="38" height="36" viewBox="0 0 38 36" fill="none" xmlns="http://www.w3.org/2000/svg">
<path d="M23.4781 27.4954C24.4358 26.5525 23.919 24.3868 22.3546 21.8851C22.9231 21.7963 23.4547 21.6606 23.8568 21.4528C25.3034 20.706 26.2802 19.3451 27.0196 17.9372C27.8144 16.427 28.3478 14.767 29.3851 13.3919C29.5602 13.1594 29.7353 12.951 29.9098 12.7549C32.1477 13.0231 33.9341 13.5041 33.9341 13.5041L34.6167 11.7695C33.7551 11.4604 32.8717 11.2158 31.9738 11.0375C32.5238 10.7248 32.8827 10.6274 32.8827 10.6274L32.2358 8.87859C31.1986 9.31703 30.3569 9.9639 29.6521 10.7384C27.0177 10.591 24.3649 11.1158 22.272 12.7388C20.6983 13.9598 19.6351 15.6525 18.6349 17.3459C17.7485 16.4764 16.8048 15.6674 15.81 14.9243C15.9987 14.6141 16.201 14.3354 16.4187 14.1201C17.734 12.8252 19.4693 11.997 20.6076 10.5152C23.0002 7.40355 21.2502 2.52582 19.2818 0C18.9291 0.339776 18.3457 0.83495 17.9067 1.22591C19.999 3.36878 21.4623 7.12051 19.8226 9.92381C18.9063 11.4907 17.2129 12.4737 16.0289 13.8198C15.8242 14.0535 15.6411 14.3495 15.4752 14.6764C12.379 12.4558 9.53743 11.5623 8.41142 12.671C8.30004 12.7857 8.20799 12.9178 8.13886 13.062L8.13454 13.0576L8.10432 13.1458C8.06239 13.2414 8.02416 13.3407 7.99826 13.4492L0.25 35.7659L22.8578 27.8617L22.8516 27.8555C23.0946 27.7772 23.3085 27.6619 23.4781 27.4954ZM4.74726 32.8874L2.8603 32.008L4.13369 28.339L9.97402 31.0596L4.74726 32.8874ZM15.2002 29.2325L5.40831 24.6699L6.6817 21.0014L13.9989 24.6742C9.63116 21.8314 7.95509 17.3317 7.95509 17.3317L8.39045 16.078C9.16435 18.0359 10.8669 20.4741 13.2065 22.7755C15.5658 25.0978 18.0664 26.7801 20.0649 27.5318L15.2002 29.2325ZM18.9611 17.6764C19.9835 16.2106 21.0374 14.7312 22.5026 13.6786C23.8975 12.6759 26.1618 12.4928 28.3084 12.613C27.5832 13.8797 27.0473 15.285 26.5663 16.6349C25.9848 18.269 25.2054 19.9636 23.7192 20.9656C23.3184 21.2357 22.7566 21.433 22.1566 21.5792C21.3322 20.3157 20.2506 18.98 18.9611 17.6764Z" fill="#002F6C"/>
<path d="M13.2217 11.7164C13.8396 11.7164 11.9871 9.8664 12.2967 8.24398C13.4831 8.15271 16.1952 8.68735 14.6165 6.5192C16.4024 6.83369 17.3274 5.50048 15.6414 4.23696C16.2026 4.27643 17.0745 3.21825 16.4486 3.08443C14.4433 2.65956 13.6583 3.74425 14.931 5.30871C13.5929 5.05958 12.502 5.68178 13.5072 7.07912C9.64323 6.59751 11.8416 11.7164 13.2217 11.7164ZM26.4871 10.0724C27.0662 9.8109 26.0838 8.08365 25.7644 7.64212C28.2082 7.38066 28.1157 6.65239 26.5833 5.09226C30.7495 5.23224 26.7122 2.86429 27.2783 1.92697C27.7685 1.11422 29.2726 1.96644 29.1332 1.51382C28.6633 -7.04527e-05 24.2061 1.02358 27.0267 3.85032C24.565 3.89842 24.3288 4.70315 26.1634 6.3712C22.9679 6.40635 25.5751 10.4831 26.4871 10.0724ZM37.064 16.1717C36.0884 16.4449 35.938 16.3425 36.0681 17.3137C33.8148 16.2765 31.4309 14.8342 32.8775 18.6556C30.3184 17.1318 30.4461 18.4663 29.9675 20.6622C29.3447 20.1769 28.4598 18.8979 28.4598 18.8979L27.5225 19.694C27.5225 19.694 29.2399 22.1162 30.0878 21.9787C30.8333 21.8585 31.2391 20.4494 31.2804 19.2075C33.6545 20.2095 34.791 20.3434 33.7051 17.413C35.6031 18.4792 37.9304 19.4196 37.064 16.1717ZM2.74842 5.20264L4.49232 6.94715L2.74842 8.69105L1.00391 6.94715L2.74842 5.20264ZM6.92625 12.4551L5.18112 14.199L3.43661 12.4539L5.18174 10.7094L6.92625 12.4551ZM9.63706 2.46655L11.381 4.21044L9.63645 5.95558L7.89255 4.21044L9.63706 2.46655ZM28.6245 26.8145L26.8793 25.07L28.6232 23.3249L30.3684 25.0694L28.6245 26.8145ZM24.7358 32.7973L22.9919 31.0534L24.7358 29.3089L26.4804 31.0534L24.7358 32.7973ZM32.3873 34.1749L30.6422 32.4304L32.3854 30.6853L34.1306 32.4298L32.3873 34.1749ZM34.1312 26.2299L32.3873 24.4854L34.1312 22.7415L35.8751 24.4854L34.1312 26.2299ZM31.22 4.31651L32.9639 6.06041L31.2193 7.80492L29.4754 6.06041L31.22 4.31651Z" fill="#002F6C"/>
</svg>
