<svg width="21" height="22" viewBox="0 0 21 22" fill="none" xmlns="http://www.w3.org/2000/svg">
<path d="M10.5 21.5C9.0475 21.5 7.6825 21.2242 6.405 20.6726C5.1275 20.121 4.01625 19.373 3.07125 18.4287C2.12625 17.4844 1.3783 16.3732 0.827401 15.095C0.276501 13.8168 0.000701329 12.4518 1.32911e-06 11C-0.00069867 9.5482 0.275101 8.1832 0.827401 6.905C1.3797 5.6268 2.12765 4.51555 3.07125 3.57125C4.01485 2.62695 5.1261 1.879 6.405 1.3274C7.6839 0.7758 9.0489 0.5 10.5 0.5C11.9511 0.5 13.3161 0.7758 14.595 1.3274C15.8739 1.879 16.9851 2.62695 17.9287 3.57125C18.8723 4.51555 19.6206 5.6268 20.1736 6.905C20.7266 8.1832 21.0021 9.5482 21 11C20.9979 12.4518 20.7221 13.8168 20.1726 15.095C19.6231 16.3732 18.8751 17.4844 17.9287 18.4287C16.9823 19.373 15.8711 20.1213 14.595 20.6736C13.3189 21.2259 11.9539 21.5014 10.5 21.5ZM10.5 19.4C11.445 19.4 12.355 19.247 13.23 18.9411C14.105 18.6352 14.91 18.1932 15.645 17.615L3.885 5.855C3.3075 6.59 2.86545 7.395 2.55885 8.27C2.25225 9.145 2.0993 10.055 2.1 11C2.1 13.345 2.91375 15.3312 4.54125 16.9587C6.16875 18.5862 8.155 19.4 10.5 19.4ZM17.115 16.145C17.6925 15.41 18.1345 14.605 18.4411 13.73C18.7477 12.855 18.9007 11.945 18.9 11C18.9 8.655 18.0862 6.66875 16.4587 5.04125C14.8312 3.41375 12.845 2.6 10.5 2.6C9.555 2.6 8.645 2.75295 7.77 3.05885C6.895 3.36475 6.09 3.8068 5.355 4.385L17.115 16.145Z" fill="#002F6C"/>
</svg>
