<svg width="24" height="20" viewBox="0 0 24 20" fill="none" xmlns="http://www.w3.org/2000/svg">
<path d="M22.0498 19.9931H1.86023C0.834443 19.9931 0 18.9337 0 17.6316V3.25748C0 1.95532 0.834443 0.895905 1.86023 0.895905H22.0498C23.0756 0.895905 23.9101 1.95532 23.9101 3.25748V17.6316C23.9101 18.9337 23.0756 19.9931 22.0498 19.9931ZM1.86023 2.49337C1.52842 2.49337 1.25842 2.83611 1.25842 3.25748V17.6316C1.25842 18.0529 1.52842 18.3957 1.86023 18.3957H22.0498C22.3816 18.3957 22.6516 18.0529 22.6516 17.6316V3.25748C22.6516 2.83611 22.3816 2.49337 22.0498 2.49337H1.86023Z" fill="#0C2C7E"/>
<path d="M11.9547 11.3025C11.2932 11.3025 10.6317 11.0605 10.0546 10.5764L1.17039 3.10663C0.907238 2.88537 0.833132 2.511 0.992149 2.20617C1.20908 1.79032 1.75525 1.68221 2.11425 1.98406L10.7488 9.244C11.4816 9.85865 12.4287 9.85834 13.1618 9.24353L21.7957 1.98406C22.1547 1.68222 22.7009 1.79033 22.9178 2.20617C23.0768 2.511 23.0027 2.88537 22.7396 3.10663L13.856 10.576C13.2784 11.0603 12.6165 11.3025 11.9547 11.3025Z" fill="#0C2C7E"/>
</svg>
