<svg width="22" height="22" viewBox="0 0 22 22" fill="none" xmlns="http://www.w3.org/2000/svg">
<path d="M21.6335 11.0565C21.6213 13.6484 20.6611 16.1451 18.9358 18.0711C17.2105 19.997 14.8407 21.2175 12.278 21.5V13.9278H14.7455C14.8541 13.9284 14.9592 13.889 15.0408 13.8171C15.1224 13.7451 15.175 13.6456 15.1886 13.5372L15.4553 11.2127C15.465 11.1517 15.4612 11.0893 15.4444 11.0298C15.4275 10.9704 15.398 10.9154 15.3578 10.8686C15.3176 10.8219 15.2677 10.7845 15.2117 10.7592C15.1556 10.7338 15.0947 10.7211 15.0332 10.7218H12.278V8.82167C12.278 7.93915 12.5227 7.33637 13.7774 7.33637H14.945C15.061 7.33334 15.1712 7.28482 15.252 7.20117C15.3329 7.11753 15.378 7.00541 15.3776 6.88878V4.88938C15.3749 4.77279 15.3269 4.66191 15.2439 4.58044C15.1609 4.49896 15.0495 4.45337 14.9335 4.4534H13.0445C12.514 4.41526 11.9815 4.49398 11.4843 4.68408C10.987 4.87417 10.5371 5.17106 10.1658 5.55402C9.79445 5.93698 9.51073 6.39679 9.3344 6.90136C9.15807 7.40594 9.09338 7.94312 9.14484 8.47542V10.7092H7.28949C7.23156 10.7091 7.17421 10.7208 7.12083 10.7434C7.06745 10.7661 7.01912 10.7992 6.9787 10.8409C6.93828 10.8827 6.90658 10.9321 6.88548 10.9864C6.86438 11.0406 6.8543 11.0985 6.85584 11.1568V13.4792C6.85584 13.5948 6.90153 13.7057 6.98286 13.7875C7.06418 13.8692 7.17448 13.9152 7.28949 13.9152H9.14484V21.3438C6.76236 20.8818 4.61255 19.6045 3.06089 17.7291C1.50924 15.8537 0.651513 13.4958 0.633545 11.0565C0.633545 8.25673 1.73979 5.57164 3.70892 3.59192C5.67806 1.6122 8.34877 0.5 11.1335 0.5C13.9183 0.5 16.589 1.6122 18.5582 3.59192C20.5273 5.57164 21.6335 8.25673 21.6335 11.0565Z" fill="#E9F0FD"/>
</svg>
