<svg width="28" height="28" viewBox="0 0 28 28" fill="none" xmlns="http://www.w3.org/2000/svg">
<path d="M28 14.0753C27.9837 17.5311 26.7034 20.8602 24.403 23.4281C22.1026 25.996 18.9429 27.6233 15.526 28V17.9038H18.816C18.9608 17.9046 19.1008 17.852 19.2097 17.7561C19.3185 17.6601 19.3887 17.5274 19.4068 17.383L19.7624 14.2836C19.7752 14.2022 19.7703 14.119 19.7478 14.0398C19.7253 13.9605 19.6859 13.8872 19.6323 13.8248C19.5787 13.7625 19.5122 13.7127 19.4375 13.6789C19.3627 13.6451 19.2816 13.6281 19.1996 13.6291H15.526V11.0956C15.526 9.91887 15.8522 9.11517 17.5252 9.11517H19.082C19.2366 9.11112 19.3835 9.04642 19.4913 8.9349C19.5991 8.82337 19.6592 8.67388 19.6588 8.51837V5.85251C19.6551 5.69706 19.5911 5.54921 19.4805 5.44058C19.3698 5.33195 19.2213 5.27116 19.0666 5.2712H16.548C15.8405 5.22034 15.1306 5.32531 14.4676 5.57877C13.8047 5.83223 13.2047 6.22808 12.7096 6.73869C12.2145 7.24931 11.8362 7.86239 11.6011 8.53515C11.366 9.20792 11.2798 9.92416 11.3484 10.6339V13.6122H8.8746C8.79736 13.6122 8.72089 13.6277 8.64972 13.6579C8.57854 13.6881 8.51411 13.7323 8.46021 13.7879C8.40631 13.8436 8.36405 13.9095 8.33591 13.9818C8.30778 14.0541 8.29434 14.1314 8.2964 14.209V17.3056C8.2964 17.4598 8.35732 17.6076 8.46575 17.7166C8.57418 17.8257 8.72125 17.8869 8.8746 17.8869H11.3484V27.7917C8.17176 27.1757 5.30534 25.4727 3.23647 22.9721C1.16759 20.4716 0.0239575 17.3278 0 14.0753C0 10.3423 1.475 6.76219 4.1005 4.12256C6.72601 1.48293 10.287 0 14 0C17.713 0 21.274 1.48293 23.8995 4.12256C26.525 6.76219 28 10.3423 28 14.0753Z" fill="#002F6C"/>
</svg>
