<svg width="135" height="95" viewBox="0 0 135 95" fill="none" xmlns="http://www.w3.org/2000/svg">
<path d="M46.9425 0C21.7335 0 1.293 20.439 1.293 45.6495C1.293 56.0265 4.764 65.5875 10.596 73.257L0 93.891L21.3585 83.457C28.6575 88.407 37.4625 91.299 46.9425 91.299C72.156 91.299 92.5935 70.8615 92.5935 45.6495C92.5935 20.439 72.156 0 46.9425 0ZM54.339 75.657H40.914V62.79H54.339V75.657ZM61.194 45.288L55.761 52.242C54.8145 53.466 54.339 54.7185 54.339 55.9995V56.7165H40.914V54.8775C40.914 51.5235 42.0225 48.564 44.238 46.008L49.917 39.453C51.3735 37.7475 52.104 36.2565 52.104 34.98C52.104 31.728 50.5065 30.1035 47.307 30.1035C44.1105 30.1035 42.513 31.7805 42.513 35.136H29.406C29.406 29.9175 31.191 25.7325 34.758 22.59C38.0625 19.7115 42.246 18.273 47.307 18.273C52.3155 18.273 56.469 19.686 59.775 22.5105C63.399 25.6005 65.211 29.7825 65.211 35.0565C65.211 38.4675 63.8715 41.8785 61.194 45.288Z" fill="#002F6C"/>
<path d="M128.484 81.8506C132.06 77.1451 134.208 71.2951 134.208 64.9306C134.208 49.4551 121.656 36.9106 106.188 36.9106C102.939 36.9106 99.8355 37.4911 96.933 38.5051C97.2675 40.8421 97.4475 43.2241 97.4475 45.6496C97.4475 59.3191 91.9815 71.7286 83.1285 80.8321C88.1835 88.1461 96.621 92.9461 106.188 92.9461C112.005 92.9461 117.408 91.1716 121.89 88.1371L135 94.5391L128.484 81.8506ZM110.949 81.3421H103.74V58.6186H110.949V81.3421ZM110.949 55.2811H103.74V49.7881H110.949V55.2811Z" fill="#002F6C"/>
</svg>
