<svg width="26" height="43" viewBox="0 0 26 43" fill="none" xmlns="http://www.w3.org/2000/svg">
<path d="M26 13.9118C26 6.22235 20.1855 0 13 0C5.81455 0 0 6.22235 0 13.9118C0 20.7412 4.58545 26.3818 10.6364 27.5706V32.8824H5.90909V37.9412H10.6364V43H15.3636V37.9412H20.0909V32.8824H15.3636V27.5706C21.4145 26.3818 26 20.7412 26 13.9118ZM4.72727 13.9118C4.72727 9.03 8.43818 5.05882 13 5.05882C17.5618 5.05882 21.2727 9.03 21.2727 13.9118C21.2727 18.7935 17.5618 22.7647 13 22.7647C8.43818 22.7647 4.72727 18.7935 4.72727 13.9118Z" fill="#002F6C"/>
</svg>
