<svg width="26" height="27" viewBox="0 0 26 27" fill="none" xmlns="http://www.w3.org/2000/svg">
<path fill-rule="evenodd" clip-rule="evenodd" d="M0 2.13854C0 1.57136 0.228273 1.02742 0.634602 0.626364C1.04093 0.22531 1.59203 0 2.16667 0H23.8333C24.408 0 24.9591 0.22531 25.3654 0.626364C25.7717 1.02742 26 1.57136 26 2.13854V5.11253C25.9998 5.86871 25.6954 6.59385 25.1536 7.12846L17.3333 14.8472V25.4315C17.3334 25.6989 17.2642 25.9618 17.1323 26.1953C17.0004 26.4288 16.8102 26.6252 16.5798 26.7657C16.3494 26.9063 16.0864 26.9864 15.8158 26.9984C15.5453 27.0104 15.276 26.954 15.0338 26.8344L9.66478 24.1854C9.36487 24.0374 9.11264 23.8099 8.93635 23.5284C8.76006 23.2469 8.66668 22.9225 8.66667 22.5915V14.8472L0.846444 7.12846C0.304635 6.59385 0.000163619 5.86871 0 5.11253V2.13854Z" fill="#002F6C"/>
</svg>
