<svg width="24" height="21" viewBox="0 0 24 21" fill="none" xmlns="http://www.w3.org/2000/svg">
<path fill-rule="evenodd" clip-rule="evenodd" d="M1.93939 0.158311C1.66849 -0.0743754 1.25672 -0.0474266 1.01968 0.218504L0.161272 1.18152C-0.0757669 1.44744 -0.0483139 1.85164 0.222592 2.08434L4.42012 5.68973C1.41345 7.75153 0.268008 10.5 0.268008 10.5C0.268008 10.5 3.20102 17.5379 12 17.5379C14.0037 17.5379 15.7032 17.173 17.1332 16.6093L22.0606 20.8416C22.3315 21.0744 22.7433 21.0474 22.9803 20.7815L23.8387 19.8185C24.0758 19.5526 24.0483 19.1483 23.7774 18.9157L1.93939 0.158311ZM14.1758 14.0693L8.10714 8.85659C7.88599 9.36076 7.76348 9.91638 7.76348 10.5C7.76348 12.7969 9.66025 14.6588 12 14.6588C12.7956 14.6588 13.5399 14.4435 14.1758 14.0693ZM16.2366 10.5C16.2366 10.7104 16.2207 10.917 16.19 11.119L20.3769 14.7153C22.7913 12.7575 23.732 10.5 23.732 10.5C23.732 10.5 20.799 3.46214 12 3.46214C10.472 3.46214 9.12077 3.6744 7.93116 4.02521L10.8185 6.50519C11.1935 6.39848 11.5899 6.34128 12 6.34128C14.3399 6.34128 16.2366 8.20322 16.2366 10.5Z" fill="#002F6C"/>
</svg>
