<svg width="84" height="84" viewBox="0 0 84 84" fill="none" xmlns="http://www.w3.org/2000/svg">
<path d="M29.1689 50.7499H70.6868L56.3631 32.0669L46.814 44.5222L40.3788 36.2186L29.1689 50.7499ZM25.0172 67.357C22.7337 67.357 20.7796 66.5447 19.1548 64.9199C17.5301 63.2952 16.7164 61.3397 16.7136 59.0535V9.23204C16.7136 6.94856 17.5273 4.99445 19.1548 3.36972C20.7823 1.74498 22.7364 0.931235 25.0172 0.928467H74.8386C77.1221 0.928467 79.0776 1.74222 80.7051 3.36972C82.3326 4.99722 83.1449 6.95132 83.1422 9.23204V59.0535C83.1422 61.337 82.3298 63.2924 80.7051 64.9199C79.0803 66.5474 77.1248 67.3598 74.8386 67.357H25.0172ZM8.41002 83.9642C6.12653 83.9642 4.17243 83.1518 2.5477 81.5271C0.922963 79.9024 0.109213 77.9469 0.106445 75.6606V17.5356H8.41002V75.6606H66.535V83.9642H8.41002Z" fill="#002F6C"/>
</svg>
