<svg width="29" height="28" viewBox="0 0 29 28" fill="none" xmlns="http://www.w3.org/2000/svg">
<path d="M14.5 7.53846C13.1764 7.53846 11.8825 7.91743 10.782 8.62743C9.68141 9.33743 8.82364 10.3466 8.31711 11.5273C7.81059 12.708 7.67806 14.0072 7.93628 15.2606C8.19451 16.514 8.83189 17.6653 9.76782 18.569C10.7038 19.4727 11.8962 20.0881 13.1944 20.3374C14.4926 20.5867 15.8382 20.4587 17.061 19.9697C18.2839 19.4806 19.3291 18.6524 20.0644 17.5898C20.7998 16.5272 21.1923 15.278 21.1923 14C21.1905 12.2868 20.4848 10.6444 19.2301 9.43297C17.9755 8.22158 16.2743 7.54024 14.5 7.53846ZM14.5 18.3077C13.6176 18.3077 12.755 18.0551 12.0213 17.5817C11.2876 17.1084 10.7158 16.4356 10.3781 15.6485C10.0404 14.8614 9.95204 13.9952 10.1242 13.1596C10.2963 12.324 10.7213 11.5564 11.3452 10.954C11.9692 10.3516 12.7641 9.94129 13.6296 9.77508C14.4951 9.60887 15.3921 9.69417 16.2074 10.0202C17.0226 10.3463 17.7194 10.8984 18.2096 11.6068C18.6999 12.3152 18.9615 13.148 18.9615 14C18.9615 15.1425 18.4915 16.2381 17.6548 17.046C16.8181 17.8538 15.6833 18.3077 14.5 18.3077ZM21.1923 0H7.80769C5.73764 0.002138 3.75301 0.797053 2.28927 2.21033C0.825519 3.6236 0.00221435 5.53979 0 7.53846V20.4615C0.00221435 22.4602 0.825519 24.3764 2.28927 25.7897C3.75301 27.2029 5.73764 27.9979 7.80769 28H21.1923C23.2624 27.9979 25.247 27.2029 26.7107 25.7897C28.1745 24.3764 28.9978 22.4602 29 20.4615V7.53846C28.9978 5.53979 28.1745 3.6236 26.7107 2.21033C25.247 0.797053 23.2624 0.002138 21.1923 0ZM26.7692 20.4615C26.7692 21.8896 26.1817 23.2592 25.1358 24.269C24.0899 25.2788 22.6714 25.8462 21.1923 25.8462H7.80769C6.3286 25.8462 4.91009 25.2788 3.86421 24.269C2.81834 23.2592 2.23077 21.8896 2.23077 20.4615V7.53846C2.23077 6.11037 2.81834 4.74078 3.86421 3.73096C4.91009 2.72115 6.3286 2.15385 7.80769 2.15385H21.1923C22.6714 2.15385 24.0899 2.72115 25.1358 3.73096C26.1817 4.74078 26.7692 6.11037 26.7692 7.53846V20.4615ZM23.4231 7C23.4231 7.31949 23.325 7.63181 23.1411 7.89746C22.9573 8.16311 22.696 8.37016 22.3903 8.49242C22.0845 8.61469 21.7481 8.64668 21.4236 8.58435C21.0991 8.52202 20.8009 8.36817 20.567 8.14225C20.333 7.91633 20.1736 7.6285 20.1091 7.31515C20.0445 7.00179 20.0776 6.67699 20.2043 6.38182C20.3309 6.08665 20.5454 5.83436 20.8205 5.65686C21.0956 5.47936 21.4191 5.38462 21.75 5.38462C22.1937 5.38462 22.6193 5.55481 22.933 5.85775C23.2468 6.16069 23.4231 6.57157 23.4231 7Z" fill="#002F6C"/>
</svg>
