<svg width="22" height="22" viewBox="0 0 22 22" fill="none" xmlns="http://www.w3.org/2000/svg">
<path d="M11.1335 6.15385C10.1751 6.15385 9.23811 6.43807 8.44117 6.97057C7.64422 7.50307 7.02308 8.25994 6.65628 9.14546C6.28949 10.031 6.19352 11.0054 6.38051 11.9454C6.5675 12.8855 7.02905 13.749 7.7068 14.4267C8.38454 15.1045 9.24804 15.566 10.1881 15.753C11.1282 15.94 12.1026 15.8441 12.9881 15.4773C13.8736 15.1105 14.6305 14.4893 15.163 13.6924C15.6955 12.8954 15.9797 11.9585 15.9797 11C15.9784 9.71513 15.4674 8.48327 14.5588 7.57473C13.6503 6.66619 12.4184 6.15518 11.1335 6.15385ZM11.1335 14.2308C10.4946 14.2308 9.86992 14.0413 9.33863 13.6863C8.80733 13.3313 8.39323 12.8267 8.1487 12.2364C7.90417 11.646 7.84019 10.9964 7.96485 10.3697C8.08951 9.743 8.39721 9.16733 8.84905 8.7155C9.30088 8.26367 9.87654 7.95597 10.5033 7.83131C11.13 7.70665 11.7796 7.77063 12.3699 8.01516C12.9603 8.25969 13.4648 8.67378 13.8198 9.20508C14.1748 9.73638 14.3643 10.361 14.3643 11C14.3643 11.8569 14.0239 12.6786 13.418 13.2845C12.8122 13.8904 11.9904 14.2308 11.1335 14.2308ZM15.9797 0.5H6.28739C4.78839 0.501603 3.35124 1.09779 2.29129 2.15774C1.23133 3.2177 0.635148 4.65484 0.633545 6.15385V15.8462C0.635148 17.3452 1.23133 18.7823 2.29129 19.8423C3.35124 20.9022 4.78839 21.4984 6.28739 21.5H15.9797C17.4787 21.4984 18.9158 20.9022 19.9758 19.8423C21.0358 18.7823 21.6319 17.3452 21.6335 15.8462V6.15385C21.6319 4.65484 21.0358 3.2177 19.9758 2.15774C18.9158 1.09779 17.4787 0.501603 15.9797 0.5ZM20.0182 15.8462C20.0182 16.9172 19.5927 17.9444 18.8353 18.7018C18.078 19.4591 17.0508 19.8846 15.9797 19.8846H6.28739C5.21632 19.8846 4.18913 19.4591 3.43177 18.7018C2.67441 17.9444 2.24893 16.9172 2.24893 15.8462V6.15385C2.24893 5.08278 2.67441 4.05558 3.43177 3.29822C4.18913 2.54086 5.21632 2.11538 6.28739 2.11538H15.9797C17.0508 2.11538 18.078 2.54086 18.8353 3.29822C19.5927 4.05558 20.0182 5.08278 20.0182 6.15385V15.8462ZM17.5951 5.75C17.5951 5.98962 17.524 6.22386 17.3909 6.42309C17.2578 6.62233 17.0686 6.77762 16.8472 6.86932C16.6258 6.96101 16.3822 6.98501 16.1472 6.93826C15.9122 6.89151 15.6963 6.77612 15.5269 6.60669C15.3574 6.43725 15.242 6.22137 15.1953 5.98636C15.1485 5.75134 15.1725 5.50774 15.2642 5.28636C15.3559 5.06498 15.5112 4.87577 15.7105 4.74264C15.9097 4.60952 16.1439 4.53846 16.3835 4.53846C16.7049 4.53846 17.013 4.66611 17.2402 4.89331C17.4674 5.12052 17.5951 5.42868 17.5951 5.75Z" fill="#E9F0FD"/>
</svg>
