<svg width="33" height="33" viewBox="0 0 33 33" fill="none" xmlns="http://www.w3.org/2000/svg">
<path d="M33 0V12.375H28.875V7.06406L20.6766 15.2109C21.3297 16.1734 21.8281 17.1964 22.1719 18.2799C22.5156 19.3634 22.6875 20.4889 22.6875 21.6562C22.6875 24.8188 21.5875 27.5 19.3875 29.7C17.1875 31.9 14.5063 33 11.3438 33C8.18125 33 5.5 31.9 3.3 29.7C1.1 27.5 0 24.8188 0 21.6562C0 18.4937 1.1 15.8125 3.3 13.6125C5.5 11.4125 8.18125 10.3125 11.3438 10.3125C12.4781 10.3125 13.5953 10.4754 14.6953 10.8013C15.7953 11.1272 16.8094 11.6346 17.7375 12.3234L25.9359 4.125H20.625V0H33ZM11.3438 14.4375C9.35 14.4375 7.64844 15.1422 6.23906 16.5516C4.82969 17.9609 4.125 19.6625 4.125 21.6562C4.125 23.65 4.82969 25.3516 6.23906 26.7609C7.64844 28.1703 9.35 28.875 11.3438 28.875C13.3375 28.875 15.0391 28.1703 16.4484 26.7609C17.8578 25.3516 18.5625 23.65 18.5625 21.6562C18.5625 19.6625 17.8578 17.9609 16.4484 16.5516C15.0391 15.1422 13.3375 14.4375 11.3438 14.4375Z" fill="#002F6C"/>
</svg>
