<svg width="47" height="34" viewBox="0 0 47 34" fill="none" xmlns="http://www.w3.org/2000/svg">
<path d="M46.2354 22.2976V26.6322C46.2354 28.7613 44.5116 30.4851 42.3824 30.4851H35.5535C35.6117 30.1761 35.6398 29.849 35.6398 29.5219V23.7425C35.6398 20.8327 34.6283 18.0977 32.8945 15.94C33.6932 15.2858 34.6082 14.7841 35.6097 14.4751C33.9139 13.5982 32.748 11.8262 32.748 9.77532C32.748 6.8475 35.118 4.47778 38.0456 4.47778C40.9734 4.47778 43.3431 6.84775 43.3431 9.77532C43.3431 11.8262 42.1772 13.6002 40.4815 14.4751C43.8147 15.5146 46.2327 18.627 46.2327 22.2976L46.2354 22.2976Z" fill="#002F6C"/>
<path d="M10.5956 23.7424V29.5218C10.5956 29.8489 10.6237 30.176 10.6819 30.4851H3.85294C1.72381 30.4851 0 28.7613 0 26.6321V22.2976C0 18.6273 2.41811 15.5169 5.75116 14.4751C4.05545 13.5982 2.88955 11.8262 2.88955 9.77532C2.88955 6.8475 5.25952 4.47778 8.18709 4.47778C11.1147 4.47778 13.4846 6.84775 13.4846 9.77532C13.4846 11.8262 12.3187 13.6002 10.623 14.4751C11.6244 14.7841 12.5395 15.2838 13.3382 15.94C11.6043 18.0973 10.5929 20.8324 10.5929 23.7425L10.5956 23.7424Z" fill="#002F6C"/>
<path d="M25.8671 13.5205C28.219 12.467 29.8605 10.1111 29.8605 7.36765C29.8605 3.64314 26.8424 0.625 23.1178 0.625C19.3933 0.625 16.3752 3.64314 16.3752 7.36765C16.3752 10.1108 18.0167 12.4668 20.3686 13.5205C15.8534 14.7326 12.5225 18.8443 12.5225 23.7426V29.5221C12.5225 31.6492 14.2483 33.375 16.3754 33.375H29.8607C31.9878 33.375 33.7136 31.6492 33.7136 29.5221V23.7426C33.7136 18.8442 30.384 14.7324 25.8671 13.5205Z" fill="#002F6C"/>
</svg>
