<svg width="28" height="18" viewBox="0 0 28 18" fill="none" xmlns="http://www.w3.org/2000/svg">
<path fill-rule="evenodd" clip-rule="evenodd" d="M27.9024 9.36092C27.8276 9.48645 22.7341 18 14 18C5.26589 18 0.172441 9.48671 0.0975768 9.36092C-0.0325256 9.13974 -0.0325256 8.86119 0.0975768 8.64C0.172415 8.51327 5.26589 0 14 0C22.7341 0 27.8276 8.51207 27.9024 8.63908C28.0325 8.86145 28.0325 9.13854 27.9024 9.36092ZM14 4.15427C11.4245 4.15427 9.33363 6.32538 9.33363 8.99977C9.33363 11.6742 11.4245 13.8453 14 13.8453C16.5755 13.8453 18.6664 11.6742 18.6664 8.99977C18.6664 6.32538 16.5755 4.15427 14 4.15427Z" fill="#002F6C"/>
</svg>
