<svg width="22" height="27" viewBox="0 0 22 27" fill="none" xmlns="http://www.w3.org/2000/svg">
<path d="M18.4242 8.37577C18.2518 8.37577 18.1119 8.23596 18.1119 8.06349V8.02244C18.1119 3.72128 14.8955 0.221924 10.9171 0.221924C6.96373 0.221924 3.7473 3.72128 3.7473 8.02244V8.06349C3.7473 8.23596 3.60749 8.37577 3.43502 8.37577C1.54014 8.37577 0 10.0514 0 12.1129V22.9847C0 25.0463 1.54014 26.7219 3.43502 26.7219H18.4242C20.3191 26.7219 21.8592 25.0463 21.8592 22.9847V12.1129C21.8592 10.0514 20.3191 8.37577 18.4242 8.37577ZM5.62095 8.02244C5.62095 4.84515 7.99674 2.26039 10.9421 2.26039C13.8625 2.26039 16.2383 4.84515 16.2383 8.02244C16.2383 8.21758 16.0801 8.37577 15.885 8.37577H5.97428C5.77914 8.37577 5.62095 8.21758 5.62095 8.02244ZM19.9856 22.9847C19.9856 23.9211 19.2849 24.6835 18.4242 24.6835H3.43502C2.57439 24.6835 1.87365 23.9211 1.87365 22.9847V12.1129C1.87365 11.1766 2.57439 10.4142 3.43502 10.4142H18.4242C19.2849 10.4142 19.9856 11.1766 19.9856 12.1129V22.9847ZM12.491 16.1899C12.491 17.1482 11.8664 18.0667 11.8664 19.0251V19.5873C11.8664 20.1499 11.4468 20.6065 10.9296 20.6065C10.4125 20.6065 9.9928 20.1499 9.9928 19.5873V19.0251C9.9928 18.0667 9.36825 17.1482 9.36825 16.1899C9.36825 15.2535 10.069 14.4912 10.9296 14.4912C11.7903 14.4912 12.491 15.2535 12.491 16.1899Z" fill="#0C2C7E"/>
</svg>
