<svg width="15" height="14" viewBox="0 0 15 14" fill="none" xmlns="http://www.w3.org/2000/svg">
<path d="M5.4 8.4H12.4L9.985 5.25L8.375 7.35L7.29 5.95L5.4 8.4ZM4.7 11.2C4.315 11.2 3.98553 11.063 3.7116 10.7891C3.43767 10.5152 3.30047 10.1855 3.3 9.8V1.4C3.3 1.015 3.4372 0.685533 3.7116 0.4116C3.986 0.137667 4.31547 0.000466667 4.7 0H13.1C13.485 0 13.8147 0.1372 14.0891 0.4116C14.3635 0.686 14.5005 1.01547 14.5 1.4V9.8C14.5 10.185 14.363 10.5147 14.0891 10.7891C13.8152 11.0635 13.4855 11.2005 13.1 11.2H4.7ZM1.9 14C1.515 14 1.18553 13.863 0.9116 13.5891C0.637667 13.3152 0.500467 12.9855 0.5 12.6V2.8H1.9V12.6H11.7V14H1.9Z" fill="#E9F0FD"/>
</svg>
