<svg width="23" height="24" viewBox="0 0 23 24" fill="none" xmlns="http://www.w3.org/2000/svg">
<path d="M21.2111 23.5L13.1611 15.45C12.5222 15.9611 11.7875 16.3657 10.9569 16.6639C10.1264 16.962 9.24259 17.1111 8.30556 17.1111C5.98426 17.1111 4.01989 16.307 2.41245 14.6987C0.805001 13.0904 0.000852528 11.126 6.76073e-07 8.80556C-0.000851176 6.48511 0.803297 4.52074 2.41245 2.91244C4.02159 1.30415 5.98596 0.5 8.30556 0.5C10.6251 0.5 12.5899 1.30415 14.1999 2.91244C15.8099 4.52074 16.6137 6.48511 16.6111 8.80556C16.6111 9.74259 16.462 10.6264 16.1639 11.4569C15.8657 12.2875 15.4611 13.0222 14.95 13.6611L23 21.7111L21.2111 23.5ZM8.30556 14.5556C9.90278 14.5556 11.2606 13.9967 12.3791 12.8791C13.4976 11.7615 14.0564 10.4036 14.0556 8.80556C14.0547 7.20748 13.4959 5.85006 12.3791 4.73328C11.2623 3.6165 9.90448 3.05726 8.30556 3.05556C6.70663 3.05385 5.3492 3.61309 4.23328 4.73328C3.11735 5.85346 2.55811 7.21089 2.55556 8.80556C2.553 10.4002 3.11224 11.7581 4.23328 12.8791C5.35432 14.0001 6.71174 14.559 8.30556 14.5556Z" fill="#002F6C"/>
</svg>
