<svg width="32" height="27" viewBox="0 0 32 27" fill="none" xmlns="http://www.w3.org/2000/svg">
<path d="M19.8095 21V24C19.8095 24.7956 19.4884 25.5587 18.9169 26.1213C18.3454 26.6839 17.5702 27 16.7619 27H3.04762C2.23934 27 1.46417 26.6839 0.892627 26.1213C0.321087 25.5587 0 24.7956 0 24V3C0 2.20435 0.321087 1.44129 0.892627 0.87868C1.46417 0.31607 2.23934 0 3.04762 0H16.7619C17.5702 0 18.3454 0.31607 18.9169 0.87868C19.4884 1.44129 19.8095 2.20435 19.8095 3V6H16.7619V3H3.04762V24H16.7619V21H19.8095ZM23.619 5.25L21.4644 7.371L26.1669 12H10.6667V15H26.1669L21.4644 19.629L23.619 21.75L32 13.5L23.619 5.25Z" fill="#002F6C"/>
</svg>
