<svg width="26" height="28" viewBox="0 0 26 28" fill="none" xmlns="http://www.w3.org/2000/svg">
<path d="M11.5171 6.42779C11.9547 6.93097 11.9192 7.70415 11.4343 8.15824C11.2096 8.36688 10.9258 8.47733 10.642 8.47733C10.3227 8.47733 10.0034 8.34233 9.76683 8.07233L7.09413 5.00415V26.2728C7.09413 26.9478 6.56196 27.5001 5.91152 27.5001C5.26108 27.5001 4.72891 26.9478 4.72891 26.2728V5.01642L2.05621 8.08461C1.61864 8.58779 0.873596 8.62461 0.388726 8.17052C-0.0961448 7.71642 -0.131623 6.94324 0.305943 6.44006L5.03639 1.00324C5.03639 1.00324 5.07187 0.978697 5.09552 0.954152C5.09552 0.954152 5.10734 0.929607 5.11917 0.917334C5.14282 0.892788 5.16647 0.892788 5.19013 0.880516C5.27291 0.819152 5.35569 0.757788 5.4503 0.72097C5.48578 0.708697 5.53308 0.684152 5.56856 0.671879C5.68682 0.635061 5.79326 0.622788 5.91152 0.622788C5.93517 0.622788 5.947 0.622788 5.97065 0.622788C6.08891 0.622788 6.20717 0.659606 6.32543 0.696425C6.33726 0.696425 6.34909 0.708697 6.36091 0.72097C6.39639 0.733243 6.43187 0.757788 6.46735 0.782334C6.56196 0.831425 6.64474 0.905061 6.7157 0.978697C6.72752 0.99097 6.75117 1.00324 6.77483 1.02779L11.5053 6.46461L11.5171 6.42779ZM25.6493 20.161C25.1763 19.6946 24.4312 19.7069 23.9818 20.1978L21.2855 23.131V1.72733C21.2855 1.05233 20.7533 0.500061 20.1029 0.500061C19.4524 0.500061 18.9202 1.05233 18.9202 1.72733V23.1432L16.2239 20.2101C15.7745 19.7192 15.0176 19.6946 14.5564 20.1732C14.0834 20.6396 14.0597 21.4128 14.5091 21.9037L19.2395 27.0582C19.2395 27.0582 19.2514 27.0582 19.2632 27.0705C19.2632 27.0705 19.2632 27.0828 19.275 27.0951C19.346 27.1687 19.4288 27.2055 19.5115 27.2546C19.5589 27.2792 19.5943 27.3282 19.6416 27.3405C19.7836 27.4019 19.9373 27.4387 20.091 27.4387C20.2448 27.4387 20.3867 27.4142 20.5286 27.3528C20.5286 27.3528 20.5522 27.3282 20.5759 27.316C20.6942 27.2546 20.8006 27.181 20.8952 27.0828C20.907 27.0705 20.9307 27.0582 20.9425 27.046L25.673 21.8914C26.1223 21.4005 26.1105 20.6273 25.6256 20.161H25.6493Z" fill="#002F6C"/>
</svg>
