<svg width="16" height="16" viewBox="0 0 16 16" fill="none" xmlns="http://www.w3.org/2000/svg">
<path d="M8 0C3.58229 0 0 3.58229 0 8C0 12.4171 3.58229 16 8 16C12.4171 16 16 12.4171 16 8C16 3.58229 12.4171 0 8 0ZM4 6.28571C4 5.65429 4.51143 5.14286 5.14286 5.14286C5.77429 5.14286 6.28571 5.65429 6.28571 6.28571C6.28571 6.91714 5.77429 7.42857 5.14286 7.42857C4.51143 7.42857 4 6.91714 4 6.28571ZM8 12.4577C6.30171 12.4577 4.89543 11.2211 4.62286 9.60057H11.3771C11.1051 11.2211 9.69886 12.4577 8 12.4577ZM10.8571 7.42857C10.2257 7.42857 9.71429 6.91714 9.71429 6.28571C9.71429 5.65429 10.2257 5.14286 10.8571 5.14286C11.4886 5.14286 12 5.65429 12 6.28571C12 6.91714 11.4886 7.42857 10.8571 7.42857Z" fill="#002F6C"/>
</svg>
