<svg width="229" height="105" viewBox="0 0 229 105" fill="none" xmlns="http://www.w3.org/2000/svg">
<path d="M115.563 67.0131C128.126 67.0131 138.3 56.8345 138.3 44.2777C138.3 31.7261 128.128 21.5552 115.563 21.5552C103.019 21.5552 92.8535 31.7261 92.8535 44.2777C92.8535 56.8345 103.019 67.0131 115.563 67.0131ZM105.285 30.5715C105.285 29.111 106.251 28.4992 107.565 29.2582L131.262 42.944C132.569 43.6953 132.569 44.8755 131.262 45.6358L107.565 59.2998C106.253 60.0013 105.285 59.4534 105.285 57.9289V30.5715Z" fill="#002F6C"/>
<path d="M50.5 0V83.6749H178.5V0H50.5ZM173.068 79.0848H55.9323V4.59136H173.068V79.0848Z" fill="#002F6C"/>
<path d="M170.82 94.67H86.0365C85.3389 90.7417 81.9073 87.7478 77.7818 87.7478C73.6589 87.7478 70.226 90.7417 69.5271 94.67H56.0461V97.6115H69.5271C70.2247 101.54 73.6577 104.532 77.7818 104.532C81.906 104.532 85.3389 101.54 86.0365 97.6115H170.82V94.67Z" fill="#002F6C"/>
</svg>
