<svg width="88" height="75" viewBox="0 0 88 75" fill="none" xmlns="http://www.w3.org/2000/svg">
<path d="M35.6885 35.0942V55.5322L53.3765 45.3132L35.6885 35.0942Z" fill="#002F6C"/>
<path d="M13.7812 0H9.375C4.2188 0 0 4.2188 0 9.375V15.625H22.656L13.7812 0Z" fill="#002F6C"/>
<path d="M20.9688 0L29.8438 15.625H42.9688L34.0938 0H20.9688Z" fill="#002F6C"/>
<path d="M63.2812 15.625L54.4062 0H41.2812L50.1562 15.625H63.2812Z" fill="#002F6C"/>
<path d="M78.1247 0H61.5938L70.4688 15.625H87.4997V9.375C87.4997 4.2188 83.2809 0 78.1247 0Z" fill="#002F6C"/>
<path d="M0 65.625C0 70.7812 4.2188 75 9.375 75H78.125C83.2812 75 87.5 70.7812 87.5 65.625V21.875H0V65.625ZM29.438 29.687C29.438 28.562 30.063 27.5308 31.0005 26.9682C31.9692 26.437 33.188 26.437 34.1255 26.9682L61.1875 42.5932C62.1562 43.1557 62.75 44.187 62.75 45.312C62.75 46.437 62.1562 47.4682 61.1875 48.0308L34.1255 63.6558C33.6567 63.937 33.1255 64.062 32.563 64.062C32.0317 64.062 31.5005 63.937 31.0005 63.6558C30.063 63.0933 29.438 62.062 29.438 60.937V29.687Z" fill="#002F6C"/>
</svg>
