<svg width="22" height="18" viewBox="0 0 22 18" fill="none" xmlns="http://www.w3.org/2000/svg">
<path d="M11.3903 0.5C11.951 0.503188 13.3539 0.517001 14.845 0.577567L15.3742 0.600944C16.8747 0.672136 18.3742 0.795393 19.1187 1.00472C20.111 1.28736 20.8901 2.10979 21.1537 3.15323C21.5737 4.81083 21.6262 8.04316 21.6325 8.82627L21.6335 8.98778V9.17267C21.6262 9.95578 21.5737 13.1892 21.1537 14.8457C20.887 15.8923 20.1068 16.7158 19.1187 16.9942C18.3742 17.2035 16.8747 17.3268 15.3742 17.398L14.845 17.4224C13.3539 17.4819 11.951 17.4968 11.3903 17.4989L11.1435 17.5H10.8758C9.6892 17.4926 4.72665 17.4384 3.14737 16.9942C2.15612 16.7116 1.37593 15.8891 1.11237 14.8457C0.692348 13.1881 0.639845 9.95578 0.633545 9.17267V8.82627C0.639845 8.04316 0.692348 4.80977 1.11237 3.15323C1.37908 2.1066 2.15927 1.28311 3.14842 1.00578C4.72665 0.560566 9.69025 0.506375 10.8768 0.5H11.3903ZM9.03291 5.28155V12.7195L15.3332 9.00053L9.03291 5.28155Z" fill="#E9F0FD"/>
</svg>
