<svg width="27" height="22" viewBox="0 0 27 22" fill="none" xmlns="http://www.w3.org/2000/svg">
<path d="M13.8301 0.5C14.551 0.503938 16.3547 0.521001 18.2718 0.595818L18.9522 0.624695C20.8815 0.712638 22.8094 0.864898 23.7666 1.12348C25.0424 1.47262 26.0442 2.48856 26.383 3.77752C26.923 5.82515 26.9905 9.81802 26.9986 10.7854L27 10.9849V11.2133C26.9906 12.1807 26.923 16.1749 26.383 18.2212C26.0401 19.5141 25.037 20.5313 23.7666 20.8752C22.8094 21.1338 20.8815 21.286 18.9522 21.374L18.2718 21.4042C16.3547 21.4777 14.551 21.4961 13.8301 21.4987L13.5128 21.5H13.1686C11.643 21.4908 5.26256 21.4239 3.23206 20.8752C1.9576 20.5261 0.954498 19.5101 0.615631 18.2212C0.0756039 16.1735 0.00810041 12.1807 0 11.2133V10.7854C0.00810041 9.81802 0.0756039 5.82383 0.615631 3.77752C0.958548 2.48462 1.96165 1.46737 3.23341 1.12479C5.26256 0.574817 11.6443 0.507875 13.1699 0.5H13.8301ZM10.7992 6.40662V15.5947L18.8996 11.0007L10.7992 6.40662Z" fill="#002F6C"/>
</svg>
